<svg width="54" height="54" viewBox="0 0 54 54" fill="none" xmlns="http://www.w3.org/2000/svg">
<g clip-path="url(#clip0_2761_37144)">
<path d="M45.4036 7.12408C45.7398 6.84395 46.2062 6.78299 46.6017 6.96756L45.4036 7.12408ZM45.4036 7.12408C42.8676 9.24511 39.8089 10.3673 36.5623 10.3673C33.3473 10.3673 30.2012 9.21547 27.7029 7.12408H45.4036ZM47.0278 6.06286L47.0246 6.06138C46.2767 5.71235 45.3962 5.82852 44.7634 6.35587L44.7621 6.357C42.4023 8.33061 39.5697 9.36732 36.5623 9.36732C33.5855 9.36732 30.6658 8.30026 28.3448 6.35729L28.3433 6.35597C25.2251 3.75662 21.4514 2.375 17.4395 2.375C13.5574 2.375 9.76007 3.7364 6.71497 6.20679C6.13557 6.58588 5.75098 7.24143 5.75098 7.98768V32.5124C5.75098 33.3362 6.22678 34.0875 6.97568 34.437L6.97716 34.4377C7.7241 34.7848 8.6049 34.6713 9.23807 34.1414C11.5957 32.1701 14.4281 31.1361 17.4395 31.1361C20.4508 31.1361 23.2815 32.17 25.639 34.1429L25.6401 34.1438C28.7148 36.7096 32.5929 38.1252 36.5622 38.1252C40.4443 38.1252 44.2415 36.7639 47.2865 34.2919C47.8636 33.9149 48.2509 33.2598 48.2509 32.5125V7.98792C48.2509 7.98784 48.2509 7.98776 48.2509 7.98768C48.251 7.1606 47.7707 6.41276 47.0278 6.06286Z" fill="white" stroke="white" stroke-width="2"/>
<path d="M37.126 37.1165C40.5966 36.9912 43.9733 35.7124 46.7022 33.4794C47.0301 33.2833 47.251 32.924 47.251 32.5137V7.9889C47.251 7.55215 46.9972 7.15505 46.6017 6.96879C46.2062 6.78421 45.7398 6.84517 45.4037 7.12531C43.0142 9.1243 40.1632 10.2333 37.1261 10.3569L37.126 37.1165Z" fill="#1F2A37"/>
<path d="M26.9813 6.55646C24.1897 4.47351 20.9101 3.37598 17.4396 3.37598C17.2518 3.37598 17.0639 3.38093 16.876 3.38747V30.1486C17.0622 30.1404 17.2501 30.1371 17.4396 30.1371C20.6894 30.1371 23.7464 31.256 26.2808 33.3769C26.5099 33.5681 26.744 33.7511 26.9813 33.9274V6.55646Z" fill="#1F2A37"/>
<path d="M7.29964 7.02139C6.97004 7.21915 6.75098 7.57838 6.75098 7.98877V32.5135C6.75098 32.9502 7.00305 33.3473 7.39857 33.5319C7.79577 33.7165 8.26217 33.6555 8.59662 33.3754C10.9846 31.3798 13.8372 30.2706 16.8759 30.1487V3.3877C13.4054 3.513 10.0304 4.79015 7.29964 7.02139Z" fill="white"/>
<path d="M16.4705 17.0518C13.0246 17.0518 9.63815 17.9945 6.75098 19.7313V32.5128C6.75098 32.9495 7.00305 33.3466 7.39857 33.5312C7.79577 33.7158 8.26217 33.6548 8.59662 33.3747C10.9846 31.3791 13.8372 30.2699 16.8759 30.148V17.0567C16.7408 17.0533 16.6056 17.0518 16.4705 17.0518Z" fill="#1F2A37"/>
<path d="M26.9813 33.9257V20.2329C24.015 18.2224 20.5493 17.1298 16.876 17.0557V30.147C17.0622 30.1387 17.2501 30.1355 17.4396 30.1355C20.6894 30.1355 23.7464 31.2544 26.2808 33.3753C26.51 33.5664 26.744 33.7493 26.9813 33.9257Z" fill="white"/>
<path d="M47.251 32.5116V20.8145C44.4611 22.9256 41.1009 24.0428 37.5314 24.0428C37.3963 24.0428 37.2612 24.0396 37.126 24.0363V37.1145C40.5966 36.9892 43.9733 35.7105 46.7022 33.4774C47.0301 33.2813 47.251 32.9219 47.251 32.5116Z" fill="white"/>
<path d="M37.1252 24.0379C33.7257 23.9538 30.4198 22.8135 27.7731 20.8013C27.5127 20.6052 27.249 20.4157 26.9805 20.2344V33.9272C29.7556 35.9954 33.1241 37.1259 36.5616 37.1259C36.7494 37.1259 36.9373 37.1226 37.1252 37.116V24.0379Z" fill="#1F2A37"/>
<path d="M4.38574 50.7722C4.38574 51.5694 4.9388 52.0988 5.41613 52.373C5.92025 52.6626 6.55008 52.8096 7.19161 52.8096C7.83306 52.8096 8.46322 52.6627 8.96769 52.3735C9.44467 52.1001 10.0004 51.5709 10.0004 50.7722V3.00755C10.0004 2.20927 9.44508 1.67974 8.96835 1.40596C8.46394 1.11628 7.83359 0.96875 7.19161 0.96875C6.54963 0.96875 5.91962 1.11626 5.41551 1.40639C4.93832 1.68102 4.38574 2.21081 4.38574 3.00755V50.7722Z" fill="#ED5564" stroke="white" stroke-width="2"/>
</g>
<defs>
<clipPath id="clip0_2761_37144">
<rect width="54" height="54" fill="white"/>
</clipPath>
</defs>
</svg>
