<svg width="45" height="45" viewBox="0 0 45 45" fill="none" xmlns="http://www.w3.org/2000/svg">
<path d="M33.0419 14.7071C33.9145 12.8094 31.9554 10.8503 30.0577 11.7229L22.3465 15.2686C22.1477 15.36 21.9188 15.36 21.7199 15.2686L14.0087 11.7229C12.111 10.8503 10.1519 12.8094 11.0245 14.7071L14.5702 22.4182C14.6617 22.6171 14.6617 22.846 14.5702 23.0449L11.0245 30.7561C10.1519 32.6538 12.111 34.6129 14.0087 33.7403L21.7199 30.1946C21.9188 30.1031 22.1477 30.1031 22.3465 30.1946L30.0577 33.7403C31.9554 34.6129 33.9145 32.6538 33.0419 30.7561L29.4962 23.0449C29.4047 22.846 29.4047 22.6171 29.4962 22.4182L33.0419 14.7071Z" fill="black" stroke="white" stroke-width="1.5"/>
<path d="M24.1432 9.27293C23.4184 7.31403 20.6478 7.31404 19.9229 9.27293L16.9775 17.2328C16.9015 17.4381 16.7397 17.5999 16.5344 17.6759L8.57456 20.6213C6.61567 21.3461 6.61568 24.1168 8.57457 24.8416L16.5344 27.787C16.7397 27.863 16.9015 28.0248 16.9775 28.2301L19.9229 36.19C20.6478 38.1489 23.4184 38.1488 24.1432 36.19L27.0887 28.2301C27.1646 28.0248 27.3265 27.863 27.5318 27.787L35.4916 24.8416C37.4505 24.1168 37.4505 21.3461 35.4916 20.6213L27.5318 17.6759C27.3265 17.5999 27.1646 17.4381 27.0887 17.2328L24.1432 9.27293Z" fill="black" stroke="white" stroke-width="1.5"/>
<path d="M22.9656 17.1254L22.8179 25.4151L21.244 25.4151L21.0963 17.1254L22.9656 17.1254ZM22.0338 28.8697C21.7194 28.8697 21.4505 28.7598 21.227 28.5401C21.0035 28.3166 20.8937 28.0477 20.8975 27.7333C20.8937 27.4227 21.0035 27.1576 21.227 26.9379C21.4505 26.7144 21.7194 26.6026 22.0338 26.6026C22.3406 26.6026 22.6058 26.7144 22.8293 26.9379C23.0528 27.1575 23.1664 27.4227 23.1702 27.7333C23.1664 27.9416 23.1115 28.1329 23.0054 28.3072C22.9031 28.4776 22.7668 28.614 22.5963 28.7163C22.4259 28.8185 22.2384 28.8697 22.0338 28.8697Z" fill="white"/>
</svg>
