<svg width="45" height="45" viewBox="0 0 45 45" fill="none" xmlns="http://www.w3.org/2000/svg">
<path d="M24.1434 9.27293C23.4185 7.31403 20.6479 7.31404 19.923 9.27293L16.9776 17.2328C16.9017 17.4381 16.7398 17.5999 16.5345 17.6759L8.57468 20.6213C6.61579 21.3461 6.6158 24.1168 8.57469 24.8416L16.5345 27.787C16.7398 27.863 16.9017 28.0248 16.9776 28.2301L19.923 36.19C20.6479 38.1489 23.4185 38.1488 24.1434 36.19L27.0888 28.2301C27.1647 28.0248 27.3266 27.863 27.5319 27.787L35.4917 24.8416C37.4506 24.1168 37.4506 21.3461 35.4917 20.6213L27.5319 17.6759C27.3266 17.5999 27.1647 17.4381 27.0888 17.2328L24.1434 9.27293Z" fill="white" stroke="#E11D48" stroke-width="1.5"/>
<path d="M22.9658 17.1244L22.818 25.4141L21.2442 25.4141L21.0964 17.1244L22.9658 17.1244ZM22.0339 28.8687C21.7195 28.8687 21.4506 28.7588 21.2271 28.5391C21.0036 28.3157 20.8938 28.0467 20.8976 27.7323C20.8938 27.4217 21.0036 27.1566 21.2271 26.9369C21.4506 26.7134 21.7195 26.6016 22.0339 26.6016C22.3408 26.6016 22.6059 26.7134 22.8294 26.9369C23.0529 27.1566 23.1665 27.4217 23.1703 27.7323C23.1665 27.9407 23.1116 28.132 23.0055 28.3062C22.9033 28.4766 22.7669 28.613 22.5964 28.7153C22.426 28.8176 22.2385 28.8687 22.0339 28.8687Z" fill="#E11D48"/>
</svg>
