<svg width="45" height="45" viewBox="0 0 45 45" fill="none" xmlns="http://www.w3.org/2000/svg">
<path d="M24.81 9.27293C24.0852 7.31403 21.3146 7.31404 20.5897 9.27293L17.6443 17.2328C17.5683 17.4381 17.4065 17.5999 17.2012 17.6759L9.24136 20.6213C7.28246 21.3461 7.28247 24.1168 9.24136 24.8416L17.2012 27.787C17.4065 27.863 17.5683 28.0248 17.6443 28.2301L20.5897 36.19C21.3146 38.1489 24.0852 38.1488 24.81 36.19L27.7554 28.2301C27.8314 28.0248 27.9933 27.863 28.1986 27.787L36.1584 24.8416C38.1173 24.1168 38.1173 21.3461 36.1584 20.6213L28.1986 17.6759C27.9933 17.5999 27.8314 17.4381 27.7554 17.2328L24.81 9.27293Z" fill="#F59E0B" stroke="white" stroke-width="1.5"/>
<path d="M23.6324 17.1244L23.4847 25.4141L21.9108 25.4141L21.7631 17.1244L23.6324 17.1244ZM22.7006 28.8687C22.3862 28.8687 22.1173 28.7588 21.8938 28.5391C21.6703 28.3157 21.5605 28.0467 21.5642 27.7323C21.5605 27.4217 21.6703 27.1566 21.8938 26.9369C22.1173 26.7134 22.3862 26.6016 22.7006 26.6016C23.0074 26.6016 23.2726 26.7134 23.4961 26.9369C23.7195 27.1566 23.8332 27.4217 23.837 27.7323C23.8332 27.9407 23.7783 28.132 23.6722 28.3062C23.5699 28.4766 23.4336 28.613 23.2631 28.7153C23.0927 28.8176 22.9052 28.8687 22.7006 28.8687Z" fill="white"/>
</svg>
