<svg width="38" height="46" viewBox="0 0 38 46" fill="none" xmlns="http://www.w3.org/2000/svg">
<path d="M15.0376 3.82117C16.1731 1.99485 18.7703 1.99484 19.9059 3.82117C24.1383 10.6285 32.4067 24.7203 32.4067 30.918C32.4067 39.2476 25.7201 46 17.4717 46C9.22332 46 2.53668 39.2476 2.53668 30.918C2.53668 24.7203 10.8051 10.6285 15.0376 3.82117Z" fill="white"/>
<path d="M15.0221 11.5877C16.1388 9.7146 18.7796 9.7146 19.8962 11.5877C23.113 16.9833 28.3732 26.4695 28.3732 30.8041C28.3732 37.0478 23.4868 42.1094 17.4592 42.1094C11.4315 42.1094 6.54517 37.0478 6.54517 30.8041C6.54517 26.4695 11.8054 16.9833 15.0221 11.5877Z" fill="#3B82F6"/>
<path d="M19.49 5.50805C21.486 8.80935 24.3506 13.7421 26.7147 18.5737C27.8969 20.9898 28.9499 23.3723 29.7063 25.5078C30.4665 27.6542 30.9111 29.5076 30.9111 30.8804C30.9111 38.588 24.8781 44.8066 17.4718 44.8066C10.0655 44.8066 4.03241 38.588 4.03241 30.8804C4.03241 29.5076 4.47699 27.6542 5.23728 25.5078C5.99366 23.3723 7.04661 20.9898 8.22881 18.5737C10.5929 13.7421 13.4576 8.80934 15.4535 5.50805C16.3867 3.9646 18.5568 3.9646 19.49 5.50805Z" stroke="#DC2626"/>
<rect x="25.9633" y="35.1198" width="9" height="9" rx="4.5" fill="#DC2626"/>
<rect x="25.9633" y="35.1198" width="9" height="9" rx="4.5" stroke="white"/>
<path d="M31.2872 36.5616L29.6205 36.5668L29.6222 37.1224L31.2889 37.1172L31.2872 36.5616ZM30.1873 40.1762L30.7429 40.1745L30.7377 38.5078L30.1821 38.5095L30.1873 40.1762ZM32.4121 38.3331L32.8054 37.9375C32.6855 37.7962 32.5545 37.6633 32.4125 37.547L32.0193 37.9427C31.5757 37.5881 31.0243 37.3957 30.4564 37.3976C29.0759 37.4019 27.9599 38.5248 27.9642 39.9053C27.9685 41.2859 29.0887 42.4018 30.472 42.3975C30.9427 42.3963 31.4034 42.2622 31.8011 42.0106C32.1989 41.759 32.5175 41.4002 32.7202 40.9755C32.923 40.5507 33.0016 40.0774 32.9471 39.6099C32.8926 39.1424 32.7072 38.6998 32.4121 38.3331ZM30.4703 41.842C29.3953 41.8453 28.5231 40.9786 28.5198 39.9036C28.5164 38.8286 29.3832 37.9565 30.4582 37.9531C31.5332 37.9498 32.4053 38.8165 32.4087 39.8915C32.412 40.9665 31.5453 41.8386 30.4703 41.842Z" fill="white"/>
<path d="M14.3915 32.7448C14.3915 32.7448 14.4204 35.7448 17.4863 35.7448C20.5522 35.7448 20.5522 32.7448 20.5522 32.7448" stroke="white" stroke-linecap="round"/>
<ellipse cx="13.6213" cy="28.2448" rx="2.31026" ry="2.25" fill="white"/>
<ellipse cx="21.3223" cy="28.2448" rx="2.31026" ry="2.25" fill="white"/>
</svg>
