<svg width="40" height="40" viewBox="0 0 40 40" fill="none" xmlns="http://www.w3.org/2000/svg">
<path fill-rule="evenodd" clip-rule="evenodd" d="M2.31995 33.658L17.316 3.65802C18.422 1.44602 21.576 1.44602 22.6819 3.65802L37.678 33.658C37.9067 34.1153 38.0147 34.6235 37.9918 35.1343C37.969 35.6451 37.8159 36.1416 37.5472 36.5766C37.2785 37.0116 36.9031 37.3707 36.4566 37.6198C36.01 37.869 35.5073 37.9998 34.9959 38H5.00395C4.49247 38.0002 3.98944 37.8696 3.54266 37.6206C3.09587 37.3716 2.72017 37.0125 2.45123 36.5774C2.18229 36.1424 2.02906 35.6458 2.00608 35.1348C1.9831 34.6238 2.09115 34.1155 2.31995 33.658ZM20 14C20.5304 14 21.0391 14.2107 21.4142 14.5858C21.7892 14.9609 22 15.4696 22 16V22C22 22.5305 21.7892 23.0392 21.4142 23.4142C21.0391 23.7893 20.5304 24 20 24C19.4695 24 18.9608 23.7893 18.5857 23.4142C18.2107 23.0392 18 22.5305 18 22V16C18 15.4696 18.2107 14.9609 18.5857 14.5858C18.9608 14.2107 19.4695 14 20 14ZM22 30C22 30.5305 21.7892 31.0392 21.4142 31.4142C21.0391 31.7893 20.5304 32 20 32C19.4695 32 18.9608 31.7893 18.5857 31.4142C18.2107 31.0392 18 30.5305 18 30C18 29.4696 18.2107 28.9609 18.5857 28.5858C18.9608 28.2107 19.4695 28 20 28C20.5304 28 21.0391 28.2107 21.4142 28.5858C21.7892 28.9609 22 29.4696 22 30Z" fill="#374151"/>
</svg>
