<svg width="300" height="301" viewBox="0 0 300 301" fill="none" xmlns="http://www.w3.org/2000/svg">
<path d="M37.5 115.855V185.145C37.5 191.775 40.1339 198.134 44.8224 202.823L97.6776 255.677C102.366 260.366 108.725 263 115.355 263H184.645C191.275 263 197.634 260.366 202.323 255.677L255.177 202.823C259.866 198.134 262.5 191.775 262.5 185.145V115.855C262.5 109.225 259.866 102.866 255.177 98.1776L202.323 45.3224C197.634 40.6339 191.275 38 184.645 38H115.355C108.725 38 102.366 40.6339 97.6776 45.3224L44.8224 98.1776C40.1339 102.866 37.5 109.225 37.5 115.855Z" stroke="#FFB017" stroke-width="25" stroke-linecap="round" stroke-linejoin="round"/>
<path d="M150 100.5V163" stroke="#FFB017" stroke-width="25" stroke-linecap="round"/>
<path d="M150 200.499V200.359" stroke="#FFB017" stroke-width="25" stroke-linecap="round"/>
</svg>
