<svg width="300" height="300" viewBox="0 0 300 300" fill="none" xmlns="http://www.w3.org/2000/svg">
<path d="M37.0792 118.359C35.4983 118.374 33.9417 117.969 32.5675 117.188C31.5596 116.621 30.6748 115.859 29.9649 114.946C29.2549 114.034 28.7342 112.989 28.433 111.873C28.1318 110.756 28.0563 109.591 28.2109 108.445C28.3654 107.299 28.7469 106.196 29.3331 105.199C40.63 86.3437 75.0011 42.334 150.001 42.334C182.503 42.334 211.009 50.8711 234.687 67.6992C254.175 81.5098 265.097 97.1426 270.3 104.672C270.96 105.621 271.423 106.692 271.663 107.823C271.902 108.954 271.913 110.121 271.695 111.257C271.476 112.392 271.033 113.472 270.391 114.433C269.749 115.394 268.921 116.217 267.956 116.854C265.984 118.157 263.582 118.642 261.258 118.204C258.935 117.767 256.874 116.441 255.511 114.51C246.095 100.969 217.384 59.7656 150.001 59.7656C84.2296 59.7656 54.4933 97.6816 44.8077 113.941C44.0295 115.299 42.9029 116.425 41.5442 117.201C40.1855 117.978 38.6441 118.378 37.0792 118.359Z" fill="#1C64F2"/>
<path d="M187.785 290.625C187.037 290.634 186.291 290.549 185.564 290.373C131.16 276.896 110.846 222.51 110.02 220.248L109.891 219.75C109.445 218.18 98.5293 180.885 115.287 159.041C122.969 149.08 134.652 143.971 150.08 143.971C164.424 143.971 174.772 148.43 181.885 157.658C187.744 165.193 190.088 174.486 192.356 183.439C197.119 202.084 200.559 211.875 220.357 212.883C229.053 213.322 234.766 208.236 238.006 203.906C246.766 192.1 248.289 172.852 241.686 155.859C233.201 133.928 203.09 92.5781 149.998 92.5781C127.334 92.5781 106.51 99.8613 89.8106 113.549C75.9883 124.887 65.0372 140.895 59.7637 157.348C49.9844 187.98 62.8106 236.133 62.9336 236.572C63.2331 237.693 63.3052 238.862 63.1456 240.011C62.986 241.16 62.5979 242.266 62.0043 243.262C61.4107 244.259 60.6236 245.126 59.6893 245.814C58.755 246.502 57.6925 246.995 56.5645 247.266C54.2856 247.872 51.8599 247.561 49.8074 246.4C47.7549 245.239 46.2388 243.32 45.584 241.055C44.9981 238.857 31.2989 187.5 42.5957 152.098C54.9004 113.736 92.875 75.0645 150.016 75.0645C176.424 75.0645 201.373 84.041 222.197 100.992C238.322 114.176 251.494 131.883 258.385 149.584C267.145 172.184 264.795 197.549 252.414 214.119C244.164 225.17 232.416 230.947 219.402 230.32C185.5 228.621 179.406 204.955 174.965 187.693C170.395 169.986 167.471 161.449 150.016 161.449C140.43 161.449 133.697 164.086 129.508 169.547C123.795 177.018 123.35 188.695 123.982 197.168C124.398 203.071 125.399 208.918 126.971 214.623C128.365 218.139 146.523 262.67 190.012 273.445C191.136 273.712 192.196 274.199 193.13 274.878C194.064 275.557 194.854 276.416 195.454 277.403C196.053 278.39 196.451 279.487 196.623 280.629C196.795 281.771 196.739 282.936 196.457 284.057C195.926 285.948 194.792 287.613 193.226 288.799C191.66 289.985 189.749 290.626 187.785 290.625Z" fill="#1C64F2"/>
<path d="M117.957 286.605C116.738 286.608 115.53 286.365 114.407 285.891C113.283 285.417 112.267 284.721 111.418 283.846C89.6447 260.994 77.3283 235.441 72.6935 203.49V203.32C70.0919 182.168 73.9005 152.221 92.5627 131.631C106.338 116.438 125.703 108.715 150.02 108.715C178.777 108.715 201.377 122.086 215.469 147.322C225.694 165.656 227.721 183.926 227.774 184.676C227.881 185.832 227.759 186.998 227.415 188.108C227.071 189.217 226.511 190.247 225.768 191.14C225.025 192.032 224.113 192.77 223.085 193.309C222.057 193.849 220.932 194.181 219.776 194.285C217.442 194.538 215.102 193.864 213.261 192.407C211.421 190.95 210.227 188.828 209.938 186.498C208.394 175.536 204.847 164.952 199.473 155.273C188.551 136.002 171.934 126.205 149.955 126.205C130.971 126.205 116.117 131.918 105.899 143.197C91.1681 159.457 88.3205 184.506 90.3419 201.076C94.4025 229.33 105.26 251.807 124.432 271.893C125.232 272.725 125.857 273.71 126.269 274.788C126.681 275.867 126.871 277.018 126.83 278.172C126.788 279.325 126.515 280.459 126.027 281.505C125.538 282.552 124.844 283.489 123.986 284.262C122.334 285.759 120.187 286.594 117.957 286.605Z" fill="#1C64F2"/>
<path d="M218.261 261.434C199.218 261.434 183.029 256.161 170.074 245.678C144.046 224.707 141.128 190.553 140.999 189.112C140.816 186.746 141.58 184.404 143.123 182.601C144.667 180.799 146.863 179.683 149.229 179.499C151.595 179.316 153.937 180.08 155.739 181.623C157.542 183.167 158.658 185.363 158.841 187.729C158.906 188.233 161.507 216.17 181.57 232.26C193.441 241.741 209.308 245.502 228.861 243.305C231.198 243.022 233.552 243.675 235.408 245.122C237.265 246.569 238.473 248.692 238.769 251.028C238.897 252.181 238.794 253.349 238.466 254.462C238.138 255.576 237.591 256.613 236.858 257.513C236.125 258.413 235.22 259.158 234.196 259.704C233.172 260.251 232.05 260.588 230.894 260.696C226.701 261.185 222.483 261.431 218.261 261.434Z" fill="#1C64F2"/>
<path d="M233.307 28.5879C225.877 23.7539 199.533 9.375 149.998 9.375C98.0019 9.375 71.5938 25.2598 65.752 29.2969C65.3661 29.5337 65.005 29.8085 64.6738 30.1172C64.6389 30.151 64.5934 30.1717 64.5449 30.1758C63.6121 30.9903 62.8635 31.9942 62.3493 33.1208C61.835 34.2474 61.5668 35.4706 61.5625 36.709C61.5785 37.8698 61.8235 39.0161 62.2833 40.0821C62.7431 41.1482 63.4087 42.113 64.2421 42.9213C65.0754 43.7296 66.0601 44.3655 67.1396 44.7926C68.2192 45.2197 69.3724 45.4295 70.5332 45.4102C72.3938 45.4089 74.2094 44.8385 75.7363 43.7754C75.9883 43.5879 98.7168 26.8887 150.016 26.8887C201.314 26.8887 224.166 43.5293 224.412 43.6523C225.972 44.8092 227.867 45.4262 229.809 45.4102C230.97 45.428 232.124 45.2162 233.204 44.7869C234.284 44.3577 235.268 43.7194 236.1 42.9088C236.933 42.0982 237.597 41.1311 238.055 40.0632C238.512 38.9952 238.755 37.8474 238.768 36.6855C238.768 34.9452 238.248 33.2445 237.275 31.8016C236.302 30.3588 234.92 29.2396 233.307 28.5879Z" fill="#1C64F2"/>
</svg>
