<svg width="40" height="40" viewBox="0 0 40 40" fill="none" xmlns="http://www.w3.org/2000/svg">
<rect width="40" height="40" rx="20" fill="#4ADE80"/>
<path d="M23.2952 7.76755L16.6286 7.78831L16.6355 10.0105L23.3022 9.98976L23.2952 7.76755ZM18.8958 22.2258L21.118 22.2188L21.0973 15.5522L18.875 15.5591L18.8958 22.2258ZM27.7951 14.8536L29.368 13.2709C28.8884 12.7057 28.3646 12.174 27.7964 11.7091L26.2236 13.2918C24.4495 11.8732 22.2438 11.1038 19.9723 11.1112C14.4501 11.1285 9.98631 15.6202 10.0035 21.1424C10.0207 26.6645 14.5013 31.1284 20.0346 31.1112C21.9172 31.1063 23.7601 30.5698 25.3511 29.5634C26.9421 28.5571 28.2164 27.1218 29.0274 25.4228C29.8384 23.7239 30.153 21.8304 29.935 19.9605C29.717 18.0906 28.9752 16.3204 27.7951 14.8536ZM20.0277 28.8889C15.7277 28.9023 12.2391 25.4354 12.2257 21.1354C12.2123 16.8354 15.6793 13.3469 19.9792 13.3335C24.2792 13.3201 27.7678 16.787 27.7812 21.087C27.7946 25.387 24.3277 28.8755 20.0277 28.8889Z" fill="#111217"/>
</svg>
