<svg width="25" height="24" viewBox="0 0 25 24" fill="none" xmlns="http://www.w3.org/2000/svg">
<path d="M0.774994 12C0.774994 5.57969 5.97968 0.375 12.4 0.375C18.8203 0.375 24.025 5.57969 24.025 12C24.025 18.4203 18.8203 23.625 12.4 23.625C5.97968 23.625 0.774994 18.4203 0.774994 12Z" fill="#E1EFFE"/>
<path d="M0.774994 12C0.774994 5.57969 5.97968 0.375 12.4 0.375C18.8203 0.375 24.025 5.57969 24.025 12C24.025 18.4203 18.8203 23.625 12.4 23.625C5.97968 23.625 0.774994 18.4203 0.774994 12Z" stroke="#1A56DB" stroke-width="0.75"/>
<path d="M13.551 4.65901C13.1556 3.59053 11.6444 3.59052 11.249 4.65901L9.64241 9.00074C9.60097 9.11272 9.51269 9.201 9.40071 9.24244L5.05898 10.849C3.9905 11.2444 3.99049 12.7556 5.05898 13.151L9.40071 14.7576C9.51269 14.799 9.60098 14.8873 9.64241 14.9993L11.249 19.341C11.6444 20.4095 13.1556 20.4095 13.551 19.341L15.1576 14.9993C15.199 14.8873 15.2873 14.799 15.3993 14.7576L19.741 13.151C20.8095 12.7556 20.8095 11.2444 19.741 10.849L15.3993 9.24244C15.2873 9.201 15.199 9.11272 15.1576 9.00074L13.551 4.65901Z" fill="#1C64F2" stroke="white" stroke-width="0.818182"/>
<path d="M12.909 8.75982L12.8284 13.2815L11.9699 13.2815L11.8894 8.75983L12.909 8.75982ZM12.4007 15.1658C12.2292 15.1658 12.0825 15.1059 11.9606 14.9861C11.8387 14.8642 11.7788 14.7175 11.7809 14.546C11.7788 14.3766 11.8387 14.2319 11.9606 14.1121C12.0825 13.9902 12.2292 13.9292 12.4007 13.9292C12.5681 13.9292 12.7127 13.9902 12.8346 14.1121C12.9565 14.2319 13.0185 14.3766 13.0206 14.546C13.0185 14.6596 12.9885 14.764 12.9307 14.859C12.8749 14.952 12.8005 15.0264 12.7075 15.0821C12.6146 15.1379 12.5123 15.1658 12.4007 15.1658Z" fill="white"/>
</svg>
