<svg width="24" height="24" viewBox="0 0 24 24" fill="none" xmlns="http://www.w3.org/2000/svg">
<path d="M0.375 12C0.375 5.57969 5.57969 0.375 12 0.375C18.4203 0.375 23.625 5.57969 23.625 12C23.625 18.4203 18.4203 23.625 12 23.625C5.57969 23.625 0.375 18.4203 0.375 12Z" fill="#EDFAFA"/>
<path d="M0.375 12C0.375 5.57969 5.57969 0.375 12 0.375C18.4203 0.375 23.625 5.57969 23.625 12C23.625 18.4203 18.4203 23.625 12 23.625C5.57969 23.625 0.375 18.4203 0.375 12Z" stroke="#047481" stroke-width="0.75"/>
<path d="M13.151 4.65901C12.7556 3.59053 11.2444 3.59052 10.849 4.65901L9.24242 9.00074C9.20099 9.11272 9.1127 9.201 9.00073 9.24244L4.659 10.849C3.59051 11.2444 3.59051 12.7556 4.65899 13.151L9.00073 14.7576C9.1127 14.799 9.20099 14.8873 9.24242 14.9993L10.849 19.341C11.2444 20.4095 12.7556 20.4095 13.151 19.341L14.7576 14.9993C14.799 14.8873 14.8873 14.799 14.9993 14.7576L19.341 13.151C20.4095 12.7556 20.4095 11.2444 19.341 10.849L14.9993 9.24244C14.8873 9.201 14.799 9.11272 14.7576 9.00074L13.151 4.65901Z" fill="#16BDCA" stroke="#EDFAFA" stroke-width="0.818182"/>
<path d="M12.5087 8.75983L12.4281 13.2815L11.5696 13.2815L11.489 8.75983L12.5087 8.75983ZM12.0004 15.1658C11.8289 15.1658 11.6822 15.1059 11.5603 14.9861C11.4384 14.8642 11.3785 14.7175 11.3806 14.546C11.3785 14.3766 11.4384 14.2319 11.5603 14.1121C11.6822 13.9902 11.8289 13.9292 12.0004 13.9292C12.1678 13.9292 12.3124 13.9902 12.4343 14.1121C12.5562 14.2319 12.6182 14.3766 12.6202 14.546C12.6182 14.6596 12.5882 14.764 12.5304 14.859C12.4746 14.952 12.4002 15.0264 12.3072 15.0821C12.2142 15.1379 12.112 15.1658 12.0004 15.1658Z" fill="#EDFAFA"/>
</svg>
