<svg width="25" height="24" viewBox="0 0 25 24" fill="none" xmlns="http://www.w3.org/2000/svg">
<path d="M0.474998 12C0.474998 5.57969 5.67969 0.375 12.1 0.375C18.5203 0.375 23.725 5.57969 23.725 12C23.725 18.4203 18.5203 23.625 12.1 23.625C5.67969 23.625 0.474998 18.4203 0.474998 12Z" fill="#FEF3C7"/>
<path d="M0.474998 12C0.474998 5.57969 5.67969 0.375 12.1 0.375C18.5203 0.375 23.725 5.57969 23.725 12C23.725 18.4203 18.5203 23.625 12.1 23.625C5.67969 23.625 0.474998 18.4203 0.474998 12Z" stroke="#B45309" stroke-width="0.75"/>
<path d="M13.251 4.65901C12.8556 3.59053 11.3444 3.59052 10.949 4.65901L9.34241 9.00074C9.30098 9.11272 9.21269 9.201 9.10072 9.24244L4.75899 10.849C3.6905 11.2444 3.6905 12.7556 4.75899 13.151L9.10072 14.7576C9.21269 14.799 9.30098 14.8873 9.34241 14.9993L10.949 19.341C11.3444 20.4095 12.8556 20.4095 13.251 19.341L14.8576 14.9993C14.899 14.8873 14.9873 14.799 15.0993 14.7576L19.441 13.151C20.5095 12.7556 20.5095 11.2444 19.441 10.849L15.0993 9.24244C14.9873 9.201 14.899 9.11272 14.8576 9.00074L13.251 4.65901Z" fill="#F59E0B" stroke="white" stroke-width="0.818182"/>
<path d="M12.609 8.75982L12.5284 13.2815L11.6699 13.2815L11.5894 8.75983L12.609 8.75982ZM12.1007 15.1658C11.9292 15.1658 11.7826 15.1059 11.6607 14.9861C11.5387 14.8642 11.4788 14.7175 11.4809 14.546C11.4788 14.3766 11.5387 14.2319 11.6607 14.1121C11.7826 13.9902 11.9292 13.9292 12.1007 13.9292C12.2681 13.9292 12.4127 13.9902 12.5346 14.1121C12.6565 14.2319 12.7185 14.3766 12.7206 14.546C12.7185 14.6596 12.6885 14.764 12.6307 14.859C12.5749 14.952 12.5005 15.0264 12.4076 15.0821C12.3146 15.1379 12.2123 15.1658 12.1007 15.1658Z" fill="white"/>
</svg>
