<svg width="25" height="24" viewBox="0 0 25 24" fill="none" xmlns="http://www.w3.org/2000/svg">
<path d="M0.875 12C0.875 5.57969 6.07969 0.375 12.5 0.375C18.9203 0.375 24.125 5.57969 24.125 12C24.125 18.4203 18.9203 23.625 12.5 23.625C6.07969 23.625 0.875 18.4203 0.875 12Z" fill="#E5E7EB"/>
<path d="M0.875 12C0.875 5.57969 6.07969 0.375 12.5 0.375C18.9203 0.375 24.125 5.57969 24.125 12C24.125 18.4203 18.9203 23.625 12.5 23.625C6.07969 23.625 0.875 18.4203 0.875 12Z" stroke="black" stroke-width="0.75"/>
<path d="M18.0044 7.98781C18.4407 7.03896 17.4611 6.05941 16.5122 6.4957L12.6567 8.26857C12.5572 8.3143 12.4428 8.3143 12.3433 8.26857L8.48775 6.4957C7.5389 6.0594 6.55934 7.03897 6.99564 7.98782L8.76851 11.8434C8.81423 11.9428 8.81423 12.0573 8.76851 12.1567L6.99564 16.0123C6.55934 16.9612 7.53891 17.9407 8.48775 17.5044L12.3433 15.7316C12.4428 15.6858 12.5572 15.6858 12.6567 15.7316L16.5123 17.5044C17.4611 17.9407 18.4407 16.9612 18.0044 16.0123L16.2315 12.1567C16.1858 12.0573 16.1858 11.9428 16.2315 11.8434L18.0044 7.98781Z" fill="black" stroke="white" stroke-width="0.75"/>
<path d="M13.5551 5.27123C13.1927 4.29178 11.8073 4.29179 11.4449 5.27123L9.97222 9.25115C9.93423 9.35379 9.8533 9.43472 9.75066 9.4727L5.77074 10.9454C4.79129 11.3078 4.7913 12.6931 5.77074 13.0556L9.75066 14.5283C9.8533 14.5663 9.93423 14.6472 9.97221 14.7498L11.4449 18.7297C11.8073 19.7092 13.1927 19.7092 13.5551 18.7297L15.0278 14.7498C15.0658 14.6472 15.1467 14.5663 15.2493 14.5283L19.2293 13.0556C20.2087 12.6931 20.2087 11.3078 19.2293 10.9454L15.2493 9.4727C15.1467 9.43472 15.0658 9.35379 15.0278 9.25115L13.5551 5.27123Z" fill="black" stroke="white" stroke-width="0.75"/>
<path d="M12.9655 8.69671L12.8916 12.8416L12.1047 12.8416L12.0308 8.69671L12.9655 8.69671ZM12.4996 14.5689C12.3424 14.5689 12.2079 14.5139 12.0961 14.4041C11.9844 14.2924 11.9295 14.1579 11.9314 14.0007C11.9295 13.8454 11.9844 13.7128 12.0961 13.603C12.2079 13.4912 12.3424 13.4353 12.4996 13.4353C12.653 13.4353 12.7855 13.4912 12.8973 13.603C13.009 13.7128 13.0658 13.8454 13.0677 14.0007C13.0658 14.1049 13.0384 14.2005 12.9854 14.2876C12.9342 14.3728 12.866 14.441 12.7808 14.4922C12.6956 14.5433 12.6018 14.5689 12.4996 14.5689Z" fill="white"/>
</svg>
