<svg width="25" height="24" viewBox="0 0 25 24" fill="none" xmlns="http://www.w3.org/2000/svg">
<path d="M1.075 12C1.075 5.57969 6.27969 0.375 12.7 0.375C19.1203 0.375 24.325 5.57969 24.325 12C24.325 18.4203 19.1203 23.625 12.7 23.625C6.27969 23.625 1.075 18.4203 1.075 12Z" fill="#FFF1F2"/>
<path d="M1.075 12C1.075 5.57969 6.27969 0.375 12.7 0.375C19.1203 0.375 24.325 5.57969 24.325 12C24.325 18.4203 19.1203 23.625 12.7 23.625C6.27969 23.625 1.075 18.4203 1.075 12Z" stroke="#BE123C" stroke-width="0.75"/>
<path d="M13.851 4.65901C13.4556 3.59053 11.9444 3.59052 11.549 4.65901L9.94241 9.00074C9.90098 9.11272 9.81269 9.201 9.70072 9.24244L5.35899 10.849C4.2905 11.2444 4.2905 12.7556 5.35898 13.151L9.70071 14.7576C9.81269 14.799 9.90098 14.8873 9.94241 14.9993L11.549 19.341C11.9444 20.4095 13.4556 20.4095 13.851 19.341L15.4576 14.9993C15.499 14.8873 15.5873 14.799 15.6993 14.7576L20.041 13.151C21.1095 12.7556 21.1095 11.2444 20.041 10.849L15.6993 9.24244C15.5873 9.201 15.499 9.11272 15.4576 9.00074L13.851 4.65901Z" fill="#FDA4AF" stroke="#E11D48" stroke-width="0.818182"/>
<path d="M13.2087 8.76007L13.1281 13.2818L12.2696 13.2818L12.1891 8.76007L13.2087 8.76007ZM12.7004 15.1661C12.5289 15.1661 12.3823 15.1061 12.2604 14.9863C12.1385 14.8644 12.0785 14.7177 12.0806 14.5462C12.0785 14.3768 12.1385 14.2322 12.2604 14.1123C12.3823 13.9904 12.5289 13.9295 12.7004 13.9295C12.8678 13.9295 13.0124 13.9904 13.1343 14.1123C13.2562 14.2322 13.3182 14.3768 13.3203 14.5462C13.3182 14.6599 13.2882 14.7642 13.2304 14.8592C13.1746 14.9522 13.1002 15.0266 13.0073 15.0824C12.9143 15.1382 12.812 15.1661 12.7004 15.1661Z" fill="#E11D48"/>
</svg>
