<svg width="25" height="24" viewBox="0 0 25 24" fill="none" xmlns="http://www.w3.org/2000/svg">
<path d="M1.175 12C1.175 5.57969 6.37969 0.375 12.8 0.375C19.2203 0.375 24.425 5.57969 24.425 12C24.425 18.4203 19.2203 23.625 12.8 23.625C6.37969 23.625 1.175 18.4203 1.175 12Z" fill="#FFE4E6"/>
<path d="M1.175 12C1.175 5.57969 6.37969 0.375 12.8 0.375C19.2203 0.375 24.425 5.57969 24.425 12C24.425 18.4203 19.2203 23.625 12.8 23.625C6.37969 23.625 1.175 18.4203 1.175 12Z" stroke="#BE123C" stroke-width="0.75"/>
<path d="M13.951 4.65901C13.5556 3.59053 12.0444 3.59052 11.649 4.65901L10.0424 9.00074C10.001 9.11272 9.91269 9.201 9.80072 9.24244L5.45899 10.849C4.3905 11.2444 4.3905 12.7556 5.45899 13.151L9.80072 14.7576C9.91269 14.799 10.001 14.8873 10.0424 14.9993L11.649 19.341C12.0444 20.4095 13.5556 20.4095 13.951 19.341L15.5576 14.9993C15.599 14.8873 15.6873 14.799 15.7993 14.7576L20.141 13.151C21.2095 12.7556 21.2095 11.2444 20.141 10.849L15.7993 9.24244C15.6873 9.201 15.599 9.11272 15.5576 9.00074L13.951 4.65901Z" fill="#E11D48" stroke="white" stroke-width="0.818182"/>
<path d="M13.309 8.75982L13.2284 13.2815L12.3699 13.2815L12.2894 8.75983L13.309 8.75982ZM12.8007 15.1658C12.6292 15.1658 12.4826 15.1059 12.3606 14.9861C12.2387 14.8642 12.1788 14.7175 12.1809 14.546C12.1788 14.3766 12.2387 14.2319 12.3606 14.1121C12.4826 13.9902 12.6292 13.9292 12.8007 13.9292C12.9681 13.9292 13.1127 13.9902 13.2346 14.1121C13.3565 14.2319 13.4185 14.3766 13.4206 14.546C13.4185 14.6596 13.3885 14.764 13.3307 14.859C13.2749 14.952 13.2005 15.0264 13.1076 15.0821C13.0146 15.1379 12.9123 15.1658 12.8007 15.1658Z" fill="white"/>
</svg>
