<svg width="24" height="24" viewBox="0 0 24 24" fill="none" xmlns="http://www.w3.org/2000/svg">
<g clip-path="url(#clip0_2910_28871)">
<path d="M20.9396 7.91706H16.0824V3.05967C16.0824 1.36955 14.7129 0 13.0227 0H11.2554H10.9767C9.28699 0 7.91673 1.36955 7.91673 3.05967V7.91706H3.05914C1.37039 7.91706 5.72205e-05 9.28707 5.72205e-05 10.9765V13.0229C5.72205e-05 14.7126 1.37039 16.0822 3.05914 16.0822H7.91679V20.9397C7.91679 22.6298 9.28706 24 10.9768 24H11.2555H13.0228C14.7129 24 16.0825 22.6298 16.0825 20.9397V16.0822H20.9397C22.6301 16.0822 23.9998 14.7126 23.9998 13.0229V10.9765C23.9997 9.28707 22.6301 7.91706 20.9396 7.91706ZM15.9808 11.5558C15.7963 12.6794 14.4544 13.9423 13.3735 14.9592C13.3735 14.9592 12.8341 15.5008 12.6722 15.6396C12.5507 15.7442 12.2861 15.9544 12.0002 15.9544C11.7136 15.9544 11.4498 15.7442 11.3276 15.6396C11.1657 15.5007 10.6263 14.9592 10.6263 14.9592C9.54529 13.9423 8.2035 12.68 8.01896 11.5558C7.88962 10.7614 8.01584 10.1063 8.39485 9.60892C8.77729 9.10674 9.35919 8.82024 10.1741 8.73299C10.2532 8.72508 10.324 8.72138 10.3956 8.72138C10.9713 8.72138 11.5534 8.93589 11.9996 9.29874C12.4466 8.93589 13.0281 8.72138 13.6048 8.72138C13.6758 8.72138 13.7474 8.72508 13.8256 8.73299C14.6405 8.82024 15.222 9.10674 15.6048 9.60892C15.984 10.1063 16.1101 10.7614 15.9808 11.5558Z" fill="#233876"/>
</g>
<defs>
<clipPath id="clip0_2910_28871">
<rect width="24" height="24" fill="white"/>
</clipPath>
</defs>
</svg>
