<svg width="24" height="24" viewBox="0 0 24 24" fill="none" xmlns="http://www.w3.org/2000/svg">
<g clip-path="url(#clip0_2910_28869)">
<path d="M11.2046 8.12282L11.2045 8.12283C11.1948 8.12428 11.1887 8.1248 11.1784 8.12568C11.1708 8.12633 11.161 8.12717 11.1457 8.12872L10.9371 8.14997V8.35969V12.3688V12.5633L11.1286 12.5974C11.6893 12.6971 12.3023 12.6122 12.7188 12.5546C12.7314 12.5528 12.7438 12.5511 12.756 12.5494L12.9565 12.5218V12.3195V8.38064V8.17634L12.7538 8.15036C12.7195 8.14596 12.689 8.13966 12.6617 8.13119L12.6615 8.13114C12.3727 8.04188 12.1856 8.00687 11.9685 8.01645C11.8341 8.02238 11.6835 8.04675 11.4913 8.07786C11.4049 8.09184 11.3101 8.10718 11.2046 8.12282Z" stroke="#233876" stroke-width="0.464329"/>
<path d="M11.1784 4.71415L11.2054 4.71307H12.64C12.6666 4.71431 12.6936 4.71508 12.7206 4.7155L12.9564 4.71919V4.48337V4.02687C13.5475 3.68251 13.9455 3.04167 13.9455 2.30742C13.9455 1.20899 13.0551 0.318617 11.9567 0.318617C10.8583 0.318617 9.96791 1.20899 9.96791 2.30736C9.96791 3.03338 10.3571 3.66768 10.937 4.01471V4.48216V4.72369L11.1784 4.71415Z" stroke="#233876" stroke-width="0.464329"/>
<path d="M10.9362 13.8604L11.0837 13.8026C11.1216 13.7878 11.1615 13.7722 11.2035 13.7566L11.2209 13.7501L11.2391 13.7465C11.5032 13.6938 11.7269 13.6502 11.9412 13.6507C12.0593 13.6509 12.1724 13.6644 12.2881 13.6934L12.2883 13.6768L12.6022 13.8011C12.679 13.8315 12.7501 13.8621 12.8178 13.8922L12.9555 13.9536V14.1043V17.1871V17.3218L12.8387 17.3886C12.7806 17.4219 12.7212 17.4542 12.662 17.4834L10.9362 13.8604ZM10.9362 13.8604V14.0188V17.2649V17.3967L11.0493 17.4643C11.7672 17.8929 12.3983 17.6136 12.6619 17.4834L10.9362 13.8604Z" stroke="#233876" stroke-width="0.464329"/>
<path d="M11.0379 19.1435L10.9362 19.2126V19.3356V22.698L10.9356 22.7075C10.9351 22.7147 10.9345 22.7261 10.9345 22.7391C10.9345 23.2974 11.3868 23.7505 11.9451 23.7505C12.5035 23.7505 12.9555 23.2975 12.9556 22.7392V22.7392V19.4721V19.3587L12.8661 19.289C12.7748 19.2179 12.6782 19.1487 12.576 19.082L12.5687 19.0773L12.561 19.0731C12.3177 18.9393 12.0618 18.8686 11.7986 18.8786C11.5351 18.8887 11.2799 18.9792 11.0379 19.1435Z" stroke="#233876" stroke-width="0.464329"/>
<path d="M12.6328 14.0826L12.6329 14.0772C12.7058 14.106 12.7739 14.1352 12.8395 14.1645C14.1277 14.7387 14.0427 15.3692 14.0427 15.6844C14.0427 16.0157 13.8366 16.3645 13.4455 16.6977C13.2498 16.8645 13.0405 17.0118 12.8395 17.1269C12.7841 17.1587 12.7291 17.1884 12.6754 17.215C12.427 17.3376 11.8949 17.5693 11.2845 17.2048C10.9893 17.0195 10.7989 16.9438 10.481 16.6977C10.0746 16.3832 9.88566 15.9729 9.88566 15.6253C9.88566 15.2863 9.78859 14.6656 11.2844 14.079C11.3224 14.0642 11.3606 14.0492 11.4006 14.0344C11.9392 13.927 12.2011 13.8821 12.6328 14.0826ZM11.2844 12.309C11.2496 12.3028 11.2149 12.296 11.1806 12.2882C10.5837 12.1524 9.99934 12.0324 8.75007 11.6862C7.5537 11.3692 6.23697 10.8566 6.04114 10.5952C6.05637 10.5801 6.07887 10.5641 6.11661 10.549C6.22174 10.4888 6.40998 10.4371 6.62061 10.391C7.0645 10.3007 7.65907 10.2556 8.26105 10.2255C9.45754 10.1888 9.54853 10.249 9.69073 10.2405C9.83288 10.232 10.5601 10.223 10.583 9.67015C10.6058 9.11728 10.2121 9.07696 9.90371 9.01479C9.41475 8.94805 9.62291 8.96876 8.96076 8.9773C7.8623 9.06005 4.49868 8.78816 4.07736 10.5565C4.07736 10.6082 4.0699 10.6393 4.06232 10.6854C4.20518 12.226 7.40325 12.8976 9.71318 13.3547C8.93061 13.8908 8.50923 14.5906 8.34385 15.5011C8.26105 16.4643 9.02852 17.3823 10.812 18.4037C9.45754 19.3594 8.56947 20.2623 8.64487 21.3478C8.7544 22.1554 9.42372 23.2124 10.6968 23.9564C10.8234 24.0303 11.006 24.0221 10.8744 23.8018C10.5554 23.2674 10.002 22.2596 9.95402 21.6243C9.88806 21.1637 10.1121 20.5089 11.0478 19.731C11.1263 19.6571 11.2052 19.5945 11.2844 19.5407C11.7069 19.2538 12.1393 19.2475 12.5652 19.4817C12.6618 19.5448 12.7532 19.6102 12.8394 19.6774C13.6859 20.3368 14.0338 21.1685 13.9723 21.6243C13.9247 22.2559 13.385 23.2599 13.0577 23.7921C12.9481 23.9701 13.061 24.0604 13.2348 23.9538C14.4949 23.1805 15.1718 22.1569 15.2815 21.3478C15.3569 20.2624 14.4688 19.3594 13.1201 18.4038C14.8978 17.3823 15.6654 16.4643 15.5825 15.5012C15.4171 14.5983 14.9957 13.8984 14.2132 13.3548C16.5232 12.8976 19.7212 12.226 19.864 10.6854C19.8565 10.6393 19.849 10.6083 19.849 10.5565C19.4276 8.78822 16.064 9.06011 14.9657 8.97736C14.3034 8.96882 14.3858 8.96478 14.0758 8.96605C13.7659 8.96725 13.3652 9.13034 13.3551 9.62447C13.3451 10.1185 13.9153 10.2459 14.2356 10.2405C14.4228 10.2374 14.4688 10.1888 15.6654 10.233C16.2673 10.2556 16.8619 10.3007 17.2981 10.391C17.5164 10.4371 17.697 10.4888 17.8098 10.549C17.8399 10.5641 17.87 10.5801 17.8852 10.5952C17.6894 10.8566 16.3727 11.3692 15.1763 11.6862C14.0788 11.9904 13.1679 12.1953 12.9253 12.2478C12.8976 12.2516 12.8689 12.2555 12.8394 12.2596C12.4148 12.3182 11.8194 12.4041 11.2844 12.309Z" fill="#233876"/>
<path d="M22.2717 6.24652C19.3777 5.7102 17.0904 3.08252 16.448 2.55889C15.7182 1.96342 15.2139 2.09984 14.4841 3.40821C14.0283 4.22106 13.3163 4.3579 12.8395 4.35026C12.8126 4.34984 12.7862 4.349 12.7609 4.34779H11.3161C11.3058 4.34834 11.2951 4.3487 11.2845 4.34906C10.8086 4.36627 10.064 4.24814 9.59295 3.40815C8.86316 2.09978 8.35145 1.96336 7.62911 2.55883C6.97647 3.0907 4.62417 5.76508 1.66826 6.2671C0.847054 6.40654 0.700757 6.79488 1.2298 7.17064C1.64419 7.46492 2.2481 7.68463 3.08417 7.53262C3.08417 7.53262 4.10012 8.58612 5.7479 7.84868C5.7479 7.84868 6.6057 8.62277 7.97521 7.91542C7.97521 7.91542 8.98352 8.68951 10.0671 8.02176C10.0671 8.02176 10.5963 8.43032 11.2845 8.36003C11.3076 8.35768 11.3305 8.35624 11.3539 8.35281C12.0758 8.24587 12.1542 8.18208 12.7082 8.35329C12.7509 8.36653 12.7949 8.37525 12.8395 8.38097C13.3732 8.44945 14.01 8.02176 14.01 8.02176C15.0861 8.68957 16.1019 7.91542 16.1019 7.91542C17.4713 8.62277 18.3215 7.84868 18.3215 7.84868C19.977 8.58612 20.9929 7.53262 20.9929 7.53262C21.6848 7.65845 22.2178 7.52961 22.6158 7.31465C23.3128 6.93822 23.2439 6.4267 22.2717 6.24652Z" fill="#233876"/>
</g>
<defs>
<clipPath id="clip0_2910_28869">
<rect width="23.2164" height="24" fill="white" transform="translate(0.391785)"/>
</clipPath>
</defs>
</svg>
