<svg width="29" height="28" viewBox="0 0 29 28" fill="none" xmlns="http://www.w3.org/2000/svg">
<path d="M2.73187 4.0918C1.89309 4.0918 1.21289 4.77409 1.21289 5.61078V19.582C1.21289 20.4187 1.97655 21.1845 2.81533 21.1845H5.00199C5.25655 22.6993 6.57105 23.8552 8.1568 23.8552C9.74254 23.8552 11.057 22.6993 11.3116 21.1845H16.2525C17.0891 21.1845 17.7714 20.5022 17.7714 19.6655V5.64416C17.7714 4.78869 17.0975 4.0918 16.2691 4.0918H2.73187ZM18.8397 7.83082V21.1845C19.0964 22.6972 20.4589 23.8552 22.0446 23.8552C23.6304 23.8552 24.9449 22.6972 25.1994 21.1845H26.3178C27.1566 21.1845 27.9202 20.4208 27.9202 19.582V14.4409C27.9202 13.3663 27.1461 12.2688 27.0522 12.1374L24.8322 9.16619C24.3231 8.55275 23.5239 7.83082 22.5788 7.83082H18.8397ZM21.5105 10.5016H24.4983L26.2009 12.7717C26.3825 13.0283 26.8519 13.8149 26.8519 14.4409V14.7747H21.5105C20.9763 14.7747 20.4422 14.2406 20.4422 13.7064V11.5698C20.4422 10.9794 20.9763 10.5016 21.5105 10.5016ZM8.1568 18.5138C9.33567 18.5138 10.2934 19.4715 10.2934 20.6503C10.2934 21.8292 9.33567 22.7869 8.1568 22.7869C6.97792 22.7869 6.02021 21.8292 6.02021 20.6503C6.02021 19.4715 6.97792 18.5138 8.1568 18.5138ZM22.0446 18.5138C23.2235 18.5138 24.1812 19.4715 24.1812 20.6503C24.1812 21.8292 23.2235 22.7869 22.0446 22.7869C20.8657 22.7869 19.908 21.8292 19.908 20.6503C19.908 19.4715 20.8657 18.5138 22.0446 18.5138Z" fill="#374151"/>
<g clip-path="url(#clip0_7161_48632)">
<path d="M6.01215 7.22207L9.26289 10.4729L12.5136 7.22207C12.7847 6.95096 13.2143 6.92571 13.5353 7.17644L13.5908 7.22701C13.8869 7.52311 13.8869 8.00318 13.5908 8.29928L10.34 11.55L13.5908 14.8007C13.8619 15.0718 13.8872 15.5015 13.6364 15.8224L13.5859 15.8779C13.2898 16.174 12.8097 16.174 12.5136 15.8779L9.26289 12.6271L6.01215 15.8779C5.74104 16.149 5.31144 16.1743 4.99051 15.9236L4.93496 15.873C4.63887 15.5769 4.63886 15.0968 4.93496 14.8007L8.18577 11.55L4.93496 8.29927C4.66385 8.02816 4.6386 7.59854 4.88933 7.27761L4.93989 7.22207C5.23599 6.92598 5.71606 6.92598 6.01215 7.22207ZM5.4821 15.7208C5.48008 15.7208 5.47806 15.7208 5.47604 15.7208L5.4821 15.7208ZM5.53243 15.7166L5.51582 15.7188C5.52133 15.7182 5.52689 15.7175 5.53243 15.7166ZM5.42015 15.7167L5.4269 15.7177C5.42461 15.7174 5.42243 15.7171 5.42015 15.7167ZM5.3725 15.7065L5.37842 15.7081C5.37638 15.7076 5.37453 15.7071 5.3725 15.7065ZM5.58057 15.7062L5.56014 15.7114C5.56696 15.7099 5.57379 15.7081 5.58057 15.7062ZM5.62348 15.6911L5.60772 15.6973C5.61297 15.6954 5.61823 15.6933 5.62348 15.6911ZM5.32853 15.6911C5.32943 15.6914 5.33039 15.6918 5.32853 15.6911V15.6911ZM5.28405 15.6687L5.24373 15.6413C5.26057 15.6544 5.27824 15.6659 5.29657 15.6758L5.28405 15.6687ZM5.66784 15.6688L5.65564 15.6757C5.65965 15.6735 5.66376 15.6712 5.66784 15.6688ZM13.3887 15.5163L13.3816 15.5288L13.3542 15.5692C13.3673 15.5523 13.3788 15.5346 13.3887 15.5163ZM13.4097 15.4701L13.404 15.4844C13.406 15.4796 13.4079 15.4748 13.4097 15.4701ZM13.4242 15.4217L13.4194 15.4404C13.4211 15.4343 13.4227 15.428 13.4242 15.4217ZM13.4316 15.3769L13.4296 15.3927C13.4304 15.3875 13.4311 15.3822 13.4316 15.3769ZM13.0497 7.7582L9.26289 11.5452L5.47604 7.7582L5.47108 7.76314L9.25805 11.55L5.47108 15.3369L5.47604 15.3418L9.26289 11.5548L13.0497 15.3418L13.0547 15.3369L9.26772 11.55L13.0547 7.76314L13.0497 7.7582ZM13.4337 15.3308L13.4337 15.3418C13.4337 15.3381 13.4337 15.3345 13.4337 15.3308ZM13.4295 15.2805L13.4316 15.2971C13.4311 15.2916 13.4304 15.286 13.4295 15.2805ZM13.4191 15.2323L13.4243 15.2527C13.4228 15.2459 13.421 15.2391 13.4191 15.2323ZM13.404 15.1894L13.4102 15.2052C13.4083 15.1999 13.4062 15.1946 13.404 15.1894ZM13.3817 15.145L13.3886 15.1572C13.3864 15.1532 13.3841 15.1491 13.3817 15.145ZM5.13721 7.94275L5.14292 7.953C5.14093 7.94956 5.13908 7.94624 5.13721 7.94275ZM5.11557 7.89482L5.12066 7.90788C5.11886 7.90353 5.11719 7.89922 5.11557 7.89482ZM5.10145 7.84725L5.10478 7.86075C5.10359 7.85626 5.10248 7.85178 5.10145 7.84725ZM5.09398 7.80141L5.09523 7.81228C5.09475 7.80864 5.09434 7.80506 5.09398 7.80141ZM5.09222 7.75214L5.09206 7.76314C5.09206 7.75945 5.09211 7.75583 5.09222 7.75214ZM5.09617 7.70725L5.09523 7.71401C5.09552 7.71171 5.09583 7.70954 5.09617 7.70725ZM5.1064 7.65962L5.10478 7.66554C5.10533 7.6635 5.10583 7.66165 5.1064 7.65962ZM5.12182 7.61563C5.12103 7.6175 5.12144 7.61654 5.12182 7.61563V7.61563ZM5.14417 7.57116L5.17155 7.53083C5.15846 7.54767 5.14697 7.56536 5.13711 7.58369L5.14417 7.57116ZM5.65548 7.42423L5.66803 7.43128L5.70834 7.45865C5.6915 7.44556 5.67381 7.43408 5.65548 7.42423ZM12.8701 7.42431L12.8599 7.43004C12.8633 7.42804 12.8666 7.42619 12.8701 7.42431ZM5.29643 7.42431L5.28617 7.43004C5.28962 7.42804 5.29294 7.42619 5.29643 7.42431ZM13.2292 7.42423L13.2417 7.43128L13.282 7.45865C13.2652 7.44556 13.2475 7.43408 13.2292 7.42423ZM5.34285 7.40324L5.3313 7.40778C5.33512 7.4062 5.33899 7.40469 5.34285 7.40324ZM5.60765 7.40265L5.62355 7.40894C5.61825 7.4067 5.61297 7.40461 5.60765 7.40265ZM12.9181 7.40267L12.905 7.40778C12.9094 7.40599 12.9137 7.4043 12.9181 7.40267ZM13.1829 7.40325L13.1973 7.40894C13.1925 7.40692 13.1877 7.40504 13.1829 7.40325ZM5.39131 7.3887L5.37842 7.39188C5.38266 7.39076 5.38704 7.38968 5.39131 7.3887ZM5.56011 7.38856L5.58064 7.39381C5.57381 7.39186 5.56697 7.39011 5.56011 7.38856ZM12.9656 7.38857L12.9521 7.39188C12.9566 7.39069 12.9611 7.38959 12.9656 7.38857ZM13.1346 7.38873L13.1533 7.39351C13.1472 7.39179 13.1409 7.39018 13.1346 7.38873ZM5.43762 7.3811L5.4269 7.38235C5.43044 7.38189 5.43407 7.38146 5.43762 7.3811ZM5.51424 7.38109L5.53239 7.38336C5.52637 7.38246 5.52032 7.3817 5.51424 7.38109ZM13.0115 7.38109L13.0006 7.38235C13.0042 7.38187 13.0078 7.38146 13.0115 7.38109ZM13.0883 7.38111L13.1056 7.38329C13.0999 7.38244 13.0941 7.38171 13.0883 7.38111ZM13.0387 7.37932L13.0608 7.37933C13.0535 7.37911 13.0461 7.37911 13.0387 7.37932ZM5.46497 7.37933L5.48703 7.37932C5.47968 7.37911 5.47232 7.37911 5.46497 7.37933Z" fill="white"/>
</g>
<defs>
<clipPath id="clip0_7161_48632">
<rect width="9.1" height="9.1" fill="white" transform="translate(4.71289 7)"/>
</clipPath>
</defs>
</svg>
