<svg width="40" height="30" viewBox="0 0 40 30" fill="none" xmlns="http://www.w3.org/2000/svg">
<g id="Group">
<g id="Group_2">
<g id="Group_3">
<path id="Vector" d="M6.35945 10.8749V6.46951C4.0977 6.30545 1.99862 5.68794 0 4.59412V27.3125C1.99152 28.5402 4.08571 29.2315 6.35945 29.414V18.8924C5.41853 17.4608 4.60829 15.8898 4.60829 14.7234C4.60829 13.1902 5.28737 11.8133 6.35945 10.8749Z" fill="#374151"/>
<path id="Vector_2" d="M30.1843 17.1657C29.9742 17.1657 29.7739 17.076 29.634 16.9191C29.1668 16.3952 25.0691 11.7244 25.0691 9.10122C25.0691 6.28076 27.3638 3.98602 30.1843 3.98602C30.8865 3.98602 31.5561 4.12841 32.1659 4.38565V0.537354C28.397 0.591271 24.5119 1.94196 20.7373 3.30537V26.1616C24.4767 24.8176 28.3211 23.5367 32.1659 23.4867V15.1908C31.4718 16.0837 30.8934 16.7411 30.7346 16.9192C30.5947 17.0761 30.3944 17.1657 30.1843 17.1657ZM23.828 21.2912C23.6085 21.3577 23.389 21.4259 23.1697 21.4956C23.0954 21.5192 23.0203 21.5303 22.9462 21.5303C22.6335 21.5303 22.3434 21.3299 22.2437 21.0161C22.1204 20.628 22.3351 20.2134 22.7232 20.0902C22.9489 20.0185 23.1746 19.9483 23.4003 19.8798C23.7901 19.7618 24.2017 19.9819 24.3199 20.3716C24.438 20.7614 24.2178 21.1731 23.828 21.2912ZM27.5046 20.3798C27.3852 20.4013 27.266 20.4239 27.1465 20.4474C27.0986 20.4568 27.0509 20.4613 27.0038 20.4613C26.6584 20.4613 26.35 20.2174 26.281 19.8657C26.2026 19.4661 26.463 19.0786 26.8626 19.0002C26.989 18.9753 27.1155 18.9515 27.2418 18.9286C27.6435 18.8563 28.0262 19.1222 28.0987 19.5228C28.1713 19.9236 27.9052 20.3072 27.5046 20.3798ZM31.3246 18.7856C31.3971 19.1863 31.131 19.5699 30.7304 19.6424C30.611 19.664 30.4918 19.6866 30.3723 19.7101C30.3244 19.7195 30.2767 19.724 30.2296 19.724C29.8842 19.724 29.5758 19.4801 29.5068 19.1284C29.4284 18.7288 29.6888 18.3413 30.0884 18.2629C30.2148 18.238 30.3413 18.2141 30.4676 18.1913C30.8692 18.119 31.2521 18.385 31.3246 18.7856Z" fill="#374151"/>
<path id="Vector_3" d="M9.72348 15.5989C10.2062 15.5989 10.5991 15.2061 10.5991 14.7234C10.5991 14.2406 10.2062 13.8478 9.72348 13.8478C9.24071 13.8478 8.8479 14.2406 8.8479 14.7234C8.8479 15.2061 9.24071 15.5989 9.72348 15.5989Z" fill="#374151"/>
<path id="Vector_4" d="M29.3088 9.10128C29.3088 9.58405 29.7016 9.97686 30.1844 9.97686C30.6672 9.97686 31.06 9.58405 31.06 9.10128C31.06 8.61852 30.6672 8.22571 30.1844 8.22571C29.7016 8.22571 29.3088 8.61852 29.3088 9.10128Z" fill="#374151"/>
<path id="Vector_5" d="M33.6407 0.585815V5.3342C34.6596 6.26987 35.2996 7.61208 35.2996 9.10121C35.2996 10.2292 34.5417 11.736 33.6407 13.1288V23.5252C33.6407 23.5268 33.6404 23.5285 33.6404 23.5302C35.9022 23.6942 38.0014 24.3118 40.0001 25.4056V2.6872C38.0089 1.45973 35.9148 0.768488 33.6407 0.585815Z" fill="#374151"/>
<path id="Vector_6" d="M7.83398 9.97144C8.41896 9.73798 9.0561 9.60821 9.72339 9.60821C12.5438 9.60821 14.8386 11.903 14.8386 14.7234C14.8386 17.3466 10.7409 22.0174 10.2737 22.5413C10.1338 22.6982 9.93362 22.7879 9.72339 22.7879C9.51325 22.7879 9.31297 22.6982 9.17306 22.5413C9.02136 22.3712 8.4867 21.7635 7.83398 20.931V29.4624C11.6027 29.408 15.488 28.0573 19.2626 26.6941V3.83789C15.5231 5.18195 11.6788 6.46305 7.83398 6.51319V9.97144ZM10.3723 25.5907C10.2459 25.6155 10.1194 25.6394 9.99288 25.6622C9.94855 25.6702 9.90431 25.6741 9.8608 25.6741C9.51094 25.6741 9.20053 25.4243 9.1361 25.0679C9.06366 24.6672 9.32974 24.2836 9.73039 24.2112C9.84974 24.1896 9.96901 24.167 10.0883 24.1436C10.4873 24.0655 10.8753 24.3255 10.9539 24.7252C11.0322 25.1247 10.772 25.5123 10.3723 25.5907ZM13.9109 24.6879C13.684 24.7571 13.4571 24.8244 13.2302 24.8899C13.162 24.9095 13.0932 24.9189 13.0256 24.9189C12.7053 24.9189 12.4106 24.7087 12.3174 24.3855C12.2046 23.9942 12.4305 23.5856 12.8217 23.4729C13.0415 23.4096 13.2612 23.3443 13.4807 23.2773C13.8703 23.1587 14.2822 23.3782 14.401 23.7677C14.5198 24.1572 14.3003 24.5692 13.9109 24.6879ZM16.1071 22.4106C16.3255 22.3342 16.5439 22.2571 16.7623 22.1795C17.1461 22.043 17.5676 22.2433 17.7041 22.627C17.8406 23.0107 17.6403 23.4324 17.2567 23.5688C17.0358 23.6474 16.8148 23.7254 16.5939 23.8027C16.5133 23.8308 16.4312 23.8442 16.3505 23.8442C16.0458 23.8442 15.7608 23.6539 15.6544 23.3501C15.5201 22.9655 15.7226 22.545 16.1071 22.4106Z" fill="#374151"/>
<path id="Vector_7" d="M9.72338 20.9219C11.3156 19.0202 13.3641 16.1112 13.3641 14.7233C13.3641 12.7159 11.7309 11.0828 9.72356 11.0828C7.71619 11.0828 6.08301 12.7159 6.08301 14.7233C6.08301 16.1129 8.13121 19.0211 9.72338 20.9219ZM9.72356 12.3731C11.0194 12.3731 12.0738 13.4275 12.0738 14.7233C12.0738 16.0193 11.0194 17.0735 9.72356 17.0735C8.42762 17.0735 7.37333 16.0193 7.37333 14.7233C7.37333 13.4275 8.42762 12.3731 9.72356 12.3731Z" fill="#9CA3AF"/>
<path id="Vector_8" d="M26.5437 9.10125C26.5437 10.4908 28.5919 13.399 30.1841 15.2999C31.7763 13.3981 33.8248 10.4891 33.8248 9.10125C33.8248 7.09387 32.1916 5.46069 30.1843 5.46069C28.1769 5.46069 26.5437 7.09387 26.5437 9.10125ZM32.5345 9.10125C32.5345 10.3972 31.4801 11.4515 30.1843 11.4515C28.8883 11.4515 27.834 10.3972 27.834 9.10125C27.834 7.80539 28.8883 6.75102 30.1843 6.75102C31.4801 6.75102 32.5345 7.80539 32.5345 9.10125Z" fill="#9CA3AF"/>
</g>
</g>
</g>
</svg>
