<svg width="40" height="40" viewBox="0 0 40 40" fill="none" xmlns="http://www.w3.org/2000/svg">
<g clip-path="url(#clip0_3738_44044)">
<path d="M10.0253 29.0367V31.9142H3.72815V26.9595H7.94799C9.09518 26.9594 10.0253 27.8895 10.0253 29.0367Z" fill="#374151"/>
<path d="M3.72813 39.7724H0V18.4508H1.33266C2.65563 18.4508 3.72805 19.5233 3.72805 20.8462V39.7724L3.72813 39.7724Z" fill="#374151"/>
<path d="M40 39.7724H36.272V30.4941C36.272 29.8775 36.7718 29.3777 37.3884 29.3777H40V39.7724Z" fill="#374151"/>
<path d="M36.2718 30.6555H3.72815V36.6498H36.2718V30.6555Z" fill="#9CA3AF"/>
<path d="M32.3746 2.64148H16.5085V25.2929H32.3746V2.64148Z" fill="#3C66B1"/>
<path d="M32.3746 2.64148H16.5085V25.2929H32.3746V2.64148Z" fill="#3C66B1"/>
<path d="M32.3746 1.43445H16.5085V25.2932H32.3746V1.43445Z" fill="#374151"/>
<path d="M24.9833 16.6706C28.1586 16.6706 30.7327 14.0965 30.7327 10.9211C30.7327 10.6551 30.334 10.6111 30.1964 10.8388C29.542 11.9219 28.3533 12.646 26.9956 12.646C24.9316 12.646 23.2584 10.9728 23.2584 8.9088C23.2584 7.55103 23.9825 6.36238 25.0656 5.70792C25.2933 5.57034 25.2493 5.17163 24.9833 5.17163C21.8079 5.17163 19.2338 7.74576 19.2338 10.9211C19.2338 14.0965 21.8079 16.6706 24.9833 16.6706Z" fill="white"/>
<path d="M34.5355 0.227539H14.3478V2.64152H34.5355V0.227539Z" fill="#374151"/>
</g>
<defs>
<clipPath id="clip0_3738_44044">
<rect width="40" height="40" fill="white"/>
</clipPath>
</defs>
</svg>
