<svg width="29" height="28" viewBox="0 0 29 28" fill="none" xmlns="http://www.w3.org/2000/svg">
<path d="M2.39789 4.0918C1.55911 4.0918 0.878906 4.77409 0.878906 5.61078V19.582C0.878906 20.4187 1.64257 21.1845 2.48135 21.1845H4.66801C4.92256 22.6993 6.23706 23.8552 7.82281 23.8552C9.40856 23.8552 10.7231 22.6993 10.9776 21.1845H15.9185C16.7552 21.1845 17.4374 20.5022 17.4374 19.6655V5.64416C17.4374 4.78869 16.7635 4.0918 15.9352 4.0918H2.39789ZM18.5057 7.83082V21.1845C18.7624 22.6972 20.1249 23.8552 21.7106 23.8552C23.2964 23.8552 24.6109 22.6972 24.8654 21.1845H25.9838C26.8226 21.1845 27.5862 20.4208 27.5862 19.582V14.4409C27.5862 13.3663 26.8121 12.2688 26.7182 12.1374L24.4982 9.16619C23.9891 8.55275 23.19 7.83082 22.2448 7.83082H18.5057ZM21.1765 10.5016H24.1644L25.8669 12.7717C26.0485 13.0283 26.5179 13.8149 26.5179 14.4409V14.7747H21.1765C20.6423 14.7747 20.1082 14.2406 20.1082 13.7064V11.5698C20.1082 10.9794 20.6423 10.5016 21.1765 10.5016ZM7.82281 18.5138C9.00169 18.5138 9.9594 19.4715 9.9594 20.6503C9.9594 21.8292 9.00169 22.7869 7.82281 22.7869C6.64393 22.7869 5.68622 21.8292 5.68622 20.6503C5.68622 19.4715 6.64393 18.5138 7.82281 18.5138ZM21.7106 18.5138C22.8895 18.5138 23.8472 19.4715 23.8472 20.6503C23.8472 21.8292 22.8895 22.7869 21.7106 22.7869C20.5317 22.7869 19.574 21.8292 19.574 20.6503C19.574 19.4715 20.5317 18.5138 21.7106 18.5138Z" fill="#374151"/>
<g clip-path="url(#clip0_7161_48601)">
<path d="M8.37885 12.1265C8.39494 12.2324 8.4478 12.3343 8.53764 12.4321C8.62677 12.5296 8.73273 12.5786 8.85496 12.5786C9.13989 12.5786 9.29844 12.4277 9.33085 12.1265L10.2831 8.49392C10.2994 8.36418 10.3076 8.18091 10.3076 7.94475C10.3076 7.57842 10.1817 7.24499 9.92923 6.94352C9.67698 6.64256 9.31883 6.49219 8.85493 6.49219C8.37428 6.49219 8.0125 6.64665 7.76846 6.95557C7.52439 7.25702 7.40234 7.58663 7.40234 7.94478C7.40234 8.16461 7.41001 8.34764 7.42634 8.49395L8.37885 12.1265Z" fill="white"/>
<path d="M9.906 14.1595C9.62925 13.8828 9.27904 13.7441 8.85598 13.7441C8.44112 13.7441 8.0909 13.8871 7.806 14.1717C7.5211 14.4566 7.37891 14.8023 7.37891 15.2093C7.37891 15.5999 7.5211 15.9458 7.806 16.247C8.0909 16.5401 8.44115 16.6864 8.85598 16.6864C9.27086 16.6864 9.62059 16.5442 9.906 16.259C10.1904 15.9746 10.3331 15.6244 10.3331 15.2093C10.3331 14.7941 10.1904 14.4444 9.906 14.1595Z" fill="white"/>
</g>
<defs>
<clipPath id="clip0_7161_48601">
<rect width="10.5" height="10.5" fill="white" transform="translate(3.67969 6.30078)"/>
</clipPath>
</defs>
</svg>
