<svg width="15" height="14" viewBox="0 0 15 14" fill="none" xmlns="http://www.w3.org/2000/svg">
<g clip-path="url(#clip0_3738_44171)">
<path d="M7.12152 9.16068C7.44694 9.48503 7.8877 9.66717 8.3472 9.66717C8.8067 9.66717 9.24746 9.48503 9.57288 9.16068L10.1857 8.54793C10.5111 8.22357 10.9519 8.04144 11.4114 8.04144C11.8709 8.04144 12.3117 8.22357 12.6371 8.54793L13.8628 9.77342C14.0419 9.92344 14.1861 10.1109 14.2849 10.3227C14.3838 10.5344 14.4351 10.7652 14.4351 10.9989C14.4351 11.2326 14.3838 11.4634 14.2849 11.6752C14.1861 11.8869 14.0419 12.0744 13.8628 12.2244C10.6532 15.4343 6.95868 13.9095 3.73953 10.6908C0.520371 7.47212 -0.996843 3.78164 2.21356 0.571733C2.36369 0.392706 2.55123 0.248741 2.76298 0.149964C2.97474 0.0511883 3.20557 0 3.43924 0C3.6729 0 3.90373 0.0511883 4.11549 0.149964C4.32724 0.248741 4.51478 0.392706 4.66491 0.571733L5.89059 1.79722C6.21521 2.12248 6.39752 2.56322 6.39752 3.02272C6.39752 3.48221 6.21521 3.92295 5.89059 4.24821L5.27775 4.86095C4.95313 5.18621 4.77082 5.62694 4.77082 6.08644C4.77082 6.54594 4.95313 6.98668 5.27775 7.31193L7.12152 9.16068Z" fill="#6B7280"/>
</g>
<defs>
<clipPath id="clip0_3738_44171">
<rect width="14" height="14" fill="white" transform="translate(0.435059)"/>
</clipPath>
</defs>
</svg>
