<svg width="40" height="40" viewBox="0 0 40 40" fill="none" xmlns="http://www.w3.org/2000/svg">
<path d="M29.001 17.2024C29.1916 17.8094 29.2869 18.7451 29.2869 20.0074C29.2869 21.2114 29.1916 22.1341 29.001 22.7727C28.8103 23.4112 28.4087 23.7305 27.797 23.7305C27.1852 23.7305 26.7799 23.4112 26.5828 22.7727C26.3847 22.1341 26.2866 21.2123 26.2866 20.0074C26.2866 18.7451 26.3847 17.8094 26.5828 17.2024C26.7799 16.5953 27.1843 16.2917 27.797 16.2917C28.4087 16.2917 28.8103 16.5953 29.001 17.2024ZM19.2689 16.2917C18.6562 16.2917 18.2518 16.5953 18.0547 17.2024C17.8566 17.8094 17.7585 18.7451 17.7585 20.0074C17.7585 21.2123 17.8566 22.1341 18.0547 22.7727C18.2518 23.4112 18.6562 23.7305 19.2689 23.7305C19.8806 23.7305 20.2823 23.4112 20.4729 22.7727C20.6636 22.1341 20.7589 21.2114 20.7589 20.0074C20.7589 18.7451 20.6636 17.8094 20.4729 17.2024C20.2823 16.5953 19.8806 16.2917 19.2689 16.2917ZM40 20C40 31.0453 31.0462 40 20 40C8.95377 40 0 31.0453 0 20C0 8.9547 8.9547 0 20 0C31.0453 0 40 8.9547 40 20ZM38.2805 19.9991C38.2805 9.91902 30.0801 1.71857 20 1.71857C9.91902 1.71857 1.71857 9.91995 1.71857 19.9991C1.71857 30.0801 9.91902 38.2805 20 38.2805C30.0801 38.2805 38.2805 30.0801 38.2805 19.9991ZM37.355 19.9991C37.355 29.5692 29.5701 37.355 20 37.355C10.4299 37.355 2.64402 29.5692 2.64402 19.9991C2.64402 10.4289 10.4308 2.64402 20 2.64402C29.5692 2.64402 37.355 10.4289 37.355 19.9991ZM13.1637 15.5893C13.1637 15.0784 12.7778 14.6638 12.303 14.6638C11.8282 14.6638 11.4395 14.7601 11.4155 14.8758C11.4025 14.9368 11.3859 15.0062 11.3637 15.0831C11.272 15.3959 11.1378 15.6467 10.9602 15.8345C10.701 16.1094 10.3642 16.2926 9.95049 16.3842C9.79409 16.4194 9.56735 16.449 9.27028 16.4731C8.89269 16.5046 8.58729 16.8285 8.58729 17.2162C8.58729 17.604 9.0019 17.9177 9.51275 17.9177H10.1272C10.6381 17.9177 11.0527 18.3323 11.0527 18.8432V24.2219C11.0527 24.7328 11.4673 25.1474 11.9782 25.1474H12.2382C12.7491 25.1474 13.1637 24.7328 13.1637 24.2219V15.5893ZM22.8837 20.0065C22.8837 18.2759 22.6153 16.9414 22.0776 16.0011C21.54 15.0618 20.6034 14.5916 19.2689 14.5916C17.9335 14.5916 16.9978 15.0608 16.4601 16.0011C15.9224 16.9414 15.6541 18.2759 15.6541 20.0065C15.6541 21.7371 15.9224 23.0688 16.4601 24.0044C16.9969 24.9401 17.9335 25.4074 19.2689 25.4074C20.6034 25.4074 21.54 24.9401 22.0776 24.0044C22.6144 23.0697 22.8837 21.7371 22.8837 20.0065ZM31.4118 20.0065C31.4118 18.2759 31.1434 16.9414 30.6057 16.0011C30.068 15.0618 29.1315 14.5916 27.797 14.5916C26.4615 14.5916 25.5259 15.0608 24.9882 16.0011C24.4505 16.9414 24.1821 18.2759 24.1821 20.0065C24.1821 21.7371 24.4505 23.0688 24.9882 24.0044C25.525 24.9401 26.4615 25.4074 27.797 25.4074C29.1315 25.4074 30.068 24.9401 30.6057 24.0044C31.1425 23.0697 31.4118 21.7371 31.4118 20.0065Z" fill="#374151"/>
<path d="M30.9253 19.6093C31.2781 19.6093 31.6217 19.653 31.9409 19.7147L32.2515 19.7821L32.311 19.7958L32.3667 19.8202C32.8845 20.0419 33.1443 20.735 32.7593 21.2352L32.6743 21.3319L30.6167 23.3856L31.8052 24.5721L33.8413 22.5389L33.8638 22.5165L33.8882 22.4969C34.3084 22.1467 35.1533 22.1733 35.3774 22.913H35.3784C35.5083 23.3281 35.5864 23.794 35.5864 24.2645C35.5864 27.003 33.2292 29.2033 30.4087 28.8934L30.3979 28.8925C30.1436 28.8607 29.8889 28.8063 29.6382 28.7343L24.8169 33.5487L24.8179 33.5497C24.3767 33.9905 23.8013 34.2157 23.2222 34.2157C22.7153 34.2157 22.2116 34.0431 21.7983 33.705L21.6274 33.5497C20.7594 32.6829 20.7594 31.2504 21.6274 30.3837L26.4468 25.5507C26.3757 25.3075 26.3224 25.0562 26.2905 24.786L26.2896 24.7821C25.9784 21.9861 28.1834 19.6093 30.9253 19.6093Z" fill="white" stroke="#374151" stroke-width="1.4"/>
</svg>
