<svg width="302" height="256" viewBox="0 0 302 256" fill="none" xmlns="http://www.w3.org/2000/svg">
    <path d="M160.418 3.67248C156.862 2.09756 152.285 0.0699248 149.855 0L72.6445 30.9155C69.1668 30.2 65.6063 29.5351 62.0064 28.8629C40.3788 24.8241 17.3263 20.5194 2.26101 3.3699C-2.77451 21.3599 0.963666 40.1542 9.8807 56.254C12.8134 61.5485 16.4148 66.4035 20.6777 70.6507C15.3555 82.6977 7.91835 104.849 7.39507 118.023C0.971663 301.992 300.285 301.993 293.864 118.021C292.575 101.557 287.295 85.6239 280.581 70.6487C294.356 55.2327 302.237 35.0755 301.294 14.2045C301.165 11.0832 300.828 7.97459 300.285 4.89971C299.632 5.40442 298.978 5.91356 298.322 6.42428C293.456 10.2116 288.479 14.0854 283.017 16.8751C270.905 23.0617 253.376 26.6451 240.08 29.2989C239.379 29.4387 238.637 29.6069 237.872 29.7804C235.195 30.3874 232.231 31.0595 229.753 30.8063C226.15 30.4382 214.698 25.5684 207.14 22.3548C204.979 21.4358 203.136 20.6523 201.886 20.1481L163.499 5.00058C162.661 4.66587 161.595 4.194 160.418 3.67248Z" fill="#072444"/>
    <path d="M235.195 71.4438L237.116 71.4391C243.271 74.3646 253.247 94.3647 255.658 100.686C262.741 118.741 262.282 138.934 254.386 156.64C241.051 187.01 210.527 202.389 181.851 214.583C171.293 219.125 160.648 223.456 149.921 227.573C123.226 216.448 96.3011 206.587 72.7457 189.205L72.2781 188.844C55.4909 175.796 41.8053 158.283 39.0489 136.418C35.7644 110.368 48.8496 91.3153 63.7116 72.0123C66.395 71.9617 69.0798 71.9478 71.7639 71.9691C100.703 72.1462 129.749 80.3169 150.529 101.629C172.777 80.1478 205.287 72.3146 235.195 71.4438Z" fill="#FEFEFE"/>
    <path d="M88.4374 88.5989C109.195 86.3171 127.859 101.483 130.154 122.497C132.45 143.511 117.51 162.44 96.7613 164.806C75.9532 167.18 57.1933 152 54.8912 130.925C52.5891 109.851 67.6194 90.8872 88.4374 88.5989Z" fill="#072444"/>
    <path d="M88.4309 94.6908C105.793 92.2653 121.827 104.507 124.299 122.077C126.771 139.647 114.752 155.935 97.411 158.517C79.961 161.114 63.7511 148.851 61.2636 131.17C58.7754 113.49 70.9585 97.131 88.4309 94.6908Z" fill="#FAB55E"/>
    <path d="M91.4005 106.181C102.573 105.287 112.377 113.659 113.39 124.961C114.404 136.262 106.249 146.286 95.0999 147.443C87.7715 148.204 80.6055 144.917 76.3367 138.838C72.0685 132.758 71.3571 124.825 74.4745 118.067C77.592 111.308 84.057 106.769 91.4005 106.181Z" fill="#072444"/>
    <path d="M85.2673 113.046C88.5616 112.666 91.5331 115.072 91.8908 118.41C92.2485 121.748 89.8563 124.744 86.5574 125.089C83.2834 125.43 80.3521 123.03 79.997 119.717C79.6419 116.404 81.9973 113.423 85.2673 113.046Z" fill="#FEFEFE"/>
    <path d="M204.09 89.3005C224.67 87.4815 242.782 102.963 244.466 123.81C246.149 144.658 230.761 162.913 210.164 164.504C189.724 166.083 171.864 150.648 170.193 129.96C168.522 109.273 183.669 91.1048 204.09 89.3005Z" fill="#072444"/>
    <path d="M203.776 95.3754C220.901 93.4612 236.29 106.032 238.063 123.384C239.838 140.737 227.318 156.233 210.169 157.911C193.185 159.573 178.059 147.044 176.302 129.858C174.545 112.672 186.815 97.2716 203.776 95.3754Z" fill="#FAB55E"/>
    <path d="M204.793 106.689C215.625 105.448 225.414 113.292 226.712 124.251C228.009 135.209 220.328 145.173 209.515 146.56C198.598 147.96 188.644 140.093 187.334 129.03C186.024 117.969 193.86 107.942 204.793 106.689Z" fill="#072444"/>
    <path d="M213.677 113.159C216.725 112.435 219.78 114.334 220.524 117.414C221.267 120.494 219.421 123.605 216.387 124.387C213.311 125.18 210.187 123.28 209.434 120.158C208.681 117.037 210.586 113.892 213.677 113.159Z" fill="#FEFEFE"/>
    <path d="M150.717 143.459C152.539 145.481 153.685 148.896 155.22 151.251C159.685 158.1 165.795 163.39 172.219 168.268C165.86 184.578 157.587 200 150.35 215.892L150.057 215.933C145.139 205.598 140.308 195.22 135.563 184.801C133.198 179.534 130.139 173.913 128.988 168.254C137.662 160.768 144.432 153.067 150.717 143.459Z" fill="#072444"/>
    <path d="M154.167 162.74C156.512 164.899 158.637 168.616 160.624 171.176C159.558 175.971 157.743 180.628 156.064 185.23L154.144 190.998C153.923 181.543 153.831 172.197 154.167 162.74Z" fill="#FEFEFE"/>
    <path d="M241.228 71.6174C249.74 72.3018 259.315 72.8784 267.508 75.4537C280.464 95.2794 284.525 125.498 279.849 148.665C273.949 177.907 255.46 200.59 231.303 216.689C211.226 230.069 189.041 238.227 165.755 243.781C158.426 245.53 151.787 247.788 144.241 246.22C140.249 245.39 135.793 244.475 132.01 242.964C133.477 242.481 136.198 243.457 137.747 243.789C139.395 241.468 138.399 231.047 138.057 228C137.528 223.288 133.83 225.226 130.878 222.632C130.724 222.496 130.577 222.351 130.426 222.21C137.191 224.487 143.736 227.66 150.577 229.654L151.02 229.435C158.863 225.602 167.42 222.844 175.501 219.504C183.165 216.336 191.005 213.267 198.478 209.673C223.624 197.578 248.942 179.342 258.73 151.831C265.354 133.214 263.41 111.176 255.034 93.4331C251.405 85.7444 246.471 78.2874 241.228 71.6174Z" fill="#247198"/>
    <path d="M31.7454 75.9006C40.8841 73.8153 50.4784 73.1049 59.7991 72.2653C51.7251 80.7417 45.0476 91.3472 40.5086 102.222C33.8509 118.172 33.2039 136.715 39.6978 152.81C55.1009 190.986 95.5554 207.529 130.427 222.21C130.577 222.351 130.724 222.496 130.878 222.632C133.83 225.226 137.528 223.288 138.057 228C138.399 231.047 139.396 241.469 137.747 243.789C136.198 243.457 133.477 242.481 132.011 242.964C128.937 242.657 125.436 241.326 122.448 240.457C105.238 235.628 88.7471 228.478 73.4183 219.199C49.2783 204.32 27.0762 181.086 20.3257 152.539C15.2113 130.908 19.0172 108.718 26.6205 88.2086C28.1052 84.2038 29.5288 79.5319 31.7454 75.9006Z" fill="url(#paint0_linear_2005_28)"/>
    <defs>
    <linearGradient id="paint0_linear_2005_28" x1="127.259" y1="153.561" x2="22.7577" y2="168.703" gradientUnits="userSpaceOnUse">
    <stop stop-color="#4593B7"/>
    <stop offset="1" stop-color="#6AB0CD"/>
    </linearGradient>
    </defs>
</svg>
