<svg width="24" height="24" viewBox="0 0 24 24" fill="none" xmlns="http://www.w3.org/2000/svg">
<path d="M8.55673 3.95146H15.5347V6.28635H17.6327V2.90249C17.6327 2.32322 17.163 1.85352 16.5837 1.85352H7.50776C6.92844 1.85352 6.45879 2.32322 6.45879 2.90249V6.28635H8.55679V3.95146H8.55673Z" fill="#233876"/>
<path d="M21.1427 6.28613H17.6327H15.5347H8.55673H6.45872H2.85731C1.27922 6.28613 0 7.56529 0 9.14338V19.286C0 20.8641 1.27922 22.1433 2.85731 22.1433H21.1427C22.7208 22.1433 24 20.8641 24 19.286V9.14345C24 7.56536 22.7208 6.28613 21.1427 6.28613ZM12.1045 19.1273C9.58667 19.1273 7.54538 17.0861 7.54538 14.5682C7.54538 12.0503 9.5866 10.0092 12.1045 10.0092C14.6224 10.0092 16.6635 12.0503 16.6635 14.5682C16.6635 17.0861 14.6224 19.1273 12.1045 19.1273Z" fill="#233876"/>
<path d="M14.0771 13.6673H13.0053V12.5955C13.0053 12.2226 12.7031 11.9204 12.3302 11.9204H11.8787C11.5058 11.9204 11.2035 12.2227 11.2035 12.5955V13.6673H10.1316C9.75888 13.6673 9.4565 13.9696 9.4565 14.3425V14.7939C9.4565 15.1668 9.75894 15.469 10.1316 15.469H11.2035V16.5409C11.2035 16.9138 11.5058 17.216 11.8787 17.216H12.3302C12.7031 17.216 13.0053 16.9138 13.0053 16.5409V15.469H14.0771C14.4501 15.469 14.7523 15.1668 14.7523 14.7939V14.3425C14.7523 13.9696 14.4501 13.6673 14.0771 13.6673Z" fill="#233876"/>
</svg>
