<svg width="24" height="24" viewBox="0 0 24 24" fill="none" xmlns="http://www.w3.org/2000/svg">
<path d="M7.71612 6.54261C7.71612 6.53129 7.7167 6.52008 7.71699 6.50881H4.73609C4.73609 6.50881 4.73288 6.50869 4.72833 6.50852C4.61775 6.50414 3.218 6.46911 2.59966 7.44359C1.95562 8.45848 1.78333 9.26429 0.818482 10.7535C0.0931222 11.8436 0.0217188 12.3487 0.0217188 13.0006C0.0217188 13.6526 0 14.1053 0 15.2893C0 16.4733 0.739781 16.9467 1.79337 16.9467C1.97553 16.9467 2.32315 16.9467 2.77323 16.9467C2.80452 15.7102 3.81585 14.7172 5.05995 14.7172C6.30405 14.7172 7.31543 15.7102 7.34672 16.9467C7.4733 16.9467 7.59684 16.9467 7.71612 16.9467V6.54261ZM6.85805 12.2561C6.85805 12.2561 3.08424 12.2439 2.74281 12.2428C2.40138 12.2417 1.99322 11.8437 2.30342 11.1606C2.71998 10.3178 3.20375 9.40237 3.41201 9.07413C3.77883 8.49608 4.62908 8.54167 4.62908 8.54167H6.8723L6.85805 12.2561Z" fill="#233876"/>
<path d="M5.02285 15.251C4.09669 15.251 3.34376 15.9901 3.32052 16.9107C3.32017 16.9253 3.3194 16.9398 3.3194 16.9544C3.3194 17.8952 4.08202 18.6579 5.02285 18.6579C5.96367 18.6579 6.72629 17.8952 6.72629 16.9544C6.72629 16.9398 6.72556 16.9253 6.72522 16.9107C6.70188 15.9901 5.949 15.251 5.02285 15.251ZM5.92835 16.9544C5.92835 17.4545 5.52297 17.8599 5.02285 17.8599C4.52276 17.8599 4.11734 17.4545 4.11734 16.9544C4.11734 16.4543 4.52276 16.0489 5.02285 16.0489C5.52297 16.0489 5.92835 16.4543 5.92835 16.9544Z" fill="#233876"/>
<path d="M5.02284 17.8817C5.53491 17.8817 5.95003 17.4666 5.95003 16.9545C5.95003 16.4425 5.53491 16.0273 5.02284 16.0273C4.51076 16.0273 4.09564 16.4425 4.09564 16.9545C4.09564 17.4666 4.51076 17.8817 5.02284 17.8817Z" fill="#233876"/>
<path d="M22.5013 5.04395H9.21483C8.61938 5.04395 8.10507 5.39121 7.86331 5.89425C7.77363 6.0809 7.65774 6.42893 7.65774 6.54266V16.9468L15.9929 16.9534C15.9929 16.9511 15.9927 16.949 15.9927 16.9467C15.9927 15.6829 17.0171 14.6585 18.281 14.6585C19.5447 14.6585 20.5692 15.6829 20.5692 16.9467C20.5692 16.9502 20.569 16.9536 20.5689 16.9571L22.5013 16.9587C23.329 16.9587 24 16.2877 24 15.46V6.54266C24 5.71495 23.329 5.04395 22.5013 5.04395ZM17.7895 10.5903C17.7895 10.9073 17.5327 11.1642 17.2156 11.1642H16.3046V12.0753C16.3046 12.3923 16.0477 12.6493 15.7306 12.6493H15.3469C15.03 12.6493 14.773 12.3923 14.773 12.0753V11.1642H13.8618C13.545 11.1642 13.288 10.9073 13.288 10.5903V10.2065C13.288 9.88962 13.545 9.63268 13.8618 9.63268H14.7729V8.72166C14.7729 8.40463 15.0299 8.14774 15.3469 8.14774H15.7306C16.0476 8.14774 16.3045 8.40463 16.3045 8.72166V9.63268H17.2156C17.5326 9.63268 17.7895 9.88962 17.7895 10.2065V10.5903H17.7895Z" fill="#233876"/>
<path d="M6.3617 5.74849C6.3617 5.45616 6.06055 5.21924 5.68906 5.21924C5.31756 5.21924 5.01642 5.45622 5.01642 5.74849L5.01642 6.838H6.3617V5.74849Z" fill="#233876"/>
<path d="M18.3128 15.249C17.3867 15.249 16.6338 15.9882 16.6105 16.9087C16.6102 16.9233 16.6094 16.9378 16.6094 16.9525C16.6094 17.8933 17.372 18.6559 18.3128 18.6559C19.2537 18.6559 20.0163 17.8933 20.0163 16.9525C20.0163 16.9378 20.0156 16.9233 20.0152 16.9087C19.9919 15.9882 19.239 15.249 18.3128 15.249ZM19.2183 16.9525C19.2183 17.4526 18.813 17.8579 18.3128 17.8579C17.8128 17.8579 17.4073 17.4526 17.4073 16.9525C17.4073 16.4524 17.8128 16.047 18.3128 16.047C18.813 16.047 19.2183 16.4524 19.2183 16.9525Z" fill="#233876"/>
<path d="M18.3128 17.8793C18.8249 17.8793 19.24 17.4642 19.24 16.9521C19.24 16.44 18.8249 16.0249 18.3128 16.0249C17.8008 16.0249 17.3856 16.44 17.3856 16.9521C17.3856 17.4642 17.8008 17.8793 18.3128 17.8793Z" fill="#233876"/>
</svg>
