<svg width="24" height="24" viewBox="0 0 24 24" fill="none" xmlns="http://www.w3.org/2000/svg">
<g clip-path="url(#clip0_2910_28867)">
<path d="M11.2005 22.7617L11.1368 22.7025L7.68505 19.2507L12.4117 14.524L15.8627 17.9751L15.9227 18.0396C17.1411 19.3502 17.113 21.4005 15.8373 22.6763C14.5616 23.952 12.5112 23.9801 11.2005 22.7617Z" stroke="#233876" stroke-width="0.69"/>
<path d="M8.64562 10.2701L8.64321 10.2725C7.19716 8.92826 4.93521 8.95906 3.52761 10.3667C2.12002 11.7742 2.08922 14.0362 3.43347 15.4823L3.43107 15.4847L7.19721 19.2508L12.4118 14.0362L8.64562 10.2701Z" fill="#233876"/>
<path d="M12.8003 1.23809L12.864 1.2973L16.3158 4.74904L11.5891 9.47574L8.13731 6.02394L8.07811 5.96025C6.85968 4.64955 6.88778 2.59924 8.16352 1.3235C9.43926 0.047761 11.4896 0.0196633 12.8003 1.23809Z" stroke="#233876" stroke-width="0.69"/>
<path d="M20.5673 8.51757L20.5698 8.51511L16.8037 4.74902L11.5891 9.96363L15.3552 13.7298L15.3576 13.7273C16.8037 15.0716 19.0656 15.0408 20.4732 13.6332C21.8808 12.2256 21.9116 9.96363 20.5673 8.51757Z" fill="#233876"/>
</g>
<defs>
<clipPath id="clip0_2910_28867">
<rect width="24" height="24" fill="white"/>
</clipPath>
</defs>
</svg>
