<svg width="24" height="24" viewBox="0 0 24 24" fill="none" xmlns="http://www.w3.org/2000/svg">
<path d="M18.1852 4.12632C17.2062 4.12632 16.4126 3.3327 16.4126 2.35361V0.55522L20.0049 4.12679L20.5388 4.12632L16.4126 0H12H5.23375C4.25484 0 3.46116 0.793678 3.46116 1.77265V22.2274C3.46116 23.2063 4.25484 24 5.23375 24H12H18.7661C19.7451 24 20.5388 23.2063 20.5388 22.2274V4.12632H20.4746H18.1852ZM8.85651 4.28929C8.85651 3.94241 9.13781 3.66117 9.48464 3.66117H10.482V2.66389C10.482 2.31695 10.7633 2.03565 11.1103 2.03565H11.1675H11.5304C11.8775 2.03565 12.1587 2.31695 12.1587 2.66389V3.66123H13.156C13.503 3.66123 13.7842 3.94247 13.7842 4.28935V4.70962C13.7842 5.05651 13.503 5.33775 13.156 5.33775H12.1587V6.3352C12.1587 6.6822 11.8775 6.9635 11.5304 6.9635H11.1675H11.1103C10.7634 6.9635 10.482 6.6822 10.482 6.3352V5.33775H9.48464C9.13781 5.33775 8.85651 5.05651 8.85651 4.70962V4.28929ZM5.81801 8.72289C5.81801 8.40625 6.07453 8.14955 6.39123 8.14955H8.28323C8.59987 8.14955 8.85657 8.40619 8.85657 8.72289V10.6147C8.85657 10.9314 8.59993 11.1881 8.28323 11.1881H6.39123C6.07459 11.1881 5.81801 10.9314 5.81801 10.6147V8.72289ZM18.4509 19.2087H6.2363C6.07663 19.2087 5.94714 19.0792 5.94714 18.9194C5.94714 18.7597 6.07663 18.6303 6.2363 18.6303H18.4509C18.6106 18.6303 18.7401 18.7597 18.7401 18.9194C18.7401 19.0792 18.6106 19.2087 18.4509 19.2087ZM18.4509 16.5811H6.2363C6.07663 16.5811 5.94714 16.4516 5.94714 16.2919C5.94714 16.1322 6.07663 16.0027 6.2363 16.0027H18.4509C18.6106 16.0027 18.7401 16.1322 18.7401 16.2919C18.7401 16.4516 18.6106 16.5811 18.4509 16.5811ZM18.4509 13.8268H6.2363C6.07663 13.8268 5.94714 13.6974 5.94714 13.5376C5.94714 13.3778 6.07663 13.2484 6.2363 13.2484H18.4509C18.6106 13.2484 18.7401 13.3778 18.7401 13.5376C18.7401 13.6973 18.6106 13.8268 18.4509 13.8268ZM18.4509 11.0724H9.80536C9.64569 11.0724 9.51614 10.9429 9.51614 10.7833C9.51614 10.6235 9.64569 10.494 9.80536 10.494H18.4509C18.6106 10.494 18.7401 10.6235 18.7401 10.7833C18.7401 10.9429 18.6106 11.0724 18.4509 11.0724Z" fill="#233876"/>
</svg>
