<svg width="20" height="20" viewBox="0 0 20 20" fill="none" xmlns="http://www.w3.org/2000/svg">
<g clip-path="url(#clip0_88_25119)">
<path d="M17.1295 1H13.7908C13.6135 0.696959 13.3581 0.445042 13.0502 0.269523C12.7424 0.0940032 12.3929 0.00105394 12.037 0H7.96288C7.6069 0.00105394 7.25746 0.0940032 6.94962 0.269523C6.64177 0.445042 6.38636 0.696959 6.20899 1H2.87029C2.33003 1 1.8119 1.21071 1.42989 1.58579C1.04787 1.96086 0.833252 2.46957 0.833252 3V18C0.833252 18.5304 1.04787 19.0391 1.42989 19.4142C1.8119 19.7893 2.33003 20 2.87029 20H17.1295C17.6698 20 18.1879 19.7893 18.57 19.4142C18.952 19.0391 19.1666 18.5304 19.1666 18V3C19.1666 2.46957 18.952 1.96086 18.57 1.58579C18.1879 1.21071 17.6698 1 17.1295 1ZM7.96288 2H12.037V5H7.96288V2ZM13.7684 10.289L9.71983 14.146C9.52976 14.3271 9.2753 14.4284 9.01043 14.4284C8.74555 14.4284 8.49109 14.3271 8.30103 14.146L6.2314 12.182C6.13537 12.0901 6.05871 11.9805 6.00582 11.8595C5.95292 11.7385 5.92482 11.6084 5.92312 11.4767C5.92142 11.3451 5.94615 11.2143 5.99589 11.0921C6.04564 10.9698 6.11944 10.8583 6.21307 10.764C6.30669 10.6697 6.41832 10.5945 6.54157 10.5425C6.66482 10.4906 6.79729 10.463 6.9314 10.4613C7.06551 10.4597 7.19865 10.4839 7.3232 10.5328C7.44776 10.5816 7.56129 10.6541 7.65733 10.746L9.00992 12.035L12.3507 8.854C12.4457 8.75829 12.5593 8.68226 12.6848 8.6304C12.8103 8.57855 12.9451 8.55191 13.0812 8.55208C13.2174 8.55225 13.3521 8.57922 13.4774 8.63139C13.6028 8.68355 13.7162 8.75987 13.811 8.85581C13.9058 8.95176 13.98 9.06539 14.0293 9.18999C14.0786 9.31458 14.102 9.44762 14.098 9.58123C14.0941 9.71485 14.0628 9.84632 14.0062 9.96789C13.9496 10.0895 13.8688 10.1986 13.7684 10.289Z" fill="#1F2A37"/>
</g>
<defs>
<clipPath id="clip0_88_25119">
<rect width="20" height="20" fill="white"/>
</clipPath>
</defs>
</svg>
