<svg width="704" height="704" viewBox="0 0 704 704" fill="none" xmlns="http://www.w3.org/3000/svg">
<g clip-path="url(#clip0_1033_591283)">
<path d="M704 0H0V704H704V0Z" fill="white"/>
<path d="M314.846 135.517C291.34 182.117 155.973 116.695 119.093 172.577C82.9341 227.367 141.951 273.671 117.192 398.74C103.877 466.003 79.5202 489.415 94.386 530.826C109.722 573.546 155.21 603.141 196.064 613.499C280.339 634.864 317.053 567.307 411.773 590.692C444.367 598.739 455.464 610.552 489.694 610.648C497.892 610.671 561.778 610.906 595.174 573.588C646.985 515.692 561.33 439.028 577.591 261.362C580.309 231.667 585.939 198.433 567.616 163.784C542.223 115.769 488.75 99.4005 468.143 92.6381C418.017 76.1888 341.673 73.8329 321.24 109.107C314.635 120.509 320.135 125.034 314.846 135.517Z" fill="#F4F7FA"/>
<path d="M331.625 445.261C316.915 428.382 321.75 394.739 331.479 373.741C342.837 349.226 356.305 351.787 363.655 332.034C377.339 295.256 336.261 271.296 347.12 233.113C355.997 201.899 386.818 206.067 395.075 171.052C401.034 145.786 387.85 131.472 400.283 111.189C401.346 109.455 413.078 90.9197 431.476 90.4045C450.046 89.8845 464.546 108.026 470.672 121.285C481.995 145.794 466.391 157.275 469.152 191.254C472.911 237.516 504.059 243.618 499.786 278.254C496.258 306.855 474.205 309.29 470.922 341.08C467.875 370.6 485.783 379.227 481.83 398.89C472.735 444.126 361.628 479.689 331.625 445.261Z" fill="url(#paint0_linear_1033_591283)"/>
<mask id="mask0_1033_591283" style="mask-type:luminance" maskUnits="userSpaceOnUse" x="322" y="90" width="179" height="370">
<path d="M331.625 445.264C316.915 428.385 321.75 394.742 331.479 373.744C342.837 349.229 356.305 351.79 363.655 332.037C377.339 295.259 336.261 271.299 347.12 233.116C355.997 201.902 386.818 206.069 395.075 171.055C401.034 145.789 387.85 131.475 400.283 111.192C401.346 109.458 413.078 90.9226 431.476 90.4074C450.046 89.8875 464.546 108.029 470.672 121.288C481.995 145.797 466.391 157.278 469.152 191.257C472.911 237.519 504.059 243.621 499.786 278.256C496.258 306.857 474.205 309.293 470.922 341.083C467.875 370.603 485.783 379.23 481.83 398.893C472.735 444.129 361.628 479.692 331.625 445.264Z" fill="white"/>
</mask>
<g mask="url(#mask0_1033_591283)">
<path opacity="0.7" d="M352.266 472.308C352.106 472.308 351.959 472.204 351.91 472.043C351.851 471.846 351.963 471.639 352.159 471.58C371.086 465.891 387.991 456.494 402.405 443.649C416.057 431.482 430.174 418.901 433.913 399.938C436.74 385.602 431.945 376.335 425.875 364.602C419.961 353.17 412.6 338.942 410.745 315.426C409.686 301.997 408.367 285.285 416.848 267.636C421.79 257.352 427.508 252.268 432.553 247.784C437.829 243.093 441.997 239.388 443.316 231.331C445.469 218.177 440.532 208.145 434.816 196.53C431.283 189.351 427.63 181.929 425.051 172.782C417.79 147.036 424.838 116.551 446.001 82.174C446.109 81.9993 446.338 81.9444 446.512 82.0526C446.687 82.16 446.742 82.3894 446.634 82.5644C425.585 116.757 418.564 147.042 425.767 172.58C428.328 181.661 431.966 189.053 435.483 196.201C441.256 207.932 446.242 218.063 444.05 231.451C442.689 239.769 438.221 243.741 433.047 248.34C428.055 252.778 422.396 257.809 417.519 267.958C409.125 285.427 410.434 302.028 411.487 315.367C413.33 338.734 420.652 352.887 426.536 364.26C432.673 376.122 437.52 385.491 434.643 400.082C430.855 419.29 416.644 431.956 402.9 444.204C388.404 457.122 371.405 466.572 352.374 472.292C352.338 472.303 352.302 472.308 352.266 472.308Z" fill="white"/>
<path opacity="0.7" d="M413.781 276.72C413.663 276.72 413.546 276.663 413.474 276.558C391.232 244.215 383.628 217.361 381.167 200.528C378.495 182.26 381.137 171.49 381.164 171.383C381.214 171.184 381.416 171.064 381.616 171.114C381.815 171.164 381.935 171.366 381.885 171.566C381.858 171.671 379.25 182.334 381.91 200.472C384.366 217.216 391.942 243.935 414.087 276.137C414.204 276.306 414.161 276.537 413.991 276.654C413.927 276.698 413.854 276.72 413.781 276.72Z" fill="white"/>
<path opacity="0.7" d="M414.064 334.637C413.925 334.637 413.792 334.559 413.728 334.425C413.639 334.24 413.717 334.018 413.903 333.929C432.684 324.952 448.126 313.349 459.801 299.442C469.138 288.32 476.101 275.706 480.496 261.951C487.984 238.519 485.379 219.646 485.352 219.458C485.323 219.255 485.464 219.066 485.667 219.037C485.876 219.009 486.059 219.149 486.089 219.352C486.116 219.541 488.746 238.555 481.216 262.145C476.793 275.998 469.785 288.702 460.385 299.903C448.64 313.899 433.109 325.573 414.224 334.6C414.172 334.625 414.117 334.637 414.064 334.637Z" fill="white"/>
<path opacity="0.7" d="M417.89 431.145C417.827 431.145 417.763 431.129 417.704 431.095C378.749 408.557 362.311 380.825 355.381 361.529C347.866 340.604 349.601 324.787 349.619 324.63C349.643 324.426 349.822 324.282 350.032 324.304C350.236 324.328 350.382 324.513 350.358 324.717C350.34 324.872 348.627 340.548 356.095 361.317C362.988 380.484 379.336 408.037 418.077 430.452C418.255 430.554 418.315 430.782 418.213 430.96C418.144 431.079 418.019 431.145 417.89 431.145Z" fill="white"/>
<path opacity="0.7" d="M425.048 168.472C424.928 168.472 424.81 168.414 424.738 168.306C424.624 168.135 424.671 167.904 424.842 167.79C454.658 147.968 464.039 122.004 466.659 103.713C469.5 83.8769 465.227 68.528 465.183 68.3755C465.127 68.1781 465.242 67.9722 465.439 67.9157C465.636 67.8608 465.842 67.9738 465.899 68.1717C465.943 68.3256 470.255 83.8014 467.4 103.788C464.763 122.239 455.311 148.427 425.254 168.41C425.19 168.452 425.119 168.472 425.048 168.472Z" fill="white"/>
</g>
<path d="M454.897 526.22C450.453 526.49 440.55 523.159 438.326 521.226C423.528 508.365 394.258 486.085 391.565 465.534C391.105 462.025 405.999 455.834 407.563 452.232C416.101 445.98 419.45 444.341 424.647 434.41C439.99 405.091 384.743 366.129 435.165 339.065C472.099 319.241 507.874 326.424 491.973 266.24C476.072 206.057 503.164 85.6557 575.712 115.874C617.348 133.216 589.754 192.265 616.095 226.882C641.126 259.777 631.443 292.656 596.999 321.866C562.554 351.076 586.396 363.9 604.233 396.299C625.659 435.218 563.228 454.791 533.634 461.368C509.803 466.665 452.694 496.23 454.897 526.22Z" fill="url(#paint1_linear_1033_591283)"/>
<mask id="mask1_1033_591283" style="mask-type:luminance" maskUnits="userSpaceOnUse" x="391" y="111" width="240" height="416">
<path d="M454.897 526.218C450.453 526.487 440.55 523.156 438.326 521.224C423.528 508.363 394.258 486.082 391.565 465.532C391.105 462.022 405.999 455.831 407.563 452.23C416.101 445.978 419.45 444.339 424.647 434.408C439.99 405.089 384.743 366.126 435.165 339.062C472.099 319.238 507.874 326.421 491.973 266.238C476.072 206.054 503.164 85.6533 575.712 115.871C617.348 133.214 589.754 192.263 616.095 226.879C641.126 259.774 631.443 292.654 596.999 321.864C562.554 351.074 586.396 363.897 604.233 396.297C625.659 435.216 563.228 454.788 533.634 461.366C509.803 466.662 452.694 496.228 454.897 526.218Z" fill="white"/>
</mask>
<g mask="url(#mask1_1033_591283)">
<path d="M415.825 495.023L415.258 494.266C531.974 406.895 584.206 259.745 554.977 100.638L555.908 100.466C569.76 175.872 565.05 251.468 542.287 319.083C518.355 390.168 474.626 451.007 415.825 495.023Z" fill="#FCFDFE"/>
<path d="M614.994 411.45C575.443 406.363 513.134 417.944 476.098 437.267L475.66 436.428C512.842 417.03 575.401 405.403 615.115 410.511L614.994 411.45Z" fill="#FCFDFE"/>
<path d="M438.542 477.61L437.787 477.039C450.883 459.719 454.719 436.443 449.19 407.86C445.136 386.901 436.234 363.629 422.73 338.689L423.563 338.238C437.112 363.263 446.047 386.626 450.119 407.679C455.702 436.538 451.807 460.066 438.542 477.61Z" fill="#FCFDFE"/>
<path d="M545.143 309.36L544.359 308.829C567.365 274.911 607.545 259.326 637.202 252.223L637.422 253.144C607.928 260.208 567.978 275.694 545.143 309.36Z" fill="#FCFDFE"/>
<path d="M562.685 217.198L561.745 217.308C556.366 171.453 522.714 136.578 503.133 119.872L503.747 119.151C523.434 135.949 557.269 171.021 562.685 217.198Z" fill="#FCFDFE"/>
</g>
<path opacity="0.54" d="M151.916 629.94C143.077 630.749 135.848 622.094 135.848 610.642V210.493C135.848 199.041 143.077 190.119 151.916 190.602L530.817 219.436C537.523 219.802 544.711 220.11 544.711 230.012V576.04C544.711 585.943 539.28 594.496 532.574 595.11L151.916 629.94Z" fill="url(#paint2_linear_1033_591283)"/>
<path d="M155.002 629.94C146.163 630.749 138.934 622.094 138.934 610.642V210.493C138.934 199.041 146.163 190.119 155.002 190.602L535.66 211.39C542.366 211.756 547.797 220.109 547.797 230.012V576.04C547.797 585.943 542.366 594.496 535.66 595.11L155.002 629.94Z" fill="url(#paint3_linear_1033_591283)"/>
<path d="M535.661 223.328L155.003 204.27C152.014 204.12 149.586 207.134 149.586 211.001V609.739C149.586 613.607 152.014 616.53 155.003 616.271L535.661 583.171C537.938 582.973 539.78 580.084 539.78 576.717V229.629C539.78 226.263 537.938 223.442 535.661 223.328Z" fill="url(#paint4_linear_1033_591283)"/>
<g opacity="0.53">
<path d="M289.227 575.794C287.757 575.794 286.566 574.602 286.566 573.133V242.456C286.566 240.987 287.757 239.795 289.227 239.795C290.696 239.795 291.887 240.987 291.887 242.456V573.133C291.887 574.602 290.696 575.794 289.227 575.794Z" fill="white"/>
<path d="M423.926 565.556C422.457 565.556 421.266 564.365 421.266 562.896V247.724C421.266 246.255 422.457 245.063 423.926 245.063C425.395 245.063 426.586 246.255 426.586 247.724V562.896C426.586 564.365 425.395 565.556 423.926 565.556Z" fill="white"/>
</g>
<path opacity="0.3" d="M169.465 361.382V415.756C169.465 423.879 170.546 431.965 172.68 439.802L173.496 442.798C173.799 443.911 174.809 444.684 175.963 444.684H279.588C280.994 444.684 282.037 443.38 281.729 442.008C280.486 436.467 277.802 423.638 277.802 416.202L271.85 369.14C271.85 366.844 275.977 361.947 273.682 361.878L172.098 358.826C170.657 358.783 169.465 359.94 169.465 361.382Z" fill="url(#paint5_linear_1033_591283)"/>
<path d="M169.465 350.784V405.158C169.465 413.28 170.546 421.367 172.68 429.203L173.496 432.2C173.799 433.313 174.809 434.085 175.963 434.085H279.588C280.994 434.085 282.037 432.782 281.729 431.409C280.486 425.869 277.802 413.039 277.802 405.604V355.525C277.802 353.229 275.977 351.348 273.682 351.279L172.098 348.228C170.657 348.184 169.465 349.341 169.465 350.784Z" fill="url(#paint6_linear_1033_591283)"/>
<path d="M268.247 368.604C268.234 368.604 268.221 368.604 268.208 368.604L179.185 366.366C178.332 366.345 177.659 365.636 177.68 364.784C177.702 363.932 178.416 363.253 179.262 363.28L268.285 365.517C269.138 365.538 269.811 366.247 269.79 367.099C269.769 367.939 269.082 368.604 268.247 368.604Z" fill="white"/>
<g opacity="0.19">
<path d="M217.504 382.751L206.461 382.428V374.767L217.504 375.161V382.751Z" fill="url(#paint7_linear_1033_591283)"/>
<path d="M230.892 383.141L220.102 382.826V375.253L230.892 375.639V383.141Z" fill="url(#paint8_linear_1033_591283)"/>
<path d="M243.979 383.524L233.434 383.216V375.729L243.979 376.106V383.524Z" fill="url(#paint9_linear_1033_591283)"/>
<path d="M256.77 383.897L246.461 383.596V376.194L256.77 376.562V383.897Z" fill="url(#paint10_linear_1033_591283)"/>
<path d="M269.276 384.262L259.195 383.968V376.649L269.276 377.009V384.262Z" fill="url(#paint11_linear_1033_591283)"/>
<path d="M189.772 393.567L178.195 393.342V385.497L189.772 385.797V393.567Z" fill="url(#paint12_linear_1033_591283)"/>
<path d="M203.801 393.841L192.496 393.621V385.868L203.801 386.162V393.841Z" fill="url(#paint13_linear_1033_591283)"/>
<path d="M217.504 394.107L206.461 393.892V386.23L217.504 386.517V394.107Z" fill="url(#paint14_linear_1033_591283)"/>
<path d="M230.892 394.368L220.102 394.158V386.585L230.892 386.865V394.368Z" fill="url(#paint15_linear_1033_591283)"/>
<path d="M243.979 394.623L233.434 394.417V386.931L243.979 387.205V394.623Z" fill="url(#paint16_linear_1033_591283)"/>
<path d="M256.77 394.872L246.461 394.671V387.27L256.77 387.538V394.872Z" fill="url(#paint17_linear_1033_591283)"/>
<path d="M269.276 395.115L259.195 394.919V387.601L269.276 387.862V395.115Z" fill="url(#paint18_linear_1033_591283)"/>
<path d="M189.772 405.194L178.195 405.081V397.236L189.772 397.424V405.194Z" fill="url(#paint19_linear_1033_591283)"/>
<path d="M203.801 405.331L192.496 405.221V397.469L203.801 397.652V405.331Z" fill="url(#paint20_linear_1033_591283)"/>
<path d="M217.504 405.464L206.461 405.356V397.695L217.504 397.874V405.464Z" fill="url(#paint21_linear_1033_591283)"/>
<path d="M230.892 405.594L220.102 405.489V397.917L230.892 398.092V405.594Z" fill="url(#paint22_linear_1033_591283)"/>
<path d="M243.979 405.722L233.434 405.619V398.133L243.979 398.304V405.722Z" fill="url(#paint23_linear_1033_591283)"/>
<path d="M256.77 405.846L246.461 405.746V398.345L256.77 398.512V405.846Z" fill="url(#paint24_linear_1033_591283)"/>
<path d="M269.276 405.968L259.195 405.87V398.551L269.276 398.715V405.968Z" fill="url(#paint25_linear_1033_591283)"/>
<path d="M189.772 416.821H178.195V408.976L189.772 409.051V416.821Z" fill="url(#paint26_linear_1033_591283)"/>
<path d="M203.801 416.821H192.496V409.068L203.801 409.142V416.821Z" fill="url(#paint27_linear_1033_591283)"/>
<path d="M217.504 416.821H206.461V409.159L217.504 409.231V416.821Z" fill="url(#paint28_linear_1033_591283)"/>
<path d="M230.892 416.821H220.102V409.249L230.892 409.319V416.821Z" fill="url(#paint29_linear_1033_591283)"/>
<path d="M243.979 416.821H233.434V409.335L243.979 409.403V416.821Z" fill="url(#paint30_linear_1033_591283)"/>
</g>
<path d="M173.926 252.098C174.116 286.051 175.83 316.505 187.282 324.57L277.325 323.956C271.287 302.291 263.729 279.523 265.295 254.968L173.926 252.098Z" fill="url(#paint31_linear_1033_591283)"/>
<path opacity="0.3" d="M294.098 266.27V421.461C294.098 425.086 297.263 427.897 300.863 427.469L433.01 411.757C437.412 411.234 440.341 406.953 439.23 402.662C435.547 388.444 428.499 358.522 428.466 337.682C428.466 337.134 428.17 336.634 427.688 336.373L296.307 264.956C295.311 264.414 294.098 265.136 294.098 266.27Z" fill="url(#paint32_linear_1033_591283)"/>
<path d="M296.693 263.489L456.323 247.127C457.575 246.999 458.71 247.866 458.909 249.108C461.028 262.327 473.204 331.828 501.52 376.323C502.407 377.717 501.631 379.565 500.015 379.911L357.186 410.522C356.466 410.676 355.719 410.49 355.156 410.015C349.2 404.983 315.969 372.829 294.605 266.318C294.33 264.946 295.3 263.632 296.693 263.489Z" fill="url(#paint33_linear_1033_591283)"/>
<path d="M487.716 397.647L485.984 387.223C485.984 387.223 489.05 382.144 484.519 378.401C479.988 374.659 491.16 376.447 492.037 384.835L489.234 389.88L494.009 396.602L487.716 397.647Z" fill="url(#paint34_linear_1033_591283)"/>
<path d="M367.206 424.828L362.92 414.274C362.92 414.274 363.834 410.725 361.529 408.741C359.223 406.758 360.298 407.336 360.28 409.373C360.263 411.411 357.229 409.512 354.679 407.674C352.13 405.835 353.408 409.999 354.872 412.111C356.337 414.224 357.138 415.517 359.815 416.244C362.493 416.971 362.625 424.828 362.625 424.828L367.206 424.828Z" fill="url(#paint35_linear_1033_591283)"/>
<path d="M449.755 620.747C450.173 619.221 453.811 620.4 456.187 621.203C458.563 622.005 459.405 623.232 459.571 624.232C459.738 625.232 458.925 627.415 456.901 625.946C455.239 624.74 449.385 622.096 449.755 620.747Z" fill="#26264F"/>
<path d="M455.625 615.831L455.956 622.199C455.956 622.199 457.408 623.793 458.115 623.335L459.082 616.311L455.625 615.831Z" fill="url(#paint36_linear_1033_591283)"/>
<path d="M444.236 609.439L449.377 613.279L447.736 615.951L442.352 613.116L444.236 609.439Z" fill="url(#paint37_linear_1033_591283)"/>
<path d="M441.273 620.608C441.273 620.608 444.858 622.489 447.074 620.63C448.499 619.435 449.979 617.184 450.854 615.729C451.329 614.94 451.112 613.921 450.356 613.393C449.259 612.627 447.735 611.72 446.94 611.951C445.611 612.336 445.683 616.983 444.902 618.007C444.12 619.03 441.454 619.18 441.273 620.608Z" fill="#26264F"/>
<path d="M455.927 518.018C453.548 532.054 451.698 548.526 451.374 566.98C451.037 586.216 452.434 603.382 454.463 617.932C454.905 618.286 455.71 618.838 456.856 619.142C458.197 619.497 459.325 619.331 459.899 619.206C462.507 612.294 464.4 606.388 465.716 601.981C469.191 590.341 470.929 584.369 470.967 576.968C471.003 570.023 469.67 570.253 469.803 562.598C469.921 555.791 471.059 550.8 472.766 543.502C473.939 538.491 475.754 531.777 478.604 523.974C471.045 521.989 463.486 520.003 455.927 518.018Z" fill="url(#paint38_linear_1033_591283)"/>
<path opacity="0.3" d="M456.355 613.234C455.983 607.995 459.495 606.466 460.598 600.188C461.947 592.518 457.338 591.199 457.859 582.342C458.278 575.225 461.299 575.309 462.486 566.816C463.748 557.789 460.687 555.182 462.659 550.048C463.755 547.193 466.418 543.574 473.475 540.606C474.636 536.012 476.269 530.368 478.604 523.974C471.045 521.989 463.486 520.003 455.927 518.018C453.548 532.054 451.698 548.526 451.374 566.98C451.037 586.216 452.434 603.382 454.463 617.932C454.905 618.286 455.71 618.838 456.856 619.142C457.464 619.303 458.018 619.349 458.507 619.348C457.395 617.616 456.521 615.571 456.355 613.234Z" fill="url(#paint39_linear_1033_591283)"/>
<path d="M437.941 511.232C436.883 514.501 435.157 519.422 432.569 525.21C426.735 538.262 422.689 541.932 419.798 550.683C416.427 560.887 417.35 569.756 417.702 573.13C420.099 596.161 438.065 610.829 442.865 614.515C443.932 612.691 444.999 610.867 446.066 609.043C445.139 606.92 443.82 603.544 442.836 599.25C441.156 591.919 441.848 587.993 441.168 581.002C439.943 568.389 436.543 569.338 437.213 563.22C438.276 553.523 446.776 551.499 457.862 535.082C461.038 530.378 463.207 526.299 464.466 523.776C455.624 519.595 446.783 515.414 437.941 511.232Z" fill="url(#paint40_linear_1033_591283)"/>
<path d="M484.265 390.996C487.387 390.823 490.509 390.65 493.63 390.476C496.778 396.159 502.282 407.971 502.183 423.685C502.092 438.227 497.248 448.764 495.736 451.855C490.296 462.97 482.856 469.902 478.488 473.419C478.482 490.7 478.809 501.597 479.403 508.12C479.474 508.906 480.087 515.505 479.194 524.016C478.922 526.609 478.779 527.921 478.424 528.637C473.5 538.572 445.275 530.698 437.651 527.404C435.669 526.547 433.656 525.355 432.794 523.246C431.688 520.535 432.748 518.078 433.179 515.93C434.237 510.654 431.101 506.671 424.811 496.435C422.152 492.107 418.29 485.609 413.779 477.174C408.558 478.697 396.254 481.426 384.209 475.68C366.509 467.237 356.409 443.852 361.558 418.509C363.355 417.996 365.152 417.483 366.949 416.969C368.138 421.887 370.431 428.509 375.128 435.188C377.978 439.24 380.352 442.614 384.469 444.501C390.935 447.464 396.677 444.456 405.07 442.383C409.656 441.251 408.248 442.165 442.789 441.817C457.529 441.669 460.517 441.502 465.016 439.901C468.134 438.791 477.363 435.507 483.225 426.894C493.582 411.676 484.898 392.35 484.265 390.996Z" fill="url(#paint41_linear_1033_591283)"/>
<path d="M439.568 430.312C439.568 430.312 438.688 433.835 439.927 435.414C441.167 436.992 445.307 443.044 446.654 443.339C447.422 443.507 449.345 443.798 450.859 444.018C451.655 444.133 451.824 445.23 451.086 445.55C449.581 446.203 446.927 446.861 442.369 446.811C435.781 446.74 430.481 444.233 428.171 442.935C427.843 442.75 427.999 442.252 428.374 442.281L431.339 442.504C433.878 442.695 435.965 440.53 435.682 438L435.498 436.352L439.568 430.312Z" fill="url(#paint42_linear_1033_591283)"/>
<path d="M436.849 437.403C436.442 437.179 433.13 436.777 432.673 434.996C432.053 432.578 434.226 429.635 434.497 429.162C435.63 427.18 435.915 426.912 436.442 426.576L437.174 426.147C437.174 426.147 437.216 426.131 437.26 426.117C437.727 425.962 439.306 425.95 439.624 426.025C440.641 426.267 441.634 430.452 441.191 436.328C441.228 436.553 441.264 436.78 441.298 437.009C441.387 437.603 436.819 437.612 436.849 437.403Z" fill="url(#paint43_linear_1033_591283)"/>
<path d="M433.734 425.773C433.591 426.491 435.492 427.922 436.305 428.539C436.404 428.614 436.689 428.867 436.948 429.275C436.986 429.334 437.019 429.404 437.047 429.493C437.42 430.65 435.564 431.961 435.905 432.483C436.152 432.862 437.404 432.391 437.544 432.716C437.676 433.022 436.631 433.627 436.781 433.993C436.894 434.27 437.534 434.034 437.925 434.463C438.119 434.676 438.057 434.841 438.254 435.485C438.366 435.849 438.524 436.249 438.649 436.472C439.254 437.556 441.029 437.987 441.382 437.567C441.481 437.449 441.401 437.347 441.507 436.949C441.507 436.949 441.606 436.58 441.874 436.157C442.257 435.552 443.158 435.133 444.071 434.507C445.762 433.346 446.238 432.335 446.382 431.993C446.398 431.954 446.412 431.919 446.424 431.886C446.449 431.829 446.47 431.77 446.488 431.712C446.845 430.546 445.364 428.52 445.364 428.52C444.176 426.922 442.675 425.849 441.476 425.167C439.282 424.735 437.495 424.79 436.258 424.927C435.251 425.038 433.848 425.205 433.734 425.773Z" fill="url(#paint44_linear_1033_591283)"/>
<path d="M433.051 431.822C433.051 431.822 434.453 433.505 436.306 431.483L437.221 431.753C437.221 431.753 434.984 436.674 434.506 436.674C434.028 436.674 432.631 436.356 432.631 436.356C432.107 436.137 431.813 435.576 431.933 435.021C432.153 434.01 432.727 432.534 433.051 431.822Z" fill="url(#paint45_linear_1033_591283)"/>
<path d="M436.751 432.069C437.212 431.465 437.984 432.059 437.97 432.854C437.957 433.647 437.169 434.456 436.426 434.282C435.683 434.109 436.132 432.881 436.751 432.069Z" fill="url(#paint46_linear_1033_591283)"/>
<path opacity="0.3" d="M470.915 525.749C461.353 529.118 450.209 524.191 447.426 517.47C445.369 512.501 449.765 507.761 446.656 502.645C443.662 497.719 438.256 499.926 434.526 494.944C430.461 489.514 435.245 484.705 431.638 477.424C428.925 471.946 422.427 467.016 416.044 467.027C408.455 467.04 405.621 474.025 399.101 472.61C395.695 471.871 395.774 469.814 391.015 466.449C382.755 460.609 377.216 463.056 370.414 458.941C368.415 457.731 366.185 455.877 364.109 452.896C368.173 463.217 375.204 471.384 384.208 475.68C396.253 481.426 408.558 478.697 413.779 477.174C418.289 485.609 422.151 492.107 424.811 496.435C431.1 506.671 434.237 510.653 433.179 515.929C432.748 518.078 431.687 520.535 432.794 523.245C433.655 525.355 435.669 526.547 437.651 527.403C445.275 530.698 473.5 538.572 478.423 528.636C478.778 527.92 478.921 526.609 479.193 524.016C479.363 522.4 479.478 520.854 479.553 519.403C477.585 521.926 474.806 524.377 470.915 525.749Z" fill="url(#paint47_linear_1033_591283)"/>
<path opacity="0.19" d="M450.609 335.094C432.585 330.578 427.946 311.799 411.448 311.938C395.13 312.075 391.606 330.512 377.054 329.645C360.502 328.659 357.281 304.341 335.851 298.657C328.464 296.698 321.273 297.58 315.105 299.415C327.138 355.852 354.835 395.082 354.835 395.082L485.91 368.125C479.679 358.299 474.238 346.39 469.602 334.182C461.754 336.573 455.511 336.322 450.609 335.094Z" fill="url(#paint48_linear_1033_591283)"/>
<path d="M311.329 279.524C309.975 279.524 308.817 278.495 308.684 277.12C308.543 275.657 309.614 274.358 311.076 274.216L446.606 261.107C448.065 260.961 449.369 262.036 449.51 263.499C449.652 264.961 448.581 266.261 447.119 266.403L311.588 279.512C311.501 279.52 311.415 279.524 311.329 279.524Z" fill="white"/>
<path d="M362.431 287.697C361.092 287.697 359.939 286.689 359.79 285.327C359.629 283.867 360.683 282.553 362.144 282.393L448.957 272.858C450.419 272.698 451.731 273.752 451.892 275.212C452.052 276.672 450.998 277.986 449.538 278.147L362.724 287.681C362.625 287.692 362.528 287.697 362.431 287.697Z" fill="white"/>
</g>
<defs>
<linearGradient id="paint0_linear_1033_591283" x1="354.083" y1="122.333" x2="409.273" y2="316.449" gradientUnits="userSpaceOnUse">
<stop offset="0.0036" stop-color="#16BDCA"/>
<stop offset="1" stop-color="#05505C"/>
</linearGradient>
<linearGradient id="paint1_linear_1033_591283" x1="475.107" y1="134.456" x2="591.576" y2="879.022" gradientUnits="userSpaceOnUse">
<stop stop-color="#31C48D"/>
<stop offset="0.9964" stop-color="#014737"/>
</linearGradient>
<linearGradient id="paint2_linear_1033_591283" x1="401.869" y1="374.894" x2="251.737" y2="419.393" gradientUnits="userSpaceOnUse">
<stop stop-color="#D8DEE8"/>
<stop offset="1" stop-color="#A2A7AE"/>
</linearGradient>
<linearGradient id="paint3_linear_1033_591283" x1="459.379" y1="212.182" x2="281.814" y2="489.502" gradientUnits="userSpaceOnUse">
<stop stop-color="white"/>
<stop offset="0.9964" stop-color="#EBEFF2"/>
</linearGradient>
<linearGradient id="paint4_linear_1033_591283" x1="557.76" y1="154.322" x2="42.2864" y2="733.897" gradientUnits="userSpaceOnUse">
<stop stop-color="#444B8C"/>
<stop offset="0.9964" stop-color="#26264F"/>
</linearGradient>
<linearGradient id="paint5_linear_1033_591283" x1="209.087" y1="367.18" x2="257.135" y2="481.8" gradientUnits="userSpaceOnUse">
<stop stop-color="#444B8C"/>
<stop offset="0.9964" stop-color="#26264F"/>
</linearGradient>
<linearGradient id="paint6_linear_1033_591283" x1="210.024" y1="356.189" x2="258.072" y2="470.809" gradientUnits="userSpaceOnUse">
<stop stop-color="#76A9FA"/>
<stop offset="0.9964" stop-color="#1A56DB"/>
</linearGradient>
<linearGradient id="paint7_linear_1033_591283" x1="206.461" y1="378.759" x2="217.504" y2="378.759" gradientUnits="userSpaceOnUse">
<stop stop-color="white"/>
<stop offset="0.9964" stop-color="#EBEFF2"/>
</linearGradient>
<linearGradient id="paint8_linear_1033_591283" x1="220.102" y1="379.197" x2="230.891" y2="379.197" gradientUnits="userSpaceOnUse">
<stop stop-color="white"/>
<stop offset="0.9964" stop-color="#EBEFF2"/>
</linearGradient>
<linearGradient id="paint9_linear_1033_591283" x1="233.434" y1="379.627" x2="243.979" y2="379.627" gradientUnits="userSpaceOnUse">
<stop stop-color="white"/>
<stop offset="0.9964" stop-color="#EBEFF2"/>
</linearGradient>
<linearGradient id="paint10_linear_1033_591283" x1="246.461" y1="380.046" x2="256.77" y2="380.046" gradientUnits="userSpaceOnUse">
<stop stop-color="white"/>
<stop offset="0.9964" stop-color="#EBEFF2"/>
</linearGradient>
<linearGradient id="paint11_linear_1033_591283" x1="259.195" y1="380.456" x2="269.276" y2="380.456" gradientUnits="userSpaceOnUse">
<stop stop-color="white"/>
<stop offset="0.9964" stop-color="#EBEFF2"/>
</linearGradient>
<linearGradient id="paint12_linear_1033_591283" x1="178.195" y1="389.532" x2="189.772" y2="389.532" gradientUnits="userSpaceOnUse">
<stop stop-color="white"/>
<stop offset="0.9964" stop-color="#EBEFF2"/>
</linearGradient>
<linearGradient id="paint13_linear_1033_591283" x1="192.496" y1="389.854" x2="203.801" y2="389.854" gradientUnits="userSpaceOnUse">
<stop stop-color="white"/>
<stop offset="0.9964" stop-color="#EBEFF2"/>
</linearGradient>
<linearGradient id="paint14_linear_1033_591283" x1="206.461" y1="390.169" x2="217.504" y2="390.169" gradientUnits="userSpaceOnUse">
<stop stop-color="white"/>
<stop offset="0.9964" stop-color="#EBEFF2"/>
</linearGradient>
<linearGradient id="paint15_linear_1033_591283" x1="220.102" y1="390.476" x2="230.891" y2="390.476" gradientUnits="userSpaceOnUse">
<stop stop-color="white"/>
<stop offset="0.9964" stop-color="#EBEFF2"/>
</linearGradient>
<linearGradient id="paint16_linear_1033_591283" x1="233.434" y1="390.777" x2="243.979" y2="390.777" gradientUnits="userSpaceOnUse">
<stop stop-color="white"/>
<stop offset="0.9964" stop-color="#EBEFF2"/>
</linearGradient>
<linearGradient id="paint17_linear_1033_591283" x1="246.461" y1="391.071" x2="256.77" y2="391.071" gradientUnits="userSpaceOnUse">
<stop stop-color="white"/>
<stop offset="0.9964" stop-color="#EBEFF2"/>
</linearGradient>
<linearGradient id="paint18_linear_1033_591283" x1="259.195" y1="391.358" x2="269.276" y2="391.358" gradientUnits="userSpaceOnUse">
<stop stop-color="white"/>
<stop offset="0.9964" stop-color="#EBEFF2"/>
</linearGradient>
<linearGradient id="paint19_linear_1033_591283" x1="178.195" y1="401.215" x2="189.772" y2="401.215" gradientUnits="userSpaceOnUse">
<stop stop-color="white"/>
<stop offset="0.9964" stop-color="#EBEFF2"/>
</linearGradient>
<linearGradient id="paint20_linear_1033_591283" x1="192.496" y1="401.4" x2="203.801" y2="401.4" gradientUnits="userSpaceOnUse">
<stop stop-color="white"/>
<stop offset="0.9964" stop-color="#EBEFF2"/>
</linearGradient>
<linearGradient id="paint21_linear_1033_591283" x1="206.461" y1="401.579" x2="217.504" y2="401.579" gradientUnits="userSpaceOnUse">
<stop stop-color="white"/>
<stop offset="0.9964" stop-color="#EBEFF2"/>
</linearGradient>
<linearGradient id="paint22_linear_1033_591283" x1="220.102" y1="401.755" x2="230.891" y2="401.755" gradientUnits="userSpaceOnUse">
<stop stop-color="white"/>
<stop offset="0.9964" stop-color="#EBEFF2"/>
</linearGradient>
<linearGradient id="paint23_linear_1033_591283" x1="233.434" y1="401.927" x2="243.979" y2="401.927" gradientUnits="userSpaceOnUse">
<stop stop-color="white"/>
<stop offset="0.9964" stop-color="#EBEFF2"/>
</linearGradient>
<linearGradient id="paint24_linear_1033_591283" x1="246.461" y1="402.096" x2="256.77" y2="402.096" gradientUnits="userSpaceOnUse">
<stop stop-color="white"/>
<stop offset="0.9964" stop-color="#EBEFF2"/>
</linearGradient>
<linearGradient id="paint25_linear_1033_591283" x1="259.195" y1="402.26" x2="269.276" y2="402.26" gradientUnits="userSpaceOnUse">
<stop stop-color="white"/>
<stop offset="0.9964" stop-color="#EBEFF2"/>
</linearGradient>
<linearGradient id="paint26_linear_1033_591283" x1="178.195" y1="412.898" x2="189.772" y2="412.898" gradientUnits="userSpaceOnUse">
<stop stop-color="white"/>
<stop offset="0.9964" stop-color="#EBEFF2"/>
</linearGradient>
<linearGradient id="paint27_linear_1033_591283" x1="192.496" y1="412.945" x2="203.801" y2="412.945" gradientUnits="userSpaceOnUse">
<stop stop-color="white"/>
<stop offset="0.9964" stop-color="#EBEFF2"/>
</linearGradient>
<linearGradient id="paint28_linear_1033_591283" x1="206.461" y1="412.99" x2="217.504" y2="412.99" gradientUnits="userSpaceOnUse">
<stop stop-color="white"/>
<stop offset="0.9964" stop-color="#EBEFF2"/>
</linearGradient>
<linearGradient id="paint29_linear_1033_591283" x1="220.102" y1="413.035" x2="230.891" y2="413.035" gradientUnits="userSpaceOnUse">
<stop stop-color="white"/>
<stop offset="0.9964" stop-color="#EBEFF2"/>
</linearGradient>
<linearGradient id="paint30_linear_1033_591283" x1="233.434" y1="413.078" x2="243.979" y2="413.078" gradientUnits="userSpaceOnUse">
<stop stop-color="white"/>
<stop offset="0.9964" stop-color="#EBEFF2"/>
</linearGradient>
<linearGradient id="paint31_linear_1033_591283" x1="206.999" y1="287.504" x2="301.926" y2="255.46" gradientUnits="userSpaceOnUse">
<stop offset="0.0036" stop-color="#FF8A4C"/>
<stop offset="1" stop-color="#FCE96A"/>
</linearGradient>
<linearGradient id="paint32_linear_1033_591283" x1="363.587" y1="390.237" x2="413.475" y2="744.8" gradientUnits="userSpaceOnUse">
<stop stop-color="#444B8C"/>
<stop offset="0.9964" stop-color="#26264F"/>
</linearGradient>
<linearGradient id="paint33_linear_1033_591283" x1="400.113" y1="255.264" x2="389.925" y2="613.88" gradientUnits="userSpaceOnUse">
<stop stop-color="#A4CAFE"/>
<stop offset="0.9964" stop-color="#1A56DB"/>
</linearGradient>
<linearGradient id="paint34_linear_1033_591283" x1="490.622" y1="393.299" x2="505.055" y2="439.236" gradientUnits="userSpaceOnUse">
<stop stop-color="#FFC444"/>
<stop offset="0.9964" stop-color="#F36F56"/>
</linearGradient>
<linearGradient id="paint35_linear_1033_591283" x1="373.483" y1="431.501" x2="397.349" y2="468.558" gradientUnits="userSpaceOnUse">
<stop stop-color="#FFC444"/>
<stop offset="0.9964" stop-color="#F36F56"/>
</linearGradient>
<linearGradient id="paint36_linear_1033_591283" x1="456.121" y1="604.412" x2="458.52" y2="629.877" gradientUnits="userSpaceOnUse">
<stop stop-color="#FFC444"/>
<stop offset="0.9964" stop-color="#F36F56"/>
</linearGradient>
<linearGradient id="paint37_linear_1033_591283" x1="445.142" y1="605.531" x2="447.523" y2="630.807" gradientUnits="userSpaceOnUse">
<stop stop-color="#FFC444"/>
<stop offset="0.9964" stop-color="#F36F56"/>
</linearGradient>
<linearGradient id="paint38_linear_1033_591283" x1="529.499" y1="543.502" x2="443.499" y2="572.002" gradientUnits="userSpaceOnUse">
<stop stop-color="#3F83F8"/>
<stop offset="1" stop-color="#233876"/>
</linearGradient>
<linearGradient id="paint39_linear_1033_591283" x1="508.999" y1="667.502" x2="447.499" y2="543.502" gradientUnits="userSpaceOnUse">
<stop stop-color="#1A56DB"/>
<stop offset="1" stop-color="#1C64F2"/>
</linearGradient>
<linearGradient id="paint40_linear_1033_591283" x1="503.999" y1="600.502" x2="410.499" y2="560.002" gradientUnits="userSpaceOnUse">
<stop stop-color="#3F83F8"/>
<stop offset="1" stop-color="#1E429F"/>
</linearGradient>
<linearGradient id="paint41_linear_1033_591283" x1="420.697" y1="388.542" x2="455.865" y2="517.665" gradientUnits="userSpaceOnUse">
<stop stop-color="#7EDCE2"/>
<stop offset="1" stop-color="#6875F5"/>
</linearGradient>
<linearGradient id="paint42_linear_1033_591283" x1="437.864" y1="438.057" x2="444.217" y2="456.796" gradientUnits="userSpaceOnUse">
<stop stop-color="#FFC444"/>
<stop offset="0.9964" stop-color="#F36F56"/>
</linearGradient>
<linearGradient id="paint43_linear_1033_591283" x1="517.916" y1="671.014" x2="524.27" y2="689.754" gradientUnits="userSpaceOnUse">
<stop stop-color="#FFC444"/>
<stop offset="0.9964" stop-color="#F36F56"/>
</linearGradient>
<linearGradient id="paint44_linear_1033_591283" x1="448.69" y1="462.413" x2="442.837" y2="439.196" gradientUnits="userSpaceOnUse">
<stop stop-color="#311944"/>
<stop offset="1" stop-color="#893976"/>
</linearGradient>
<linearGradient id="paint45_linear_1033_591283" x1="448.199" y1="444.83" x2="440.005" y2="438.197" gradientUnits="userSpaceOnUse">
<stop stop-color="#311944"/>
<stop offset="1" stop-color="#893976"/>
</linearGradient>
<linearGradient id="paint46_linear_1033_591283" x1="654.929" y1="784.464" x2="671.294" y2="810.841" gradientUnits="userSpaceOnUse">
<stop stop-color="#FFC444"/>
<stop offset="0.9964" stop-color="#F36F56"/>
</linearGradient>
<linearGradient id="paint47_linear_1033_591283" x1="397.004" y1="394.994" x2="432.172" y2="524.118" gradientUnits="userSpaceOnUse">
<stop stop-color="#31C48D"/>
<stop offset="1" stop-color="#5850EC"/>
</linearGradient>
<linearGradient id="paint48_linear_1033_591283" x1="404.901" y1="364.995" x2="441.639" y2="626.099" gradientUnits="userSpaceOnUse">
<stop stop-color="white"/>
<stop offset="0.9964" stop-color="#EBEFF2"/>
</linearGradient>
<clipPath id="clip0_1033_591283">
<rect width="704" height="704" fill="white"/>
</clipPath>
</defs>
</svg>
