<svg width="55" height="55" viewBox="0 0 55 55" fill="none" xmlns="http://www.w3.org/2000/svg">
<g clip-path="url(#clip0_2761_37128)">
<path d="M25.4893 22.6548H24.5054V23.6387V50.6387C24.5054 52.1152 25.7002 53.3101 27.1768 53.3101C28.6533 53.3101 29.8482 52.1152 29.8482 50.6387V23.6387V22.6548H28.8643H25.4893Z" fill="#1F2A37" stroke="white" stroke-width="1.9678"/>
<rect x="12.248" y="2.41016" width="29.8577" height="29.8591" rx="14.9289" stroke="white" stroke-width="3.48171"/>
<path d="M27.1759 2.41113C35.4211 2.41113 42.1048 9.09619 42.1048 17.34C42.1048 25.5838 35.4211 32.2702 27.1759 32.2702C18.9323 32.2717 12.2471 25.5836 12.2471 17.34C12.2471 9.09636 18.9321 2.41113 27.1759 2.41113Z" fill="#F05252"/>
<path d="M31.6545 9.87695C34.1282 9.87695 36.1332 11.8805 36.1332 14.3541C36.1332 16.8278 34.1283 18.8328 31.6545 18.8328C29.1824 18.8328 27.1758 16.828 27.1758 14.3541C27.176 11.8818 29.1824 9.87695 31.6545 9.87695Z" fill="#F8B4B4"/>
<path d="M28.6688 30.7789C20.4267 30.7789 13.74 24.0908 13.74 15.8471C13.74 12.1046 15.1269 8.69329 17.402 6.07324C14.249 8.8127 12.2471 12.839 12.2471 17.34C12.2471 25.5837 18.9321 32.2703 27.1759 32.2703C31.6785 32.2703 35.7048 30.2668 38.4427 27.1153C35.8227 29.3935 32.4114 30.7789 28.6688 30.7789Z" fill="#E02424"/>
</g>
<defs>
<clipPath id="clip0_2761_37128">
<rect width="54" height="54" fill="white" transform="translate(0.441406 0.441406)"/>
</clipPath>
</defs>
</svg>
