<svg width="300" height="301" viewBox="0 0 300 301" fill="none" xmlns="http://www.w3.org/2000/svg">
<g clip-path="url(#clip0_7537_146053)">
<path d="M177.272 173.229H122.726C115.195 173.229 109.09 179.335 109.09 186.865V286.865C109.09 294.396 115.195 300.502 122.726 300.502H177.272C184.803 300.502 190.908 294.396 190.908 286.865V186.865C190.908 179.335 184.803 173.229 177.272 173.229Z" fill="#A9A8AE"/>
<path d="M224.698 60.7074C222.135 57.1519 218.018 55.0449 213.636 55.0449H86.3631C81.9803 55.0449 77.8629 57.1519 75.3006 60.7074C72.7377 64.2629 72.0404 68.8338 73.4262 72.9928L91.6078 127.538C93.4653 133.108 98.676 136.863 104.545 136.863H195.455C201.324 136.863 206.535 133.108 208.391 127.538L226.573 72.9928C227.958 68.835 227.261 64.2641 224.698 60.7074Z" fill="#A9A8AE"/>
<path d="M279.071 115.017C276.494 111.6 272.463 109.592 268.184 109.592H31.8204C27.5413 109.592 23.5107 111.601 20.9331 115.017C18.3568 118.434 17.5329 122.86 18.7083 126.974L36.89 190.611C38.5628 196.465 43.9136 200.501 50.0021 200.501H250.002C256.09 200.501 261.441 196.465 263.114 190.611L281.296 126.974C282.472 122.861 281.648 118.434 279.071 115.017ZM136.366 136.864V173.228H109.093V136.864H136.366ZM49.8984 136.864H81.8202V173.228H60.2876L49.8984 136.864ZM190.911 173.228H163.639V136.864H190.911V173.228ZM239.717 173.228H218.184V136.864H250.106L239.717 173.228Z" fill="#FFB017"/>
<path d="M177.276 0.5H122.73C115.199 0.5 109.094 6.60547 109.094 14.1365C109.094 21.6676 115.199 27.773 122.73 27.773H177.276C184.807 27.773 190.912 21.6676 190.912 14.1365C190.912 6.60547 184.807 0.5 177.276 0.5Z" fill="#A9A8AE"/>
<path d="M109.094 200.5V286.864C109.094 294.395 115.199 300.5 122.73 300.5H150.912V200.5H109.094Z" fill="#A9A8AE"/>
<path d="M150.912 27.7734H136.367V55.0459H150.912V27.7734Z" fill="#A9A8AE"/>
<path d="M165.272 27.7734H150.727V55.0459H165.272V27.7734Z" fill="#A9A8AE"/>
<path d="M136.363 55.0449H86.3631C81.9803 55.0449 77.8629 57.1519 75.3006 60.7074C72.7377 64.2629 72.0404 68.8338 73.4262 72.9928L85.6254 109.59H150.909V82.2705V55.0449H136.363Z" fill="#A9A8AE"/>
<path d="M85.6277 109.592H31.8204C27.5413 109.592 23.5107 111.601 20.9331 115.017C18.3568 118.434 17.5329 122.86 18.7083 126.974L36.89 190.611C38.5628 196.465 43.9136 200.501 50.0021 200.501H109.093H150.911V173.228V136.864V109.592H85.6277ZM81.8202 173.228H60.2876L49.8978 136.864H81.8202V173.228ZM136.366 173.228H122.729H109.093V136.864H136.365V173.228H136.366Z" fill="#FFB017"/>
<path d="M150.909 0.546289V0.5H150C150.307 0.5 150.607 0.526367 150.909 0.546289Z" fill="#A9A8AE"/>
<path d="M150.003 0.5H122.73C115.199 0.5 109.094 6.60547 109.094 14.1365C109.094 21.6676 115.199 27.773 122.73 27.773H136.367H150.912V0.546289C150.61 0.526367 150.31 0.5 150.003 0.5Z" fill="#A9A8AE"/>
</g>
<defs>
<clipPath id="clip0_7537_146053">
<rect width="300" height="300" fill="white" transform="translate(0 0.5)"/>
</clipPath>
</defs>
</svg>
