<svg width="300" height="301" viewBox="0 0 300 301" fill="none" xmlns="http://www.w3.org/2000/svg">
<path fill-rule="evenodd" clip-rule="evenodd" d="M18.6484 90.9679V213.307C18.6484 226.821 31.7167 237.775 47.8372 237.775H252.159C268.28 237.775 281.348 226.821 281.348 213.307V90.9679C281.348 77.4547 268.28 66.5 252.159 66.5H47.8372C31.7167 66.5 18.6484 77.4547 18.6484 90.9679Z" stroke="#4B5563" stroke-width="12" stroke-linecap="round" stroke-linejoin="round"/>
<path d="M186 126.5H222" stroke="#FFB017" stroke-width="12" stroke-linecap="round"/>
<path d="M186 162.5H222" stroke="#FFB017" stroke-width="12" stroke-linecap="round"/>
<path fill-rule="evenodd" clip-rule="evenodd" d="M138 126.5C138 139.755 127.255 150.5 114 150.5C100.745 150.5 90 139.755 90 126.5C90 113.245 100.745 102.5 114 102.5C120.365 102.5 126.469 105.029 130.97 109.529C135.472 114.03 138 120.135 138 126.5Z" stroke="#FFB017" stroke-width="12" stroke-linecap="round" stroke-linejoin="round"/>
<path d="M66 198.499C99.396 160.855 138.624 172.687 162 198.499" stroke="#FFB017" stroke-width="12" stroke-linecap="round"/>
</svg>
