<svg width="300" height="301" viewBox="0 0 300 301" fill="none" xmlns="http://www.w3.org/2000/svg">
<path d="M150 31.5C215.721 31.5 269 84.7781 269 150.5C269 216.221 215.721 269.5 150 269.5C84.2781 269.5 31 216.221 31 150.5C31 84.7781 84.2781 31.5 150 31.5Z" stroke="#4B5563" stroke-width="12"/>
<path d="M200.379 112.621C204.04 116.282 204.04 122.218 200.379 125.879L137.879 188.379C134.217 192.04 128.282 192.04 124.621 188.379L99.6208 163.379C95.9597 159.717 95.9597 153.782 99.6208 150.121C103.282 146.46 109.218 146.46 112.879 150.121L131.25 168.491L159.185 140.556L187.121 112.621C190.782 108.96 196.717 108.96 200.379 112.621Z" fill="#FFB017"/>
</svg>
