<svg width="300" height="301" viewBox="0 0 300 301" fill="none" xmlns="http://www.w3.org/2000/svg">
<path d="M25 211.75C25 195.382 25 187.199 28.684 181.187C30.7454 177.824 33.5736 174.995 36.9375 172.934C42.9492 169.25 51.1329 169.25 67.5 169.25H81.25C104.82 169.25 116.605 169.25 123.928 176.573C131.25 183.895 131.25 195.68 131.25 219.25V233C131.25 249.367 131.25 257.551 127.566 263.562C125.505 266.926 122.676 269.755 119.312 271.816C113.301 275.5 105.117 275.5 88.75 275.5C64.1992 275.5 51.9239 275.5 42.9062 269.974C37.8605 266.882 33.6181 262.64 30.526 257.594C25 248.576 25 236.301 25 211.75Z" stroke="#FFB017" stroke-width="18.75"/>
<path d="M168.75 68C168.75 51.6329 168.75 43.4492 172.434 37.4375C174.495 34.0736 177.324 31.2454 180.687 29.184C186.699 25.5 194.882 25.5 211.25 25.5C235.801 25.5 248.076 25.5 257.094 31.026C262.14 34.1181 266.382 38.3605 269.474 43.4062C275 52.4239 275 64.6992 275 89.25C275 105.617 275 113.801 271.316 119.812C269.255 123.176 266.426 126.005 263.062 128.066C257.051 131.75 248.867 131.75 232.5 131.75H218.75C195.18 131.75 183.395 131.75 176.073 124.428C168.75 117.105 168.75 105.32 168.75 81.75V68Z" stroke="#FFB017" stroke-width="18.75"/>
<path d="M206.25 78.625C206.25 72.1824 206.25 68.9611 207.864 66.6866C208.434 65.884 209.134 65.1832 209.936 64.6139C212.211 63 215.432 63 221.875 63C228.317 63 231.539 63 233.814 64.6139C234.616 65.1832 235.316 65.884 235.886 66.6866C237.5 68.9611 237.5 72.1824 237.5 78.625C237.5 85.0676 237.5 88.2889 235.886 90.5634C235.316 91.366 234.616 92.0667 233.814 92.6361C231.539 94.25 228.317 94.25 221.875 94.25C215.432 94.25 212.211 94.25 209.936 92.6361C209.134 92.0667 208.434 91.366 207.864 90.5634C206.25 88.2889 206.25 85.0676 206.25 78.625Z" fill="#A9A8AE"/>
<path d="M237.5 169.25H212.5C194.944 169.25 186.166 169.25 179.861 173.464C177.131 175.288 174.788 177.631 172.964 180.361C168.75 186.666 168.75 195.444 168.75 213" stroke="#FFB017" stroke-width="18.75"/>
<path d="M159.375 275.5C159.375 280.677 163.572 284.875 168.75 284.875C173.927 284.875 178.125 280.677 178.125 275.5H159.375ZM159.375 238V275.5H178.125V238H159.375Z" fill="#A9A8AE"/>
<path d="M212.5 275.5H237.5C249.149 275.5 254.972 275.5 259.567 273.597C265.692 271.06 270.56 266.192 273.097 260.067C275 255.472 275 249.649 275 238" stroke="#FFB017" stroke-width="18.75" stroke-linejoin="round"/>
<path d="M284.375 169.25C284.375 164.072 280.177 159.875 275 159.875C269.822 159.875 265.625 164.072 265.625 169.25H284.375ZM284.375 213V169.25H265.625V213H284.375Z" fill="#A9A8AE"/>
<path d="M25 89.25C25 64.6992 25 52.4239 30.526 43.4062C33.6181 38.3605 37.8605 34.1181 42.9062 31.026C51.9239 25.5 64.1992 25.5 88.75 25.5C105.117 25.5 113.301 25.5 119.312 29.184C122.676 31.2454 125.505 34.0736 127.566 37.4375C131.25 43.4492 131.25 51.6329 131.25 68V81.75C131.25 105.32 131.25 117.105 123.928 124.428C116.605 131.75 104.82 131.75 81.25 131.75H67.5C51.1329 131.75 42.9492 131.75 36.9375 128.066C33.5736 126.005 30.7454 123.176 28.684 119.812C25 113.801 25 105.617 25 89.25Z" stroke="#FFB017" stroke-width="18.75"/>
<path d="M62.5 78.625C62.5 72.1824 62.5 68.9611 64.1139 66.6866C64.6832 65.884 65.384 65.1832 66.1866 64.6139C68.4611 63 71.6824 63 78.125 63C84.5676 63 87.7889 63 90.0634 64.6139C90.866 65.1832 91.5667 65.884 92.1361 66.6866C93.75 68.9611 93.75 72.1824 93.75 78.625C93.75 85.0676 93.75 88.2889 92.1361 90.5634C91.5667 91.366 90.866 92.0667 90.0634 92.6361C87.7889 94.25 84.5676 94.25 78.125 94.25C71.6824 94.25 68.4611 94.25 66.1866 92.6361C65.384 92.0667 64.6832 91.366 64.1139 90.5634C62.5 88.2889 62.5 85.0676 62.5 78.625Z" fill="#A9A8AE"/>
<path d="M62.5 222.375C62.5 215.932 62.5 212.711 64.1139 210.436C64.6832 209.634 65.384 208.934 66.1866 208.364C68.4611 206.75 71.6824 206.75 78.125 206.75C84.5676 206.75 87.7889 206.75 90.0634 208.364C90.866 208.934 91.5667 209.634 92.1361 210.436C93.75 212.711 93.75 215.932 93.75 222.375C93.75 228.817 93.75 232.039 92.1361 234.314C91.5667 235.116 90.866 235.816 90.0634 236.386C87.7889 238 84.5676 238 78.125 238C71.6824 238 68.4611 238 66.1866 236.386C65.384 235.816 64.6832 235.116 64.1139 234.314C62.5 232.039 62.5 228.817 62.5 222.375Z" fill="#A9A8AE"/>
<path d="M200 222.375C200 213.597 200 209.209 202.106 206.055C203.019 204.69 204.19 203.519 205.555 202.606C208.709 200.5 213.097 200.5 221.875 200.5C230.653 200.5 235.041 200.5 238.195 202.606C239.56 203.519 240.731 204.69 241.644 206.055C243.75 209.209 243.75 213.597 243.75 222.375C243.75 231.153 243.75 235.541 241.644 238.695C240.731 240.06 239.56 241.231 238.195 242.144C235.041 244.25 230.653 244.25 221.875 244.25C213.097 244.25 208.709 244.25 205.555 242.144C204.19 241.231 203.019 240.06 202.106 238.695C200 235.541 200 231.153 200 222.375Z" fill="#A9A8AE"/>
</svg>
