<svg width="45" height="45" viewBox="0 0 45 45" fill="none" xmlns="http://www.w3.org/2000/svg">
<path d="M24.4767 9.27293C23.7519 7.31403 20.9812 7.31404 20.2564 9.27293L17.311 17.2328C17.235 17.4381 17.0732 17.5999 16.8679 17.6759L8.90803 20.6213C6.94913 21.3461 6.94915 24.1168 8.90803 24.8416L16.8679 27.787C17.0732 27.863 17.235 28.0248 17.311 28.2301L20.2564 36.19C20.9812 38.1489 23.7519 38.1488 24.4767 36.19L27.4221 28.2301C27.4981 28.0248 27.6599 27.863 27.8652 27.787L35.8251 24.8416C37.784 24.1168 37.7839 21.3461 35.8251 20.6213L27.8652 17.6759C27.6599 17.5999 27.4981 17.4381 27.4221 17.2328L24.4767 9.27293Z" fill="#1C64F2" stroke="white" stroke-width="1.5"/>
<path d="M23.2991 17.1244L23.1514 25.4141L21.5775 25.4141L21.4298 17.1244L23.2991 17.1244ZM22.3673 28.8687C22.0529 28.8687 21.7839 28.7588 21.5605 28.5391C21.337 28.3157 21.2271 28.0467 21.2309 27.7323C21.2271 27.4217 21.337 27.1566 21.5605 26.9369C21.7839 26.7134 22.0529 26.6016 22.3673 26.6016C22.6741 26.6016 22.9393 26.7134 23.1627 26.9369C23.3862 27.1566 23.4999 27.4217 23.5036 27.7323C23.4999 27.9407 23.4449 28.132 23.3389 28.3062C23.2366 28.4766 23.1002 28.613 22.9298 28.7153C22.7593 28.8176 22.5718 28.8687 22.3673 28.8687Z" fill="white"/>
</svg>
