<svg width="429" height="364" viewBox="0 0 429 364" fill="none" xmlns="http://www.w3.org/2000/svg">
    <path d="M228.073 5.27385C223.025 3.03776 216.526 0.158911 213.075 0.0596313L103.452 43.9537C98.514 42.9378 93.4588 41.9938 88.3475 41.0393C57.6405 35.3051 24.9105 29.1932 3.52062 4.84424C-3.62885 30.3866 1.67865 57.0709 14.3391 79.9295C18.5029 87.4466 23.6162 94.3399 29.6687 100.37C22.1122 117.474 11.553 148.925 10.81 167.63C1.69 428.83 426.658 428.832 417.54 167.626C415.71 144.25 408.214 121.629 398.681 100.367C418.239 78.4794 429.429 49.86 428.09 20.2273C427.907 15.7957 427.429 11.382 426.658 7.01628C425.731 7.73286 424.802 8.45575 423.87 9.18087C416.961 14.5581 409.895 20.0581 402.14 24.019C384.944 32.8028 360.055 37.8905 341.177 41.6585C340.183 41.8569 339.13 42.0957 338.043 42.3421C334.243 43.2039 330.034 44.1582 326.515 43.7987C321.4 43.276 305.14 36.3619 294.409 31.7991C291.341 30.4944 288.724 29.3819 286.95 28.6661L232.447 7.15949C231.257 6.68426 229.745 6.0143 228.073 5.27385Z" fill="#072444"/>
    <path d="M334.241 101.496L336.969 101.489C345.708 105.643 359.872 134.039 363.296 143.015C373.352 168.649 372.7 197.319 361.489 222.458C342.557 265.578 299.218 287.412 258.504 304.726C243.514 311.175 228.399 317.324 213.169 323.169C175.267 307.374 137.039 293.374 103.595 268.694L102.931 268.182C79.0968 249.656 59.6659 224.791 55.7523 193.746C51.089 156.761 69.6675 129.71 90.7685 102.303C94.5785 102.231 98.3904 102.211 102.201 102.242C143.289 102.493 184.528 114.094 214.033 144.354C245.621 113.854 291.779 102.732 334.241 101.496Z" fill="#FEFEFE"/>
    <path d="M125.875 125.853C155.346 122.613 181.845 144.146 185.104 173.981C188.364 203.817 167.152 230.693 137.693 234.052C108.149 237.423 81.5139 215.87 78.2454 185.948C74.9768 156.027 96.317 129.102 125.875 125.853Z" fill="#072444"/>
    <path d="M125.865 134.502C150.517 131.059 173.281 148.44 176.791 173.386C180.3 198.332 163.236 221.458 138.615 225.123C113.84 228.811 90.8246 211.399 87.2928 186.296C83.7601 161.193 101.058 137.967 125.865 134.502Z" fill="#FAB55E"/>
    <path d="M130.082 150.816C145.944 149.546 159.864 161.433 161.303 177.48C162.741 193.526 151.163 207.757 135.334 209.4C124.929 210.481 114.755 205.814 108.694 197.182C102.634 188.551 101.624 177.286 106.05 167.691C110.476 158.096 119.655 151.65 130.082 150.816Z" fill="#072444"/>
    <path d="M121.374 160.563C126.051 160.023 130.27 163.44 130.778 168.179C131.286 172.919 127.889 177.172 123.205 177.662C118.557 178.147 114.395 174.739 113.891 170.035C113.387 165.331 116.731 161.098 121.374 160.563Z" fill="#FEFEFE"/>
    <path d="M290.079 126.849C319.298 124.267 345.014 146.247 347.405 175.847C349.795 205.446 327.947 231.365 298.702 233.624C269.683 235.865 244.324 213.95 241.952 184.578C239.58 155.207 261.085 129.411 290.079 126.849Z" fill="#072444"/>
    <path d="M289.632 135.474C313.947 132.756 335.797 150.604 338.315 175.242C340.833 199.878 323.058 221.88 298.71 224.263C274.596 226.622 253.12 208.833 250.626 184.433C248.131 160.032 265.552 138.166 289.632 135.474Z" fill="#FAB55E"/>
    <path d="M291.078 151.538C306.456 149.776 320.355 160.912 322.197 176.471C324.039 192.03 313.134 206.178 297.781 208.147C282.281 210.134 268.149 198.964 266.289 183.258C264.429 167.552 275.555 153.316 291.078 151.538Z" fill="#072444"/>
    <path d="M303.691 160.723C308.019 159.696 312.356 162.392 313.412 166.765C314.467 171.138 311.846 175.555 307.538 176.665C303.171 177.791 298.736 175.093 297.666 170.661C296.597 166.229 299.303 161.764 303.691 160.723Z" fill="#FEFEFE"/>
    <path d="M214.299 203.744C216.887 206.615 218.514 211.463 220.693 214.807C227.032 224.531 235.707 232.043 244.828 238.968C235.799 262.124 224.054 284.021 213.779 306.585L213.362 306.643C206.379 291.969 199.52 277.234 192.784 262.441C189.426 254.964 185.083 246.983 183.448 238.948C195.763 228.319 205.375 217.385 214.299 203.744Z" fill="#072444"/>
    <path d="M219.197 231.119C222.528 234.184 225.545 239.461 228.366 243.097C226.852 249.905 224.275 256.517 221.891 263.05L219.166 271.24C218.851 257.816 218.72 244.546 219.197 231.119Z" fill="#FEFEFE"/>
    <path d="M342.808 101.743C354.892 102.714 368.487 103.533 380.121 107.189C398.515 135.338 404.28 178.242 397.643 211.135C389.264 252.653 363.015 284.859 328.716 307.717C300.211 326.713 268.712 338.296 235.651 346.182C225.245 348.665 215.819 351.871 205.105 349.644C199.437 348.466 193.11 347.166 187.74 345.022C189.822 344.336 193.685 345.722 195.885 346.193C198.225 342.898 196.811 328.102 196.325 323.776C195.574 317.086 190.323 319.837 186.132 316.154C185.913 315.961 185.705 315.755 185.491 315.555C195.096 318.788 204.388 323.294 214.101 326.125L214.73 325.814C225.865 320.371 238.015 316.455 249.488 311.713C260.369 307.215 271.5 302.858 282.11 297.755C317.814 280.582 353.76 254.69 367.657 215.63C377.061 189.198 374.302 157.908 362.41 132.717C357.257 121.8 350.251 111.213 342.808 101.743Z" fill="#247198"/>
    <path d="M45.3828 107.824C58.3579 104.863 71.9799 103.854 85.2136 102.662C73.75 114.697 64.2694 129.755 57.8248 145.195C48.3721 167.841 47.4535 194.169 56.6737 217.02C78.5431 271.223 135.981 294.71 185.491 315.555C185.705 315.755 185.913 315.961 186.132 316.154C190.323 319.837 195.574 317.086 196.325 323.776C196.811 328.102 198.225 342.898 195.885 346.193C193.685 345.722 189.822 344.336 187.74 345.022C183.375 344.586 178.406 342.696 174.163 341.462C149.728 334.606 126.314 324.454 104.55 311.28C70.2761 290.155 38.7533 257.166 29.169 216.636C21.9075 185.924 27.3112 154.418 38.1063 125.299C40.2144 119.613 42.2356 112.98 45.3828 107.824Z" fill="url(#paint0_linear_15_30)"/>
    <path d="M117.747 55.4913C132.707 50.7165 147.26 44.3819 161.859 38.5806C178.942 31.7913 196.111 25.3433 213.079 18.2488L213.132 25.7754C213.227 25.471 213.328 25.1685 213.418 24.8631C213.773 23.6645 213.628 23.0311 213.491 21.8183C213.434 21.3182 213.417 20.8153 213.383 20.3133L214.326 19.7169L214.457 58.9681C214.43 67.3511 213.955 76.0367 214.568 84.3895C214.672 96.2115 214.031 108.111 214.462 119.914L213.155 120.075C209.368 116.264 206.08 111.965 202.229 108.171C174.708 81.044 153.236 69.3647 117.747 55.4913Z" fill="#D76F46"/>
    <path d="M213.132 25.7754C213.227 25.471 213.328 25.1685 213.419 24.8631C213.774 23.6645 213.629 23.0311 213.492 21.8183C213.435 21.3182 213.417 20.8153 213.383 20.3133L214.326 19.7169L214.458 58.9681C214.431 67.3511 213.956 76.0367 214.568 84.3895C214.673 96.2115 214.031 108.111 214.462 119.914L213.155 120.075C212.629 106.789 213.082 93.3406 213.127 80.042L213.132 25.7754Z" fill="#0A0406"/>
    <path d="M214.919 18.8122C225.191 22.4706 235.222 26.7746 245.408 30.6702C266.079 38.3499 286.628 46.3605 307.049 54.6981C277.511 65.5097 250.583 81.3824 228.209 103.875C223.229 108.883 219.394 114.983 214.462 119.914C214.031 108.111 214.672 96.2115 214.568 84.3895C215.595 62.6785 214.853 40.5752 214.919 18.8122Z" fill="#FAB55E"/>
    <path d="M417.445 26.5807C417.484 27.3351 417.545 27.2604 417.4 27.8626C408.52 64.7014 358.062 68.3579 327.704 73.1837C316.951 74.8352 306.309 77.1682 295.845 80.1686C273.732 86.5911 241.376 102.622 222.409 115.416C222.693 113.23 233.017 103.362 235.266 101.219C250.657 86.5552 270.043 74.4325 289.817 66.9825C300.568 63.0481 311.546 59.782 322.689 57.2004C348.891 51.2307 397.537 45.107 417.445 26.5807Z" fill="#5BA9CA"/>
    <path d="M12.2243 27.2557C36.3278 43.2882 54.7495 46.4692 81.7883 52.2309C125.479 61.5394 159.422 72.4029 192.887 103.959L191.989 104.931L189.686 104.853C163.233 90.0774 133.324 79.8728 103.679 74.2028C82.3923 70.1304 59.4035 68.4572 39.545 59.0022C23.757 51.485 18.0537 43.5132 12.2243 27.2557Z" fill="#5BA9CA"/>
    <path d="M410.304 47.3814C410.295 49.428 409.151 51.8225 408.457 53.7349C403.304 67.9325 394.02 79.6695 384.453 91.0426C368.536 89.0073 352.717 86.7697 336.659 86.351C308.304 85.6108 274.328 91.4235 248.764 104.123C247.941 104.53 247.226 104.78 246.331 104.982L246.194 104.694C249.841 103.255 252.808 101.102 256.317 99.4171C268.923 93.3661 281.377 87.2623 294.763 83.1615C325.392 73.7783 371.193 73.2641 397.656 57.8489C402.51 55.0205 406.377 51.3867 410.304 47.3814Z" fill="#5BA9CA"/>
    <path d="M14.7274 39.9938C17.7616 44.5663 20.7949 48.859 24.9783 52.4512C47.5918 71.8679 87.7354 72.748 115.907 79.334C136.468 84.2345 156.523 91.1021 175.798 99.8463L175.692 100.859C166.172 96.2465 155.638 93.7226 145.347 91.6003C111.258 84.5729 79.5888 85.6137 45.2942 90.5208C30.4435 75.9809 20.8051 59.8955 14.7274 39.9938Z" fill="#247198"/>
    <path d="M192.887 103.959C195.966 106.553 198.799 109.43 201.674 112.251C197.452 110.114 193.802 107.118 189.686 104.853L191.989 104.931L192.887 103.959Z" fill="#247198"/>
    <path d="M175.798 99.8463C181.119 101.928 186.759 103.974 191.687 106.883C186.109 105.773 180.875 103.165 175.692 100.859L175.798 99.8463Z" fill="#247198"/>
    <defs>
    <linearGradient id="paint0_linear_15_30" x1="180.993" y1="218.087" x2="32.6219" y2="239.585" gradientUnits="userSpaceOnUse">
    <stop stop-color="#4593B7"/>
    <stop offset="1" stop-color="#6AB0CD"/>
    </linearGradient>
    </defs>
    </svg>
    