<svg width="1052" height="256" viewBox="0 0 1052 256" fill="none" xmlns="http://www.w3.org/2000/svg">
    <path d="M160.418 3.67248C156.862 2.09756 152.285 0.0699248 149.855 0L72.6445 30.9155C69.1668 30.2 65.6063 29.5351 62.0064 28.8629C40.3788 24.8241 17.3263 20.5194 2.26101 3.3699C-2.77451 21.3599 0.963666 40.1542 9.8807 56.254C12.8134 61.5485 16.4148 66.4035 20.6777 70.6507C15.3555 82.6977 7.91835 104.849 7.39507 118.023C0.971663 301.992 300.285 301.993 293.864 118.021C292.575 101.557 287.295 85.6239 280.581 70.6487C294.356 55.2327 302.237 35.0755 301.294 14.2045C301.165 11.0832 300.828 7.97459 300.285 4.89971C299.632 5.40442 298.978 5.91356 298.322 6.42428C293.456 10.2116 288.479 14.0854 283.017 16.8751C270.905 23.0617 253.376 26.6451 240.08 29.2989C239.379 29.4387 238.637 29.6069 237.872 29.7804C235.195 30.3874 232.231 31.0595 229.753 30.8063C226.15 30.4382 214.698 25.5684 207.14 22.3548C204.979 21.4358 203.136 20.6523 201.886 20.1481L163.499 5.00058C162.661 4.66587 161.595 4.194 160.418 3.67248Z" fill="#072444"></path>
    <path d="M235.195 71.4438L237.116 71.4391C243.271 74.3646 253.247 94.3647 255.658 100.686C262.741 118.741 262.282 138.934 254.386 156.64C241.051 187.01 210.527 202.389 181.851 214.583C171.293 219.125 160.648 223.456 149.921 227.573C123.226 216.448 96.3011 206.587 72.7457 189.205L72.2781 188.844C55.4909 175.796 41.8053 158.283 39.0489 136.418C35.7644 110.368 48.8496 91.3153 63.7116 72.0123C66.395 71.9617 69.0798 71.9478 71.7639 71.9691C100.703 72.1462 129.749 80.3169 150.529 101.629C172.777 80.1478 205.287 72.3146 235.195 71.4438Z" fill="#FEFEFE"></path>
    <path d="M88.4374 88.5989C109.195 86.3171 127.859 101.483 130.154 122.497C132.45 143.511 117.51 162.44 96.7613 164.806C75.9532 167.18 57.1933 152 54.8912 130.925C52.5891 109.851 67.6194 90.8872 88.4374 88.5989Z" fill="#072444"></path>
    <path d="M88.4309 94.6908C105.793 92.2653 121.827 104.507 124.299 122.077C126.771 139.647 114.752 155.935 97.411 158.517C79.961 161.114 63.7511 148.851 61.2636 131.17C58.7754 113.49 70.9585 97.131 88.4309 94.6908Z" fill="#FAB55E"></path>
    <path d="M91.4005 106.181C102.573 105.287 112.377 113.659 113.39 124.961C114.404 136.262 106.249 146.286 95.0999 147.443C87.7715 148.204 80.6055 144.917 76.3367 138.838C72.0685 132.758 71.3571 124.825 74.4745 118.067C77.592 111.308 84.057 106.769 91.4005 106.181Z" fill="#072444"></path>
    <path d="M85.2673 113.046C88.5616 112.666 91.5331 115.072 91.8908 118.41C92.2485 121.748 89.8563 124.744 86.5574 125.089C83.2834 125.43 80.3521 123.03 79.997 119.717C79.6419 116.404 81.9973 113.423 85.2673 113.046Z" fill="#FEFEFE"></path>
    <path d="M204.09 89.3005C224.67 87.4815 242.782 102.963 244.466 123.81C246.149 144.658 230.761 162.913 210.164 164.504C189.724 166.083 171.864 150.648 170.193 129.96C168.522 109.273 183.669 91.1048 204.09 89.3005Z" fill="#072444"></path>
    <path d="M203.776 95.3754C220.901 93.4612 236.29 106.032 238.063 123.384C239.838 140.737 227.318 156.233 210.169 157.911C193.185 159.573 178.059 147.044 176.302 129.858C174.545 112.672 186.815 97.2716 203.776 95.3754Z" fill="#FAB55E"></path>
    <path d="M204.793 106.689C215.625 105.448 225.414 113.292 226.712 124.251C228.009 135.209 220.328 145.173 209.515 146.56C198.598 147.96 188.644 140.093 187.334 129.03C186.024 117.969 193.86 107.942 204.793 106.689Z" fill="#072444"></path>
    <path d="M213.677 113.159C216.725 112.435 219.78 114.334 220.524 117.414C221.267 120.494 219.421 123.605 216.387 124.387C213.311 125.18 210.187 123.28 209.434 120.158C208.681 117.037 210.586 113.892 213.677 113.159Z" fill="#FEFEFE"></path>
    <path d="M150.717 143.459C152.539 145.481 153.685 148.896 155.22 151.251C159.685 158.1 165.795 163.39 172.219 168.268C165.86 184.578 157.587 200 150.35 215.892L150.057 215.933C145.139 205.598 140.308 195.22 135.563 184.801C133.198 179.534 130.139 173.913 128.988 168.254C137.662 160.768 144.432 153.067 150.717 143.459Z" fill="#072444"></path>
    <path d="M154.167 162.74C156.512 164.899 158.637 168.616 160.624 171.176C159.558 175.971 157.743 180.628 156.064 185.23L154.144 190.998C153.923 181.543 153.831 172.197 154.167 162.74Z" fill="#FEFEFE"></path>
    <path d="M241.228 71.6174C249.74 72.3018 259.315 72.8784 267.508 75.4537C280.464 95.2794 284.525 125.498 279.849 148.665C273.949 177.907 255.46 200.59 231.303 216.689C211.226 230.069 189.041 238.227 165.755 243.781C158.426 245.53 151.787 247.788 144.241 246.22C140.249 245.39 135.793 244.475 132.01 242.964C133.477 242.481 136.198 243.457 137.747 243.789C139.395 241.468 138.399 231.047 138.057 228C137.528 223.288 133.83 225.226 130.878 222.632C130.724 222.496 130.577 222.351 130.426 222.21C137.191 224.487 143.736 227.66 150.577 229.654L151.02 229.435C158.863 225.602 167.42 222.844 175.501 219.504C183.165 216.336 191.005 213.267 198.478 209.673C223.624 197.578 248.942 179.342 258.73 151.831C265.354 133.214 263.41 111.176 255.034 93.4331C251.405 85.7444 246.471 78.2874 241.228 71.6174Z" fill="#247198"></path>
    <path d="M31.7454 75.9006C40.8841 73.8153 50.4784 73.1049 59.7991 72.2653C51.7251 80.7417 45.0476 91.3472 40.5086 102.222C33.8509 118.172 33.2039 136.715 39.6978 152.81C55.1009 190.986 95.5554 207.529 130.427 222.21C130.577 222.351 130.724 222.496 130.878 222.632C133.83 225.226 137.528 223.288 138.057 228C138.399 231.047 139.396 241.469 137.747 243.789C136.198 243.457 133.477 242.481 132.011 242.964C128.937 242.657 125.436 241.326 122.448 240.457C105.238 235.628 88.7471 228.478 73.4183 219.199C49.2783 204.32 27.0762 181.086 20.3257 152.539C15.2113 130.908 19.0172 108.718 26.6205 88.2086C28.1052 84.2038 29.5288 79.5319 31.7454 75.9006Z" fill="url(#paint0_linear_2005_28)"></path>
    <path d="M82.7127 39.0416C93.2499 35.6787 103.5 31.2171 113.782 27.1311C125.814 22.3493 137.906 17.8078 149.857 12.811L149.895 18.1121C149.962 17.8977 150.033 17.6847 150.096 17.4696C150.346 16.6254 150.244 16.1793 150.148 15.325C150.108 14.9728 150.095 14.6186 150.071 14.2651L150.736 13.845L150.828 41.4905C150.809 47.3948 150.475 53.5122 150.906 59.3952C150.98 67.7218 150.528 76.1029 150.832 84.4161L149.911 84.5293C147.243 81.8448 144.928 78.8174 142.216 76.1449C122.832 57.039 107.709 48.813 82.7127 39.0416Z" fill="#D76F46"></path>
    <path d="M149.895 18.1121C149.962 17.8977 150.033 17.6847 150.097 17.4696C150.347 16.6254 150.245 16.1793 150.148 15.3251C150.108 14.9728 150.095 14.6186 150.072 14.2651L150.736 13.845L150.829 41.4905C150.809 47.3948 150.475 53.5122 150.906 59.3952C150.98 67.7218 150.528 76.1029 150.832 84.4161L149.911 84.5293C149.54 75.1715 149.859 65.6997 149.892 56.3332L149.895 18.1121Z" fill="#0A0406"></path>
    <path d="M151.153 13.2078C158.388 15.7845 165.453 18.8159 172.627 21.5597C187.186 26.9686 201.659 32.6107 216.043 38.4831C195.238 46.0978 176.272 57.2774 160.514 73.1195C157.006 76.6462 154.305 80.9427 150.831 84.4162C150.528 76.1029 150.979 67.7218 150.906 59.3953C151.63 44.1038 151.107 28.5359 151.153 13.2078Z" fill="#FAB55E"></path>
    <path d="M293.796 18.6794C293.824 19.2107 293.867 19.1581 293.765 19.5822C287.511 45.5286 251.972 48.1039 230.59 51.5028C223.016 52.666 215.522 54.3092 208.151 56.4225C192.576 60.9459 169.788 72.2366 156.429 81.2483C156.629 79.7083 163.9 72.7579 165.484 71.2486C176.324 60.9206 189.978 52.3824 203.905 47.1352C211.478 44.3641 219.21 42.0637 227.058 40.2454C245.512 36.0409 279.775 31.7278 293.796 18.6794Z" fill="#5BA9CA"></path>
    <path d="M8.39117 19.1548C25.3678 30.4468 38.3426 32.6872 57.3865 36.7453C88.1585 43.3015 112.066 50.9529 135.636 73.1787L135.003 73.8632L133.382 73.8079C114.75 63.4014 93.6839 56.2141 72.8047 52.2206C57.812 49.3523 41.6205 48.1738 27.6337 41.5145C16.5139 36.22 12.4969 30.6053 8.39117 19.1548Z" fill="#5BA9CA"></path>
    <path d="M288.767 33.3297C288.761 34.7712 287.955 36.4577 287.466 37.8046C283.837 47.8043 277.298 56.0709 270.56 64.0812C259.349 62.6477 248.208 61.0717 236.897 60.7768C216.927 60.2555 192.996 64.3495 174.991 73.2939C174.411 73.5809 173.908 73.7566 173.278 73.8991L173.181 73.696C175.749 72.6827 177.839 71.166 180.311 69.9795C189.189 65.7177 197.961 61.4186 207.389 58.5304C228.962 51.9216 261.22 51.5594 279.859 40.7022C283.278 38.7101 286.001 36.1507 288.767 33.3297Z" fill="#5BA9CA"></path>
    <path d="M10.1542 28.1265C12.2912 31.347 14.4276 34.3704 17.3741 36.9005C33.3012 50.5761 61.5752 51.1959 81.4174 55.8346C95.8986 59.2861 110.023 64.1232 123.6 70.2819L123.525 70.9949C116.82 67.7465 109.401 65.9688 102.152 64.4741C78.1428 59.5245 55.8374 60.2575 31.683 63.7137C21.2234 53.473 14.4348 42.1437 10.1542 28.1265Z" fill="#247198"></path>
    <path d="M135.636 73.1787C137.804 75.0057 139.8 77.0317 141.824 79.0185C138.851 77.5138 136.28 75.4032 133.381 73.8079L135.003 73.8632L135.636 73.1787Z" fill="#247198"></path>
    <path d="M123.6 70.2818C127.347 71.7479 131.319 73.1894 134.791 75.238C130.862 74.4564 127.176 72.6194 123.525 70.9949L123.6 70.2818Z" fill="#247198"></path>
    <path d="M335.182 82.9091H355.818L383.455 150.364H384.545L412.182 82.9091H432.818V176H416.636V112.045H415.773L390.045 175.727H377.955L352.227 111.909H351.364V176H335.182V82.9091ZM480.909 177.364C474.091 177.364 468.182 175.864 463.182 172.864C458.182 169.864 454.303 165.667 451.545 160.273C448.818 154.879 447.455 148.576 447.455 141.364C447.455 134.152 448.818 127.833 451.545 122.409C454.303 116.985 458.182 112.773 463.182 109.773C468.182 106.773 474.091 105.273 480.909 105.273C487.727 105.273 493.636 106.773 498.636 109.773C503.636 112.773 507.5 116.985 510.227 122.409C512.985 127.833 514.364 134.152 514.364 141.364C514.364 148.576 512.985 154.879 510.227 160.273C507.5 165.667 503.636 169.864 498.636 172.864C493.636 175.864 487.727 177.364 480.909 177.364ZM481 164.182C484.697 164.182 487.788 163.167 490.273 161.136C492.758 159.076 494.606 156.318 495.818 152.864C497.061 149.409 497.682 145.561 497.682 141.318C497.682 137.045 497.061 133.182 495.818 129.727C494.606 126.242 492.758 123.47 490.273 121.409C487.788 119.348 484.697 118.318 481 118.318C477.212 118.318 474.061 119.348 471.545 121.409C469.061 123.47 467.197 126.242 465.955 129.727C464.742 133.182 464.136 137.045 464.136 141.318C464.136 145.561 464.742 149.409 465.955 152.864C467.197 156.318 469.061 159.076 471.545 161.136C474.061 163.167 477.212 164.182 481 164.182ZM554.239 177.227C548.754 177.227 543.845 175.818 539.511 173C535.178 170.182 531.754 166.091 529.239 160.727C526.723 155.364 525.466 148.848 525.466 141.182C525.466 133.424 526.739 126.879 529.284 121.545C531.86 116.182 535.33 112.136 539.693 109.409C544.057 106.652 548.92 105.273 554.284 105.273C558.375 105.273 561.739 105.97 564.375 107.364C567.011 108.727 569.102 110.379 570.648 112.318C572.193 114.227 573.39 116.03 574.239 117.727H574.92V82.9091H591.42V176H575.239V165H574.239C573.39 166.697 572.163 168.5 570.557 170.409C568.951 172.288 566.83 173.894 564.193 175.227C561.557 176.561 558.239 177.227 554.239 177.227ZM558.83 163.727C562.314 163.727 565.284 162.788 567.739 160.909C570.193 159 572.057 156.348 573.33 152.955C574.602 149.561 575.239 145.606 575.239 141.091C575.239 136.576 574.602 132.652 573.33 129.318C572.087 125.985 570.239 123.394 567.784 121.545C565.36 119.697 562.375 118.773 558.83 118.773C555.163 118.773 552.102 119.727 549.648 121.636C547.193 123.545 545.345 126.182 544.102 129.545C542.86 132.909 542.239 136.758 542.239 141.091C542.239 145.455 542.86 149.348 544.102 152.773C545.375 156.167 547.239 158.848 549.693 160.818C552.178 162.758 555.223 163.727 558.83 163.727ZM653.455 146.636V106.182H669.909V176H653.955V163.591H653.227C651.652 167.5 649.061 170.697 645.455 173.182C641.879 175.667 637.47 176.909 632.227 176.909C627.652 176.909 623.606 175.894 620.091 173.864C616.606 171.803 613.879 168.818 611.909 164.909C609.939 160.97 608.955 156.212 608.955 150.636V106.182H625.409V148.091C625.409 152.515 626.621 156.03 629.045 158.636C631.47 161.242 634.652 162.545 638.591 162.545C641.015 162.545 643.364 161.955 645.636 160.773C647.909 159.591 649.773 157.833 651.227 155.5C652.712 153.136 653.455 150.182 653.455 146.636ZM703.284 82.9091V176H686.83V82.9091H703.284ZM740.295 177.409C735.871 177.409 731.886 176.621 728.341 175.045C724.826 173.439 722.038 171.076 719.977 167.955C717.947 164.833 716.932 160.985 716.932 156.409C716.932 152.47 717.659 149.212 719.114 146.636C720.568 144.061 722.553 142 725.068 140.455C727.583 138.909 730.417 137.742 733.568 136.955C736.75 136.136 740.038 135.545 743.432 135.182C747.523 134.758 750.841 134.379 753.386 134.045C755.932 133.682 757.78 133.136 758.932 132.409C760.114 131.652 760.705 130.485 760.705 128.909V128.636C760.705 125.212 759.689 122.561 757.659 120.682C755.629 118.803 752.705 117.864 748.886 117.864C744.856 117.864 741.659 118.742 739.295 120.5C736.962 122.258 735.386 124.333 734.568 126.727L719.205 124.545C720.417 120.303 722.417 116.758 725.205 113.909C727.992 111.03 731.402 108.879 735.432 107.455C739.462 106 743.917 105.273 748.795 105.273C752.159 105.273 755.508 105.667 758.841 106.455C762.174 107.242 765.22 108.545 767.977 110.364C770.735 112.152 772.947 114.591 774.614 117.682C776.311 120.773 777.159 124.636 777.159 129.273V176H761.341V166.409H760.795C759.795 168.348 758.386 170.167 756.568 171.864C754.78 173.53 752.523 174.879 749.795 175.909C747.098 176.909 743.932 177.409 740.295 177.409ZM744.568 165.318C747.871 165.318 750.735 164.667 753.159 163.364C755.583 162.03 757.447 160.273 758.75 158.091C760.083 155.909 760.75 153.53 760.75 150.955V142.727C760.235 143.152 759.356 143.545 758.114 143.909C756.902 144.273 755.538 144.591 754.023 144.864C752.508 145.136 751.008 145.379 749.523 145.591C748.038 145.803 746.75 145.985 745.659 146.136C743.205 146.47 741.008 147.015 739.068 147.773C737.129 148.53 735.598 149.591 734.477 150.955C733.356 152.288 732.795 154.015 732.795 156.136C732.795 159.167 733.902 161.455 736.114 163C738.326 164.545 741.144 165.318 744.568 165.318ZM793.705 176V106.182H809.659V117.818H810.386C811.659 113.788 813.841 110.682 816.932 108.5C820.053 106.288 823.614 105.182 827.614 105.182C828.523 105.182 829.538 105.227 830.659 105.318C831.811 105.379 832.765 105.485 833.523 105.636V120.773C832.826 120.53 831.72 120.318 830.205 120.136C828.72 119.924 827.28 119.818 825.886 119.818C822.886 119.818 820.189 120.47 817.795 121.773C815.432 123.045 813.568 124.818 812.205 127.091C810.841 129.364 810.159 131.985 810.159 134.955V176H793.705ZM862.045 82.9091V176H845.182V82.9091H862.045ZM910.034 177.364C903.216 177.364 897.307 175.864 892.307 172.864C887.307 169.864 883.428 165.667 880.67 160.273C877.943 154.879 876.58 148.576 876.58 141.364C876.58 134.152 877.943 127.833 880.67 122.409C883.428 116.985 887.307 112.773 892.307 109.773C897.307 106.773 903.216 105.273 910.034 105.273C916.852 105.273 922.761 106.773 927.761 109.773C932.761 112.773 936.625 116.985 939.352 122.409C942.11 127.833 943.489 134.152 943.489 141.364C943.489 148.576 942.11 154.879 939.352 160.273C936.625 165.667 932.761 169.864 927.761 172.864C922.761 175.864 916.852 177.364 910.034 177.364ZM910.125 164.182C913.822 164.182 916.913 163.167 919.398 161.136C921.883 159.076 923.731 156.318 924.943 152.864C926.186 149.409 926.807 145.561 926.807 141.318C926.807 137.045 926.186 133.182 924.943 129.727C923.731 126.242 921.883 123.47 919.398 121.409C916.913 119.348 913.822 118.318 910.125 118.318C906.337 118.318 903.186 119.348 900.67 121.409C898.186 123.47 896.322 126.242 895.08 129.727C893.867 133.182 893.261 137.045 893.261 141.318C893.261 145.561 893.867 149.409 895.08 152.864C896.322 156.318 898.186 159.076 900.67 161.136C903.186 163.167 906.337 164.182 910.125 164.182ZM948.966 97.0455V82.9091H1023.24V97.0455H994.466V176H977.739V97.0455H948.966Z" fill="#072444"></path>
    <defs>
    <linearGradient id="paint0_linear_2005_28" x1="127.259" y1="153.561" x2="22.7577" y2="168.703" gradientUnits="userSpaceOnUse">
    <stop stop-color="#4593B7"></stop>
    <stop offset="1" stop-color="#6AB0CD"></stop>
    </linearGradient>
    </defs>
    </svg>