<?xml version="1.0" encoding="utf-8" ?>
<svg xmlns="http://www.w3.org/2000/svg" xmlns:xlink="http://www.w3.org/1999/xlink" width="1024" height="1024">
	<path fill="transparent" d="M0 0L1024 0L1024 1024L0 1024L0 0Z"/>
	<path fill="#072444" d="M699.528 88.9226C704.448 89.0624 715.154 94.4123 720.278 96.4332L778.658 119.184C787.204 122.589 813.992 134.481 821.037 135.192C825.884 135.681 831.952 133.872 836.742 132.928C856.963 128.942 883.622 123.56 902.041 114.268C911.468 109.513 919.945 102.661 928.303 96.2817C929.129 100.9 929.641 105.569 929.837 110.257C931.271 141.604 919.285 171.879 898.336 195.033C908.547 217.525 916.577 241.455 918.537 266.183C921.161 299.296 915.497 330.24 900.324 359.824C895.301 369.619 889.375 379.266 882.234 387.655C900.717 470.177 891.05 556.511 854.773 632.901C817.74 710.127 752.502 773.904 671.084 802.557C675.425 812.042 680.903 821.296 685.926 830.443C695.023 847.01 704.176 863.484 714.123 879.563C725.434 875.478 736.844 869.833 747.52 864.276C778.124 881.145 814.128 902.47 831.906 933.694C822.049 934.046 812.096 933.671 802.228 933.677C781.331 933.848 760.432 933.863 739.535 933.721L539.25 933.868C511.226 933.924 483.029 932.634 455.034 933.943C456.043 931.309 457.223 928.785 458.741 926.405C473.03 904.001 500.56 891.969 525.567 886.4C517.821 872.435 507.729 859.093 498.591 845.986C492.759 837.637 487.498 828.34 480.662 820.791C466.724 818.55 452.935 815.458 439.374 811.534C433.424 809.837 427.614 807.704 421.659 806.019C409.313 821.521 395.562 835.85 380.583 848.826C342.349 881.68 296.516 905.169 246.483 912.909C238.641 914.122 230.616 915.159 222.681 915.457C217.435 915.654 211.79 914.813 206.645 915.911C202.761 916.74 198.948 918.533 195.217 919.904C189.263 922.112 183.192 923.988 177.03 925.525C139.168 934.595 101.339 935.855 62.6825 932.872C65.869 928.41 69.7957 924.415 73.4261 920.305L90.8059 900.427C109.761 878.844 127.872 856.533 145.099 833.546C153.838 821.966 163.179 810.216 170.096 797.425C180.884 777.474 189.289 752.055 197.615 730.704C212.074 693.21 226.274 655.617 240.214 617.928C256.2 575.219 271.973 532.772 295.36 493.408C318.53 454.41 350.668 419.712 386.865 392.516C391.999 388.696 397.277 385.074 402.687 381.658C407.974 378.29 416.795 373.952 420.813 369.515C426.702 363.012 431.939 352.025 436.457 344.2C453.985 313.846 468.488 282.648 481.437 250.095C488.768 231.663 494.982 212.539 503.076 194.445C496.593 188.066 491.116 181.365 486.656 173.413C473.095 149.232 467.41 121.004 475.068 93.984C501.793 124.029 545.045 127.825 582.107 135.356L699.528 88.9226Z"/>
	<path fill="#5BA9CA" d="M568.415 429.715C599.827 450.712 635.476 465.217 671.991 474.555C680.539 476.741 690.094 479.405 698.927 479.633C704.375 479.773 710.012 478.43 715.334 477.367C746.088 471.222 774.375 461.648 802.627 447.979C813.876 442.537 824.887 436.795 835.223 429.741C846.227 422.231 856.022 413.541 866.259 405.094C874.092 453.979 874.683 501.775 863.464 550.158C861.692 557.801 860.255 567.247 856.848 574.316C856.216 575.216 856.526 574.928 856.062 575.314C856.783 577.528 853.872 583.833 853.033 586.304L825.412 570.611C821.046 568.139 816.35 565.887 812.191 563.1C804.66 567.199 766.605 587.529 762.546 591.944L763.765 592.955C768.477 589.291 774.549 586.507 779.789 583.556L812.307 565.189C825.429 573.205 838.886 581.055 852.455 588.287C842.969 615.022 830.917 639.68 815.721 663.654C813.796 666.692 810.862 672.666 807.891 674.371L806.911 675.694C805.935 678.456 802.699 681.736 800.869 684.133C786.135 675.451 770.42 667.341 756.344 657.681L755.694 659.011C760.79 663.001 766.865 666.147 772.444 669.426C781.604 674.863 790.819 680.208 800.086 685.46C787.521 701.071 774.396 715.889 759.281 729.104C711.02 771.296 646.849 797.945 583.326 804.787C525.901 810.964 467.825 803.707 413.686 783.588C399.572 778.381 385.799 772.805 372.835 765.099C399.11 754.938 424.449 741.243 448.746 727.033C455.856 722.874 464.018 715.183 471.008 712.118L471.71 712.137C472.246 710.608 473.859 709.511 475.13 708.593C476.282 707.761 477.156 706.755 478.608 706.985C478.922 708.046 479.314 709.127 479.506 710.217C479.693 708.499 479.83 706.759 480.083 705.051C488.238 698.4 496.196 691.512 503.947 684.396C508.64 680.004 513.014 674.802 518.076 670.879C522.258 667.637 527.192 665.045 531.742 662.335C547.176 672.372 563.885 680.284 579.2 690.417C579.222 698.24 580.192 737.756 578.769 742.345L580.41 742.8C581.82 741.012 581.043 695.556 581.046 689.397C570.821 681.658 556.114 674.532 544.687 668.023C540.661 665.731 536.264 662.432 532.028 660.704C530.378 660.031 529.13 661.354 527.453 660.7C528.311 657.645 533.255 653.065 535.457 650.532C545.137 656.217 554.895 661.769 564.727 667.187C571.955 671.23 579.171 675.606 586.83 678.786C604.272 669.437 621.381 659.153 638.517 649.228C638.654 629.735 637.847 609.957 638.81 590.506C621.812 581.628 605.016 572.366 588.437 562.728C585.285 563.883 582.181 565.589 579.135 567.023C580.219 561.073 580.864 552.824 583.512 547.447C583.311 546.607 583.396 546.113 583.503 545.268C584.079 538.299 585.08 531.324 585.401 524.34C586.905 491.617 581.484 459.74 568.415 429.715Z"/>
	<path fill="#F5A14C" d="M568.415 429.715C599.827 450.712 635.476 465.217 671.991 474.555C680.539 476.741 690.094 479.405 698.927 479.633C704.375 479.773 710.012 478.43 715.334 477.367C746.088 471.222 774.375 461.648 802.627 447.979C813.876 442.537 824.887 436.795 835.223 429.741C846.227 422.231 856.022 413.541 866.259 405.094C874.092 453.979 874.683 501.775 863.464 550.158C861.692 557.801 860.255 567.247 856.848 574.316C856.216 575.216 856.526 574.928 856.062 575.314C841.162 568.482 827.084 559.295 812.652 551.49C793.741 560.945 775.814 572.213 756.92 581.704L699.797 549.787C681.191 560.123 663.128 571.546 644.252 581.404C632.847 575.19 621.698 568.534 610.307 562.313C601.449 557.474 591.834 553.117 583.512 547.447C583.311 546.607 583.396 546.113 583.503 545.268C584.079 538.299 585.08 531.324 585.401 524.34C586.905 491.617 581.484 459.74 568.415 429.715Z"/>
	<path fill="#010C1E" d="M583.503 545.268C603.943 556.232 623.834 568.204 644.299 579.119C657.118 572.267 669.805 565.17 682.353 557.833C688.162 554.459 693.901 550.666 699.869 547.612C711.226 554.029 722.628 560.367 734.073 566.625C741.66 570.807 749.682 574.888 756.867 579.713C765.567 575.71 773.848 570.691 782.19 565.996C792.202 560.362 802.266 554.82 812.38 549.372C821.889 554.04 831.088 559.513 840.299 564.746C845.752 567.844 851.704 570.748 856.848 574.316C856.216 575.216 856.526 574.928 856.062 575.314C841.162 568.482 827.084 559.295 812.652 551.49C793.741 560.945 775.814 572.213 756.92 581.704L699.797 549.787C681.191 560.123 663.128 571.546 644.252 581.404C632.847 575.19 621.698 568.534 610.307 562.313C601.449 557.474 591.834 553.117 583.512 547.447C583.311 546.607 583.396 546.113 583.503 545.268Z"/>
	<path fill="#FEFEFE" d="M758.76 473.452C763.711 475.582 768.427 478.686 773.232 481.166C782.546 485.974 792.688 490.529 801.458 496.26C802.271 503.856 801.969 511.661 801.99 519.296L802.3 543.892C796.863 549.327 789.392 552.392 782.755 556.136L759.175 569.486C754.718 569.026 724.205 549.16 716.09 545.904C716.033 530.163 716.95 514.203 716.168 498.505C730.041 489.737 744.739 482.056 758.76 473.452Z"/>
	<path fill="#FAB55E" d="M644.625 475.956C648.903 476.741 677.668 495.578 684.054 499.324C684.089 514.702 684.583 530.226 683.998 545.589L659.613 560.677C654.385 563.897 649.208 567.399 643.587 569.892C642.053 568.933 640.442 568.068 638.874 567.163C624.339 560.397 611.064 550.905 596.076 544.969L596.447 498.497C612.792 491.61 628.863 484.09 644.625 475.956Z"/>
	<path fill="#247198" d="M702.158 687.652C713.646 680.934 725.518 674.845 737.073 668.235C740.449 666.304 752.044 658.404 754.836 657.692C755.323 657.568 755.841 657.685 756.344 657.681L755.694 659.011C760.79 663.001 766.865 666.147 772.444 669.426C781.604 674.863 790.819 680.208 800.086 685.46C787.521 701.071 774.396 715.889 759.281 729.104C711.02 771.296 646.849 797.945 583.326 804.787C525.901 810.964 467.825 803.707 413.686 783.588C399.572 778.381 385.799 772.805 372.835 765.099C399.11 754.938 424.449 741.243 448.746 727.033C455.856 722.874 464.018 715.183 471.008 712.118L471.71 712.137C472.246 710.608 473.859 709.511 475.13 708.593C476.282 707.761 477.156 706.755 478.608 706.985C477.63 717.151 477.473 731.81 478 742.219C476.305 742.136 474.733 741.837 473.25 742.823C471.893 744.906 472.823 748.885 472.336 751.486C478.295 755.259 484.857 758.411 491.012 761.913C504.259 769.449 517.438 777.254 531.281 783.659C549.478 774.344 567.35 763.411 584.676 752.569C603.732 762.796 621.788 774.889 641.183 784.449C648.199 781.482 654.955 777.156 661.592 773.426L702.491 750.255L702.158 687.652Z"/>
	<path fill="#010C1E" d="M702.158 687.652C713.646 680.934 725.518 674.845 737.073 668.235C740.449 666.304 752.044 658.404 754.836 657.692C755.323 657.568 755.841 657.685 756.344 657.681L755.694 659.011C748.954 662.156 742.551 666.818 736.077 670.562C725.367 676.755 714.374 682.426 703.585 688.474L703.514 751.088C691.793 757.927 680.015 764.669 668.183 771.314C659.38 776.171 649.648 780.663 641.526 786.514C622.278 776.41 604.168 764.238 584.901 754.293C567.283 765.051 549.293 774.932 531.348 785.113C510.682 775.304 490.824 763.444 470.854 752.306C470.999 738.911 471.05 725.514 471.008 712.118L471.71 712.137C472.246 710.608 473.859 709.511 475.13 708.593C476.282 707.761 477.156 706.755 478.608 706.985C477.63 717.151 477.473 731.81 478 742.219C476.305 742.136 474.733 741.837 473.25 742.823C471.893 744.906 472.823 748.885 472.336 751.486C478.295 755.259 484.857 758.411 491.012 761.913C504.259 769.449 517.438 777.254 531.281 783.659C549.478 774.344 567.35 763.411 584.676 752.569C603.732 762.796 621.788 774.889 641.183 784.449C648.199 781.482 654.955 777.156 661.592 773.426L702.491 750.255L702.158 687.652Z"/>
	<path fill="#247198" d="M471.71 712.137C472.246 710.608 473.859 709.511 475.13 708.593C476.282 707.761 477.156 706.755 478.608 706.985C477.63 717.151 477.473 731.81 478 742.219C476.305 742.136 474.733 741.837 473.25 742.823C471.893 744.906 472.823 748.885 472.336 751.486C471.609 748.186 471.998 744.092 472.03 740.687C472.116 731.326 472.881 721.412 471.71 712.137Z"/>
	<path fill="#5BA9CA" d="M531.742 662.335C547.176 672.372 563.885 680.284 579.2 690.417C579.222 698.24 580.192 737.756 578.769 742.345L580.41 742.8C574.856 747.457 566.69 750.941 560.298 754.564C550.263 760.254 539.863 767.383 529.211 771.682C522.402 766.703 514.341 762.728 507.001 758.536C497.407 753.057 487.86 747.194 478 742.219C477.473 731.81 477.63 717.151 478.608 706.985C478.922 708.046 479.314 709.127 479.506 710.217C479.693 708.499 479.83 706.759 480.083 705.051C488.238 698.4 496.196 691.512 503.947 684.396C508.64 680.004 513.014 674.802 518.076 670.879C522.258 667.637 527.192 665.045 531.742 662.335Z"/>
	<path fill="#001436" d="M478.608 706.985C478.922 708.046 479.314 709.127 479.506 710.217C479.592 720.572 479.594 730.928 479.511 741.283C496.515 750.085 513.347 759.76 529.778 769.585C541.475 763.664 552.766 756.765 564.17 750.294C568.88 747.621 573.764 744.347 578.769 742.345L580.41 742.8C574.856 747.457 566.69 750.941 560.298 754.564C550.263 760.254 539.863 767.383 529.211 771.682C522.402 766.703 514.341 762.728 507.001 758.536C497.407 753.057 487.86 747.194 478 742.219C477.473 731.81 477.63 717.151 478.608 706.985Z"/>
	<path fill="#FEFEFE" d="M763.765 592.955C768.477 589.291 774.549 586.507 779.789 583.556L812.307 565.189C825.429 573.205 838.886 581.055 852.455 588.287C842.969 615.022 830.917 639.68 815.721 663.654C813.796 666.692 810.862 672.666 807.891 674.371C804.236 671.551 799.603 669.258 795.638 666.853C785.288 660.589 774.872 654.433 764.392 648.388C763.466 635.294 764.119 621.791 764.135 608.645C764.14 603.573 764.603 597.946 763.765 592.955Z"/>
	<path fill="#010C1E" d="M762.672 649.608C762.498 630.42 762.01 611.123 762.546 591.944L763.765 592.955C764.603 597.946 764.14 603.573 764.135 608.645C764.119 621.791 763.466 635.294 764.392 648.388C774.872 654.433 785.288 660.589 795.638 666.853C799.603 669.258 804.236 671.551 807.891 674.371L806.911 675.694C799.823 671.915 793.055 667.399 786.162 663.269C778.392 658.613 770.434 654.284 762.672 649.608Z"/>
	<path fill="#001436" d="M700.336 562.894C705.968 565.12 711.418 568.577 716.707 571.525C727.988 577.812 739.083 584.373 750.528 590.369L750.525 648.224C743.325 651.537 736.403 656.17 729.518 660.122C719.761 665.722 709.821 670.96 700.203 676.807C699.731 676.843 699.258 676.969 698.787 676.915C694.919 676.469 657.707 653.525 650.385 649.878L650.414 591.637C666.375 581.389 683.341 571.293 700.336 562.894Z"/>
	<path fill="#FEFEFE" d="M699.856 564.914C704.702 565.827 740.155 587.46 748.535 591.447L748.515 647.227C741.812 650.337 735.496 654.347 729.048 657.955C719.434 663.337 709.704 668.555 700.347 674.377C699.358 674.679 699.092 674.778 698.077 674.402C693.696 672.78 688.982 669.498 684.848 667.17C674.092 661.115 663.52 654.784 652.541 649.13C652.624 630.168 652.58 611.207 652.409 592.246C658.8 589.082 664.95 584.978 671.116 581.381L699.856 564.914Z"/>
	<path fill="#001436" d="M642.499 659.109C648.636 661.47 654.674 665.441 660.434 668.638C670.964 674.483 682.512 679.963 692.047 687.291C691.575 705.928 692.016 724.575 691.823 743.215C685.79 747.547 678.94 751.069 672.497 754.771C662.199 760.796 651.798 766.644 641.298 772.312C624.914 762.569 607.318 754.674 591.447 744.029L591.251 688.715C608.444 679.038 625.304 668.771 642.499 659.109Z"/>
	<path fill="#5BA9CA" d="M642.044 661.37C642.996 661.31 643.432 661.356 644.299 661.742C648.485 663.606 652.556 666.559 656.581 668.799C667.812 675.05 679.128 681.186 690.111 687.867C689.767 706.086 690.047 724.355 690.103 742.58L641.501 770.41C636.394 766.87 630.282 764.084 624.836 761.042C614.222 755.108 603.681 749.045 593.215 742.853C593.132 725.088 593.167 707.323 593.32 689.559C609.569 680.162 625.886 670.944 642.044 661.37Z"/>
	<path fill="#FEFEFE" d="M829.313 196.227L832.235 196.22C841.595 200.614 856.767 230.653 860.434 240.148C871.206 267.265 870.507 297.594 858.499 324.187C838.22 369.801 791.798 392.899 748.188 411.214C732.132 418.036 715.942 424.541 699.629 430.724C659.031 414.015 618.084 399.205 582.261 373.098L581.55 372.556C556.02 352.958 535.207 326.655 531.015 293.814C526.02 254.689 545.92 226.073 568.522 197.081C572.603 197.005 576.686 196.984 580.768 197.016C624.778 197.282 668.951 209.554 700.554 241.564C734.389 209.3 783.83 197.535 829.313 196.227Z"/>
	<path fill="#072444" d="M606.125 221.993C637.693 218.566 666.077 241.344 669.568 272.906C673.059 304.468 650.339 332.898 618.784 336.452C587.139 340.018 558.609 317.218 555.108 285.565C551.607 253.913 574.465 225.43 606.125 221.993Z"/>
	<path fill="#FAB55E" d="M606.115 231.143C632.52 227.5 656.903 245.887 660.663 272.276C664.422 298.665 646.144 323.129 619.772 327.006C593.234 330.907 568.582 312.488 564.799 285.933C561.015 259.378 579.543 234.808 606.115 231.143Z"/>
	<path fill="#072444" d="M610.631 248.4C627.622 247.057 642.532 259.632 644.073 276.607C645.614 293.581 633.212 308.636 616.257 310.374C605.112 311.517 594.214 306.58 587.722 297.449C581.231 288.318 580.149 276.402 584.89 266.252C589.631 256.101 599.463 249.283 610.631 248.4Z"/>
	<path fill="#FEFEFE" d="M601.304 258.711C606.314 258.14 610.833 261.755 611.377 266.768C611.921 271.782 608.283 276.281 603.266 276.799C598.287 277.312 593.829 273.707 593.289 268.731C592.749 263.755 596.331 259.277 601.304 258.711Z"/>
	<path fill="#072444" d="M782.009 223.047C813.307 220.315 840.852 243.567 843.413 274.879C845.973 306.191 822.571 333.609 791.246 335.999C760.162 338.37 733 315.187 730.459 284.116C727.918 253.045 750.953 225.757 782.009 223.047Z"/>
	<path fill="#FAB55E" d="M781.531 232.171C807.575 229.296 830.979 248.176 833.676 274.239C836.374 300.301 817.334 323.576 791.254 326.096C765.425 328.592 742.422 309.774 739.75 283.962C737.078 258.15 755.738 235.019 781.531 232.171Z"/>
	<path fill="#072444" d="M783.079 249.164C799.551 247.3 814.439 259.081 816.412 275.54C818.385 291.999 806.704 306.965 790.259 309.048C773.657 311.15 758.519 299.334 756.527 282.719C754.535 266.105 766.452 251.045 783.079 249.164Z"/>
	<path fill="#FEFEFE" d="M796.589 258.881C801.225 257.794 805.871 260.646 807.002 265.272C808.132 269.898 805.325 274.571 800.71 275.745C796.033 276.936 791.282 274.082 790.136 269.393C788.991 264.705 791.889 259.982 796.589 258.881Z"/>
	<path fill="#072444" d="M700.839 304.39C703.611 307.427 705.354 312.556 707.688 316.093C714.478 326.38 723.77 334.326 733.54 341.652C723.869 366.148 711.288 389.312 700.282 413.181L699.836 413.242C692.356 397.719 685.009 382.132 677.794 366.483C674.197 358.573 669.545 350.131 667.794 341.631C680.985 330.387 691.281 318.82 700.839 304.39Z"/>
	<path fill="#FEFEFE" d="M706.086 333.349C709.653 336.591 712.885 342.174 715.907 346.02C714.285 353.222 711.525 360.216 708.971 367.127L706.052 375.791C705.715 361.59 705.575 347.553 706.086 333.349Z"/>
	<defs>
		<linearGradient id="gradient_0" gradientUnits="userSpaceOnUse" x1="272.76984" y1="629.91473" x2="465.12714" y2="469.50452">
			<stop offset="0" stop-color="#2281AF"/>
			<stop offset="1" stop-color="#4EA4C8"/>
		</linearGradient>
	</defs>
	<path fill="url(#gradient_0)" d="M408.947 399.636C409.275 417.447 409.435 435.26 409.426 453.074C424.58 461.575 439.822 469.916 455.151 478.098C463.612 482.679 472.248 487.058 480.46 492.072L480.682 529.392C480.743 529.227 480.819 529.067 480.866 528.898C482.419 523.291 480.314 503.337 481.111 495.415C482.45 506.661 481.638 518.617 481.524 529.931L481.5 576.362C477.293 578.22 450.197 593.589 448.661 596.051L448.987 596.823L411.544 618.963L411.475 662.469C411.454 670.671 411.984 679.588 410.833 687.694L410.482 688.294C408.391 686.391 411.288 647.633 409.621 641.062L409.515 690.405C387.57 702.769 364.73 713.47 341.185 722.417C339.685 722.867 338.13 723.438 336.605 723.768L336.718 722.832L339.037 721.691L337.229 720.642C330.134 715.873 322.28 711.822 314.895 707.495C301.797 699.708 288.634 692.03 275.408 684.463C275.452 679.218 275.445 673.972 275.387 668.727C274.616 672.173 274.891 676.248 274.8 679.797C273.96 675.761 275.535 663.286 273.938 660.686C272.872 667.251 273.678 677.045 273.487 684.04C257.608 695.004 240.589 704.524 224.022 714.41C234.504 687.132 244.189 659.527 254.953 632.366C258.125 624.362 260.689 615.894 264.445 608.157C277.61 601.408 289.856 592.898 303.011 586.142C305.703 583.868 309.683 582.057 312.734 580.219C319.724 576.008 326.623 571.812 333.359 567.198C333.473 545.01 333.338 522.821 332.953 500.635C328.627 497.562 323.88 495.008 319.301 492.33L325.216 483.12C329.455 486.119 333.937 488.649 338.44 491.222C350.792 483.547 363.194 475.954 375.647 468.445C383.639 463.569 391.559 458.381 399.812 453.963C399.534 438.788 398.852 420.695 399.969 405.743C402.995 403.757 405.988 401.721 408.947 399.636Z"/>
	<path fill="#5BA9CA" d="M306.08 596.797C316.788 590.805 327.034 583.886 337.981 578.347C351.073 586.551 364.433 594.29 377.708 602.189C385.789 606.996 393.749 612.295 402.097 616.608C404.592 617.347 406.904 618.093 409.539 618.086C409.668 625.744 409.696 633.403 409.621 641.062L409.515 690.405C387.57 702.769 364.73 713.47 341.185 722.417C339.685 722.867 338.13 723.438 336.605 723.768L336.718 722.832L339.037 721.691L337.229 720.642C330.134 715.873 322.28 711.822 314.895 707.495C301.797 699.708 288.634 692.03 275.408 684.463C275.452 679.218 275.445 673.972 275.387 668.727C274.616 672.173 274.891 676.248 274.8 679.797C273.96 675.761 275.535 663.286 273.938 660.686C272.892 646.038 273.585 630.817 273.479 616.116C278.815 613.676 283.901 610.183 288.951 607.161C294.661 603.744 300.589 600.558 306.08 596.797Z"/>
	<path fill="#247198" d="M402.097 616.608C404.592 617.347 406.904 618.093 409.539 618.086C409.668 625.744 409.696 633.403 409.621 641.062L409.515 690.405C387.57 702.769 364.73 713.47 341.185 722.417C339.685 722.867 338.13 723.438 336.605 723.768L336.718 722.832L339.037 721.691C344.316 717.056 355.805 711.845 362.291 708.238C375.773 700.742 389.341 693.126 402.212 684.625C401.642 675.489 402.008 666.055 401.936 656.883C401.832 643.498 401.4 629.972 402.097 616.608Z"/>
	<path fill="#001436" d="M306.08 596.797C316.788 590.805 327.034 583.886 337.981 578.347C351.073 586.551 364.433 594.29 377.708 602.189C385.789 606.996 393.749 612.295 402.097 616.608C401.4 629.972 401.832 643.498 401.936 656.883C402.008 666.055 401.642 675.489 402.212 684.625C389.341 693.126 375.773 700.742 362.291 708.238C355.805 711.845 344.316 717.056 339.037 721.691L337.229 720.642C358.164 708.371 379.401 696.71 400.067 683.961L399.987 617.565C378.808 606.158 357.771 593.402 337.615 580.283C325.245 587.877 312.801 595.351 300.286 602.704C292.049 607.573 283.228 612.253 275.504 617.889C275.373 634.834 275.674 651.782 275.387 668.727C274.616 672.173 274.891 676.248 274.8 679.797C273.96 675.761 275.535 663.286 273.938 660.686C272.892 646.038 273.585 630.817 273.479 616.116C278.815 613.676 283.901 610.183 288.951 607.161C294.661 603.744 300.589 600.558 306.08 596.797Z"/>
	<path fill="#247198" d="M264.445 608.157C277.61 601.408 289.856 592.898 303.011 586.142C300.284 589.938 270.941 605.875 265.047 609.028C263.998 611.309 261.965 614.578 262.725 617.147C263.276 619.007 265.603 620.251 267.275 620.921C269.467 621.8 270.492 621.91 272.253 623.685C272.206 621.036 271.939 618.332 272.79 615.791C276.193 612.868 303.133 596.884 306.08 596.797C300.589 600.558 294.661 603.744 288.951 607.161C283.901 610.183 278.815 613.676 273.479 616.116C273.585 630.817 272.892 646.038 273.938 660.686C272.872 667.251 273.678 677.045 273.487 684.04C257.608 695.004 240.589 704.524 224.022 714.41C234.504 687.132 244.189 659.527 254.953 632.366C258.125 624.362 260.689 615.894 264.445 608.157Z"/>
	<path fill="#001436" d="M480.682 529.392C480.743 529.227 480.819 529.067 480.866 528.898C482.419 523.291 480.314 503.337 481.111 495.415C482.45 506.661 481.638 518.617 481.524 529.931L481.5 576.362C477.293 578.22 450.197 593.589 448.661 596.051L448.987 596.823L411.544 618.963L411.475 662.469C411.454 670.671 411.984 679.588 410.833 687.694L410.482 688.294C408.391 686.391 411.288 647.633 409.621 641.062C409.696 633.403 409.668 625.744 409.539 618.086C418.029 611.794 427.72 606.823 436.816 601.439C451.329 592.71 465.912 584.097 480.562 575.6C480.433 560.204 480.638 544.79 480.682 529.392Z"/>
	<path fill="#001436" d="M404.318 463.949C408.276 464.671 420.699 472.583 425.102 474.967L471.517 499.986L471.494 567.462C463.185 574.597 447.655 582.626 437.743 588.382C428.626 593.676 419.724 599.32 410.611 604.623C409.369 605.438 408.418 606.028 406.934 606.348C402.856 604.747 398.85 601.775 395.027 599.588C384.615 593.649 374.309 587.528 364.111 581.228C357.509 577.217 350.35 573.495 344.617 568.294C344.356 553.107 344.503 537.893 344.46 522.703C344.439 515.222 344.935 507.225 344.041 499.808C350.157 496.731 355.885 492.665 361.751 489.115C375.808 480.606 389.861 471.744 404.318 463.949Z"/>
	<path fill="#FEFEFE" d="M404.235 466.386C406.794 466.523 460.601 497.018 469.293 501.092L469.488 566.82C450.027 578.996 429.971 590.478 409.981 601.762L405.836 603.597C397.117 597.896 387.897 592.799 378.931 587.487C368.094 581.067 357.359 574.434 346.383 568.255L346.078 501.129C354.493 495.174 363.623 490.143 372.524 484.951L404.235 466.386Z"/>
	<path fill="#FAB55E" d="M556.318 450.47C573.948 498.898 569.01 550.911 547.502 597.101C542.485 607.875 536.609 617.96 529.53 627.524C520.674 639.522 511.672 650.861 501.16 661.47C475.363 686.888 446.91 707.123 415.266 724.661C345.453 763.355 271.865 781.507 193.496 792.656C194.983 785.804 202.979 766.682 206.326 760.427C207.289 760.089 208.223 759.822 209.218 759.597C209.891 758.839 211.705 758.35 212.709 758.268C213.534 758.201 212.876 758.373 213.687 758.091L213.686 758.077C213.541 758.044 213.396 758.014 213.252 757.976C211.896 757.619 210.7 757.962 209.311 757.837L208.356 757.744L207.722 756.995C208.921 752.005 220.759 720.717 223.551 717.527C226.596 714.049 232.748 711.484 236.776 709.043C249.271 701.47 262.16 694.33 274.268 686.158C294.729 698.985 316.312 709.976 336.718 722.832L336.605 723.768C338.13 723.438 339.685 722.867 341.185 722.417C364.73 713.47 387.57 702.769 409.515 690.405L409.621 641.062C411.288 647.633 408.391 686.391 410.482 688.294L410.833 687.694C411.984 679.588 411.454 670.671 411.475 662.469L411.544 618.963L448.987 596.823C460.03 591.391 470.783 584.245 481.359 577.9C488.767 582.477 496.486 586.61 504.076 590.878L506.432 589.323C498.587 584.893 489.952 580.738 482.683 575.412L482.59 493.436C498.177 481.702 515.462 473.17 532.47 463.759C540.354 459.396 548.142 454.216 556.318 450.47Z"/>
	<path fill="#D76F46" d="M485.557 634.833C490.952 643.155 494.856 652.884 500.653 660.774L501.16 661.47C475.363 686.888 446.91 707.123 415.266 724.661C345.453 763.355 271.865 781.507 193.496 792.656C194.983 785.804 202.979 766.682 206.326 760.427C207.289 760.089 208.223 759.822 209.218 759.597C209.891 758.839 211.705 758.35 212.709 758.268C213.534 758.201 212.876 758.373 213.687 758.091L213.686 758.077C213.541 758.044 213.396 758.014 213.252 757.976C211.896 757.619 210.7 757.962 209.311 757.837L208.356 757.744L207.722 756.995C208.921 752.005 220.759 720.717 223.551 717.527C226.596 714.049 232.748 711.484 236.776 709.043C249.271 701.47 262.16 694.33 274.268 686.158C294.729 698.985 316.312 709.976 336.718 722.832L336.605 723.768C338.13 723.438 339.685 722.867 341.185 722.417C340.801 723.525 340.423 724.619 340.112 725.749C351.415 722.077 362.416 717.071 373.242 712.193C415.121 693.325 454.699 669.289 485.557 634.833Z"/>
	<path fill="#5BA9CA" d="M274.268 686.158C294.729 698.985 316.312 709.976 336.718 722.832L336.605 723.768C309.56 734.071 281.821 742.451 253.595 748.847C244.568 750.904 235.491 752.735 226.372 754.338C220.464 755.386 214.082 755.967 208.356 757.744L207.722 756.995C208.921 752.005 220.759 720.717 223.551 717.527C226.596 714.049 232.748 711.484 236.776 709.043C249.271 701.47 262.16 694.33 274.268 686.158Z"/>
	<path fill="#001436" d="M336.605 723.768C338.13 723.438 339.685 722.867 341.185 722.417C340.801 723.525 340.423 724.619 340.112 725.749C306.493 737.863 275.6 747.05 240.576 754.414C230.664 756.497 219.345 759.372 209.218 759.597C209.891 758.839 211.705 758.35 212.709 758.268C213.534 758.201 212.876 758.373 213.687 758.091L213.686 758.077C213.541 758.044 213.396 758.014 213.252 757.976C211.896 757.619 210.7 757.962 209.311 757.837L208.356 757.744C214.082 755.967 220.464 755.386 226.372 754.338C235.491 752.735 244.568 750.904 253.595 748.847C281.821 742.451 309.56 734.071 336.605 723.768Z"/>
	<path fill="#D76F46" d="M481.359 577.9C488.767 582.477 496.486 586.61 504.076 590.878L506.432 589.323L511.466 592.192L510.342 593.975L510.501 594.551C489.626 627.871 464.45 654.479 431.547 676.198C425.9 679.926 417.661 685.61 411.724 688.188L410.833 687.694C411.984 679.588 411.454 670.671 411.475 662.469L411.544 618.963L448.987 596.823C460.03 591.391 470.783 584.245 481.359 577.9Z"/>
	<path fill="#001436" d="M506.432 589.323L511.466 592.192L510.342 593.975L510.501 594.551L504.076 590.878L506.432 589.323Z"/>
	<path fill="#F5A14C" d="M513.441 596.28C517.211 603.242 525.517 622.878 529.53 627.524C520.674 639.522 511.672 650.861 501.16 661.47L500.653 660.774C494.856 652.884 490.952 643.155 485.557 634.833C496.345 622.711 505.153 610.208 513.441 596.28Z"/>
	<defs>
		<linearGradient id="gradient_1" gradientUnits="userSpaceOnUse" x1="421.50113" y1="581.37634" x2="471.63815" y2="650.62866">
			<stop offset="0" stop-color="#050111"/>
			<stop offset="1" stop-color="#021D4E"/>
		</linearGradient>
	</defs>
	<path fill="url(#gradient_1)" d="M541.087 494.9L541.712 494.776C541.938 497.063 541.834 499.345 542.063 501.618C541.631 535.233 529.707 567.287 513.441 596.28C505.153 610.208 496.345 622.711 485.557 634.833C454.699 669.289 415.121 693.325 373.242 712.193C362.416 717.071 351.415 722.077 340.112 725.749C340.423 724.619 340.801 723.525 341.185 722.417C364.73 713.47 387.57 702.769 409.515 690.405L409.621 641.062C411.288 647.633 408.391 686.391 410.482 688.294L410.833 687.694L411.724 688.188C417.661 685.61 425.9 679.926 431.547 676.198C464.45 654.479 489.626 627.871 510.501 594.551L510.342 593.975L511.466 592.192C529.753 560.894 538.739 531.007 541.087 494.9Z"/>
	<path fill="#0A0406" d="M541.087 494.9C541.021 492.232 540.183 481.873 541.023 480.33C542.297 486.862 543.294 495.006 542.063 501.618C541.834 499.345 541.938 497.063 541.712 494.776L541.087 494.9Z"/>
	<path fill="#FAB55E" d="M500.736 368.29C501.868 368.203 504.179 367.737 505.181 368.205C507.661 369.365 512.565 378.584 514.521 381.184C519.419 387.694 524.997 393.707 529.964 400.174C540.773 414.411 549.283 430.254 555.183 447.128C545.731 452.005 536.477 457.315 527.155 462.438C511.463 471.061 495.994 479.494 481.85 490.545C478.442 488.481 474.946 486.545 471.493 484.556L436.445 465.487C428.115 460.924 419.879 456.126 411.355 451.933L411.043 398.568C415.594 394.957 420.91 392.144 425.976 389.325C449.646 376.155 473.806 369.86 500.736 368.29Z"/>
	<path fill="#247198" d="M838.489 196.488C851.433 197.516 865.995 198.382 878.456 202.25C898.159 232.027 904.334 277.413 897.224 312.209C888.25 356.129 860.133 390.198 823.395 414.378C792.862 434.473 759.123 446.726 723.71 455.069C712.564 457.695 702.467 461.087 690.991 458.731C684.92 457.485 678.143 456.11 672.391 453.841C674.621 453.116 678.759 454.582 681.115 455.08C683.622 451.595 682.107 435.943 681.587 431.366C680.782 424.289 675.158 427.199 670.669 423.303C670.434 423.099 670.211 422.881 669.982 422.67C680.27 426.09 690.223 430.856 700.627 433.851L701.301 433.522C713.228 427.764 726.242 423.622 738.531 418.605C750.186 413.847 762.109 409.238 773.474 403.84C811.717 385.674 850.22 358.284 865.106 316.964C875.179 289.003 872.223 255.903 859.485 229.254C853.966 217.706 846.462 206.506 838.489 196.488Z"/>
	<defs>
		<linearGradient id="gradient_2" gradientUnits="userSpaceOnUse" x1="665.16437" y1="319.56314" x2="506.32199" y2="342.86719">
			<stop offset="0" stop-color="#4593B7"/>
			<stop offset="1" stop-color="#6AB0CD"/>
		</linearGradient>
	</defs>
	<path fill="url(#gradient_2)" d="M519.908 202.921C533.806 199.789 548.397 198.722 562.572 197.461C550.293 210.192 540.138 226.121 533.235 242.454C523.11 266.41 522.126 294.261 532.002 318.434C555.427 375.773 616.95 400.619 669.982 422.67C670.211 422.881 670.434 423.099 670.669 423.303C675.158 427.199 680.782 424.289 681.587 431.366C682.107 435.943 683.622 451.595 681.115 455.08C678.759 454.582 674.621 453.116 672.391 453.841C667.716 453.38 662.393 451.381 657.848 450.076C631.675 442.823 606.596 432.084 583.284 418.147C546.572 395.8 512.807 360.903 502.541 318.028C494.763 285.539 500.551 252.211 512.114 221.407C514.372 215.392 516.537 208.375 519.908 202.921Z"/>
	<path fill="#FEFEFE" d="M588.134 564.924C604.169 574.035 620.089 583.483 636.578 591.754L636.451 648.152C626.548 652.979 617.189 659.043 607.608 664.484C600.605 668.46 593.038 671.736 586.539 676.521C569.597 667.868 553.521 657.541 536.649 648.739C557.109 622.52 567.518 600.624 578.419 569.45C581.723 568.12 584.923 566.468 588.134 564.924Z"/>
	<path fill="#175474" d="M342.379 777.047L343.481 777.022C343.392 778.653 342.268 779.991 341.377 781.326C308.317 830.874 259.616 875.923 203.527 897.659C189.951 902.921 175.352 906.534 161.108 909.396L159.823 909.319C161.305 907.235 169.865 902.945 172.565 901.233C183.703 894.286 194.428 886.697 204.685 878.506C234.818 854.15 261.45 825.758 283.83 794.131C303.813 789.512 323.016 783.768 342.379 777.047Z"/>
	<path fill="#175474" d="M256.034 799.613C256.016 800.119 255.846 800.607 255.638 801.064C252.604 807.703 240.564 820.016 235.215 825.661C198.691 864.201 154.216 898.161 102.914 914.076C102.891 912.238 114.777 899.713 117.096 896.939C139.924 869.755 161.678 841.686 182.307 812.798C189.724 811.175 197.482 810.563 204.994 809.439C222.09 806.88 239.311 804.007 256.034 799.613Z"/>
	<path fill="#D76F46" d="M597.419 147.561C613.444 142.51 629.032 135.809 644.669 129.672C662.967 122.49 681.357 115.669 699.532 108.164L699.589 116.126C699.691 115.804 699.799 115.484 699.896 115.161C700.276 113.893 700.121 113.223 699.974 111.94C699.913 111.411 699.894 110.879 699.858 110.348L700.868 109.717L701.009 151.239C700.98 160.107 700.471 169.295 701.127 178.131C701.239 190.637 700.552 203.225 701.014 215.711L699.614 215.881C695.557 211.849 692.036 207.302 687.911 203.288C658.432 174.592 635.433 162.237 597.419 147.561Z"/>
	<path fill="#0A0406" d="M699.589 116.126C699.691 115.804 699.799 115.484 699.896 115.161C700.276 113.893 700.121 113.223 699.974 111.94C699.913 111.411 699.894 110.879 699.858 110.348L700.868 109.717L701.009 151.239C700.98 160.107 700.471 169.295 701.127 178.131C701.239 190.637 700.552 203.225 701.014 215.711L699.614 215.881C699.05 201.826 699.535 187.6 699.584 173.532L699.589 116.126Z"/>
	<path fill="#FAB55E" d="M701.503 108.76C712.506 112.63 723.251 117.183 734.161 121.304C756.302 129.428 778.313 137.902 800.187 146.722C768.548 158.159 739.704 174.95 715.739 198.744C710.404 204.041 706.297 210.494 701.014 215.711C700.552 203.225 701.239 190.637 701.127 178.131C702.228 155.164 701.433 131.782 701.503 108.76Z"/>
	<path fill="#175474" d="M364.687 781.349C377.547 787.993 390.676 793.764 403.709 800.016C366.083 839.399 339.063 861.365 288.122 882.27C278.108 886.382 267.706 889.477 257.073 891.509C285.234 873.744 320.846 838.232 341.827 811.99C349.595 802.275 355.965 791.044 364.234 781.841C364.383 781.675 364.536 781.513 364.687 781.349Z"/>
	<path fill="#247198" d="M504.784 823.541C515.215 825.047 526.037 825.366 536.564 825.582C542.945 833.319 548.098 844.736 553.121 853.529C562.454 869.867 573.393 886.199 580.506 903.648C588.355 899.945 596.833 895.108 605.186 892.861L608.748 890.947C616.025 898.358 624.719 907.124 630.885 915.361C630.066 916.172 629.887 916.033 628.798 916.216C624.898 915.715 620.457 916.18 616.509 916.229C608.868 916.334 601.227 916.384 593.586 916.379L494.866 916.314C511.485 906.455 537.854 901.358 556.991 899.388L504.784 823.541Z"/>
	<path fill="#FEFEFE" d="M605.186 892.861L608.748 890.947C616.025 898.358 624.719 907.124 630.885 915.361C630.066 916.172 629.887 916.033 628.798 916.216C623.46 913.164 609.862 898.013 605.186 892.861Z"/>
	<path fill="#5BA9CA" d="M318.161 493.754C322.541 495.421 326.908 499.239 331.223 501.419C331.663 522.99 331.454 544.6 331.505 566.176C313.256 578.26 293.853 589.216 274.743 599.886C271.593 601.868 268.377 603.716 265.142 605.555C278.257 566.123 295.021 528.343 318.161 493.754Z"/>
	<path fill="#247198" d="M652.25 809.696C657.729 817.412 662.093 826.198 666.767 834.429C673.91 847.136 681.212 859.754 688.669 872.28C695.326 883.671 698.751 892.429 709.109 901.181C714.781 898.826 720.003 895.495 725.994 893.888C727.821 893.336 729.658 892.698 731.511 892.246C735.72 896.482 752.097 911.968 753.385 916.176L750.226 915.931C735.311 916.573 711.721 917.762 697.358 915.911C687.683 908.783 677.546 902.041 667.638 895.224C671.875 894.092 676.148 893.331 680.492 892.761C676.328 885.687 670.64 879.082 665.814 872.396C652.487 853.934 638.644 835.867 625.389 817.35C634.185 814.497 643.358 812.327 652.25 809.696Z"/>
	<path fill="#FEFEFE" d="M725.994 893.888C727.821 893.336 729.658 892.698 731.511 892.246C735.72 896.482 752.097 911.968 753.385 916.176L750.226 915.931C742.045 908.798 733.392 901.838 725.994 893.888Z"/>
	<path fill="#5BA9CA" d="M918.434 116.978C918.476 117.776 918.542 117.697 918.386 118.334C908.875 157.304 854.828 161.172 822.31 166.277C810.792 168.024 799.394 170.492 788.185 173.666C764.499 180.46 729.842 197.418 709.526 210.953C709.83 208.64 720.888 198.201 723.297 195.934C739.783 180.422 760.548 167.598 781.728 159.717C793.244 155.555 805.003 152.1 816.939 149.369C845.004 143.054 897.111 136.576 918.434 116.978Z"/>
	<path fill="#5BA9CA" d="M484.391 117.692C510.209 134.652 529.941 138.017 558.903 144.112C605.701 153.959 642.059 165.451 677.904 198.833L676.942 199.861L674.476 199.778C646.141 184.148 614.104 173.353 582.351 167.355C559.55 163.047 534.926 161.277 513.655 151.275C496.744 143.323 490.635 134.89 484.391 117.692Z"/>
	<path fill="#FEFEFE" d="M604.524 820.755C606.275 821.121 640.117 868.359 644.548 874.377C637.077 871.299 629.698 868.003 622.42 864.494C615.155 868.128 608.191 872.625 601.198 876.766C597.971 878.634 594.704 880.379 591.386 882.08C585.41 874.271 580.846 864.287 575.972 855.724C570.139 845.477 563.722 835.502 558.176 825.103C573.648 823.515 589.059 822.711 604.524 820.755Z"/>
	<path fill="#5BA9CA" d="M397.447 407.517C398.6 408.86 397.986 447.875 397.982 453.035C389.347 457.472 381.091 462.725 372.781 467.736C361.199 474.721 349.618 481.64 338.275 489.015L332.308 485.268L326.255 481.801C345.105 453.66 370.451 427.898 397.447 407.517Z"/>
	<path fill="#5BA9CA" d="M910.786 138.982C910.776 141.147 909.551 143.68 908.807 145.703C903.288 160.722 893.344 173.138 883.096 185.169C866.047 183.016 849.103 180.649 831.902 180.206C801.531 179.423 765.138 185.572 737.756 199.006C736.874 199.437 736.108 199.701 735.15 199.915L735.003 199.61C738.909 198.088 742.087 195.81 745.846 194.028C759.348 187.627 772.688 181.17 787.026 176.832C819.834 166.906 868.893 166.362 897.238 150.055C902.438 147.063 906.579 143.219 910.786 138.982Z"/>
	<path fill="#247198" d="M487.072 131.167C490.322 136.004 493.571 140.545 498.052 144.345C522.274 164.885 565.273 165.816 595.449 172.783C617.472 177.967 638.953 185.232 659.6 194.482L659.486 195.553C649.289 190.674 638.006 188.004 626.982 185.759C590.469 178.325 556.547 179.426 519.813 184.617C503.906 169.236 493.582 152.22 487.072 131.167Z"/>
	<path fill="#5BA9CA" d="M480.731 298.398C481.744 299.449 484.322 318.273 485.092 321.408C487.494 331.194 491.176 340.599 495.295 349.77C483.326 351.751 471.479 353.342 459.608 355.921C455.652 357.079 451.686 358.197 447.708 359.275C452.163 351.698 456.971 344.367 461.26 336.68C468.238 324.175 474.418 311.246 480.731 298.398Z"/>
	<path fill="#FEFEFE" d="M748.981 884.397C751.459 885.261 786.44 912.056 791.124 915.86C787.631 916.046 784.068 915.843 780.568 915.777C769.949 905.555 758.234 895.914 748.981 884.397Z"/>
	<path fill="#FEFEFE" d="M629.849 887.926C636.06 890.148 660.467 910.679 668.931 915.939C665.11 916.113 661.261 916.018 657.436 916.005C647.386 907.626 638.847 897.4 629.849 887.926Z"/>
	<path fill="#247198" d="M677.904 198.833C681.202 201.577 684.237 204.62 687.316 207.604C682.794 205.344 678.884 202.174 674.476 199.778L676.942 199.861L677.904 198.833Z"/>
	<path fill="#247198" d="M659.6 194.482C665.299 196.684 671.34 198.849 676.619 201.926C670.644 200.752 665.038 197.993 659.486 195.553L659.6 194.482Z"/>
</svg>
