<svg width="40" height="40" viewBox="0 0 40 40" fill="none" xmlns="http://www.w3.org/2000/svg">
<g clip-path="url(#clip0_4363_61580)">
<path d="M34.7119 28.4079C36.5798 26.7076 37.753 24.2562 37.753 21.531C37.753 16.3965 33.5907 12.2344 28.4564 12.2344C24.6335 12.2344 21.3498 14.5425 19.9219 17.8408C21.6737 19.8173 22.739 22.4153 22.739 25.2579C22.739 27.6419 21.9721 29.9532 20.5873 31.8548C21.8955 33.0091 22.9745 34.4043 23.7625 35.9523H40C39.3249 32.7785 37.3749 30.0765 34.7119 28.4079Z" fill="#374151"/>
<path d="M0 39.6793H23.0867C22.4119 36.5056 20.4619 33.8036 17.7987 32.135C19.6668 30.4347 20.8398 27.9832 20.8398 25.2579C20.8398 20.1236 16.6776 15.9613 11.5432 15.9613C6.40925 15.9613 2.24688 20.1236 2.24688 25.2579C2.24688 27.9832 3.41964 30.4347 5.28789 32.135C2.62461 33.8036 0.674753 36.5055 0 39.6793Z" fill="#9CA3AF"/>
<path d="M13.5483 7.01903C13.7517 6.81436 14.063 6.75482 14.3291 6.86398C14.5952 6.97438 14.775 7.23486 14.775 7.52264V8.98384H21.2284C21.9721 8.98384 22.5768 9.77399 22.5768 10.5176C22.5768 11.2619 21.9721 12.0532 21.2284 12.0532H14.775V13.5095C14.775 13.7979 14.5958 14.0571 14.3291 14.1681C14.0624 14.2773 13.7523 14.2165 13.5483 14.0131L10.6011 11.0659C10.4547 10.9207 10.3728 10.7223 10.3728 10.5164C10.3728 10.3098 10.4547 10.1126 10.6011 9.96563L13.5483 7.01903Z" fill="#9CA3AF" stroke="#374151" stroke-width="1.4"/>
<path d="M26.4515 1.6466C26.2481 1.44193 25.9367 1.38239 25.6706 1.49154C25.4046 1.60194 25.2247 1.86243 25.2247 2.1502V3.61141H18.7713C18.0277 3.61141 17.423 4.40155 17.423 5.14518C17.423 5.88943 18.0277 6.68081 18.7713 6.68081H25.2247V8.13705C25.2247 8.42545 25.404 8.68469 25.6706 8.79571C25.9373 8.90487 26.2474 8.84409 26.4515 8.64066L29.3987 5.69344C29.5451 5.54831 29.6269 5.34985 29.6269 5.14394C29.6269 4.93741 29.5451 4.74018 29.3987 4.59319L26.4515 1.6466Z" fill="white" stroke="#374151" stroke-width="1.4"/>
</g>
<defs>
<clipPath id="clip0_4363_61580">
<rect width="40" height="40" fill="white"/>
</clipPath>
</defs>
</svg>
