<svg width="15" height="14" viewBox="0 0 15 14" fill="none" xmlns="http://www.w3.org/2000/svg">
<g clip-path="url(#clip0_3738_44167)">
<path d="M13.3964 0.583252H2.3438C1.95296 0.583252 1.57812 0.742317 1.30175 1.02545C1.02538 1.30859 0.870117 1.69261 0.870117 2.09302V8.88699C0.870117 9.28741 1.02538 9.67142 1.30175 9.95456C1.57812 10.2377 1.95296 10.3968 2.3438 10.3968H3.81749V12.6614C3.81743 12.8037 3.85661 12.943 3.93051 13.0635C4.0044 13.1839 4.11 13.2805 4.23514 13.3421C4.36028 13.4037 4.49987 13.4278 4.63782 13.4117C4.77577 13.3956 4.90647 13.3399 5.01485 13.251L8.49717 10.3968H13.3964C13.7873 10.3968 14.1621 10.2377 14.4385 9.95456C14.7149 9.67142 14.8701 9.28741 14.8701 8.88699V2.09302C14.8701 1.69261 14.7149 1.30859 14.4385 1.02545C14.1621 0.742317 13.7873 0.583252 13.3964 0.583252ZM4.92275 6.62233C4.70415 6.62233 4.49046 6.55592 4.3087 6.4315C4.12694 6.30708 3.98527 6.13024 3.90162 5.92333C3.81796 5.71642 3.79608 5.48875 3.83872 5.2691C3.88137 5.04945 3.98664 4.84769 4.14121 4.68933C4.29578 4.53097 4.49272 4.42313 4.70712 4.37944C4.92152 4.33574 5.14375 4.35817 5.34572 4.44387C5.54768 4.52957 5.72029 4.67471 5.84174 4.86092C5.96319 5.04713 6.02801 5.26605 6.02801 5.49001C6.02801 5.79032 5.91157 6.07833 5.70429 6.29068C5.49701 6.50304 5.21588 6.62233 4.92275 6.62233ZM7.87012 6.62233C7.65152 6.62233 7.43783 6.55592 7.25607 6.4315C7.07431 6.30708 6.93264 6.13024 6.84899 5.92333C6.76533 5.71642 6.74344 5.48875 6.78609 5.2691C6.82874 5.04945 6.934 4.84769 7.08858 4.68933C7.24315 4.53097 7.44009 4.42313 7.65449 4.37944C7.86889 4.33574 8.09112 4.35817 8.29308 4.44387C8.49504 4.52957 8.66766 4.67471 8.78911 4.86092C8.91056 5.04713 8.97538 5.26605 8.97538 5.49001C8.97538 5.79032 8.85893 6.07833 8.65166 6.29068C8.44438 6.50304 8.16325 6.62233 7.87012 6.62233ZM10.8175 6.62233C10.5989 6.62233 10.3852 6.55592 10.2034 6.4315C10.0217 6.30708 9.88001 6.13024 9.79636 5.92333C9.7127 5.71642 9.69081 5.48875 9.73346 5.2691C9.77611 5.04945 9.88137 4.84769 10.0359 4.68933C10.1905 4.53097 10.3875 4.42313 10.6019 4.37944C10.8163 4.33574 11.0385 4.35817 11.2405 4.44387C11.4424 4.52957 11.615 4.67471 11.7365 4.86092C11.8579 5.04713 11.9227 5.26605 11.9227 5.49001C11.9227 5.79032 11.8063 6.07833 11.599 6.29068C11.3917 6.50304 11.1106 6.62233 10.8175 6.62233Z" fill="#6B7280"/>
</g>
<defs>
<clipPath id="clip0_3738_44167">
<rect width="14" height="14" fill="white" transform="translate(0.870117)"/>
</clipPath>
</defs>
</svg>
