<svg width="29" height="28" viewBox="0 0 29 28" fill="none" xmlns="http://www.w3.org/2000/svg">
<path d="M3.0639 4.0918C2.22512 4.0918 1.54492 4.77409 1.54492 5.61078V19.582C1.54492 20.4187 2.30858 21.1845 3.14736 21.1845H5.33402C5.58858 22.6993 6.90308 23.8552 8.48883 23.8552C10.0746 23.8552 11.3891 22.6993 11.6436 21.1845H16.5845C17.4212 21.1845 18.1035 20.5022 18.1035 19.6655V5.64416C18.1035 4.78869 17.4295 4.0918 16.6012 4.0918H3.0639ZM19.1718 7.83082V21.1845C19.4284 22.6972 20.7909 23.8552 22.3766 23.8552C23.9624 23.8552 25.2769 22.6972 25.5314 21.1845H26.6498C27.4886 21.1845 28.2522 20.4208 28.2522 19.582V14.4409C28.2522 13.3663 27.4782 12.2688 27.3843 12.1374L25.1642 9.16619C24.6551 8.55275 23.856 7.83082 22.9108 7.83082H19.1718ZM21.8425 10.5016H24.8304L26.533 12.7717C26.7145 13.0283 27.184 13.8149 27.184 14.4409V14.7747H21.8425C21.3083 14.7747 20.7742 14.2406 20.7742 13.7064V11.5698C20.7742 10.9794 21.3083 10.5016 21.8425 10.5016ZM8.48883 18.5138C9.6677 18.5138 10.6254 19.4715 10.6254 20.6503C10.6254 21.8292 9.6677 22.7869 8.48883 22.7869C7.30995 22.7869 6.35224 21.8292 6.35224 20.6503C6.35224 19.4715 7.30995 18.5138 8.48883 18.5138ZM22.3766 18.5138C23.5555 18.5138 24.5132 19.4715 24.5132 20.6503C24.5132 21.8292 23.5555 22.7869 22.3766 22.7869C21.1978 22.7869 20.24 21.8292 20.24 20.6503C20.24 19.4715 21.1978 18.5138 22.3766 18.5138Z" fill="#374151"/>
<g clip-path="url(#clip0_7161_48663)">
<path d="M15.0643 11.9068L13.7701 10.6126C13.6035 10.446 13.3527 10.446 13.1862 10.6126C13.0196 10.7791 13.0196 11.0299 13.1862 11.1965L13.8122 11.8225H10.7141V8.77659L11.298 9.36049C11.4646 9.52704 11.7154 9.52704 11.8819 9.36049C12.0485 9.19395 12.0485 8.94314 11.8819 8.77659L10.5877 7.48238C10.4292 7.32387 10.2406 7.28775 9.96168 7.48238L8.66947 8.77659C8.50293 8.94314 8.50293 9.19395 8.66947 9.36049C8.83602 9.52704 9.08683 9.52704 9.25337 9.36049L9.87941 8.73446V11.8225H6.82347L7.40737 11.2386C7.57391 11.0721 7.57391 10.8212 7.40737 10.6547C7.24083 10.4882 6.99001 10.4882 6.82347 10.6547L5.52926 11.9469C5.37074 12.1054 5.33463 12.294 5.52926 12.5729L6.82347 13.8672C6.99001 14.0337 7.24083 14.0337 7.40737 13.8672C7.57391 13.7006 7.57391 13.4498 7.40737 13.2833L6.78133 12.6572H9.8774V15.7212L9.29551 15.1373C9.12897 14.9707 8.87815 14.9707 8.71161 15.1373C8.54507 15.3038 8.54507 15.5546 8.71161 15.7212L10.0058 17.0154C10.1643 17.1739 10.353 17.21 10.6319 17.0154L11.9261 15.7212C12.0926 15.5546 12.0926 15.3038 11.9261 15.1373C11.7595 14.9707 11.5087 14.9707 11.3422 15.1373L10.7161 15.7633V12.6572H13.7721L13.1882 13.2411C13.0216 13.4077 13.0216 13.6585 13.1882 13.825C13.3547 13.9916 13.6055 13.9916 13.7721 13.825L15.0663 12.5308C15.2228 12.3743 15.2569 12.1857 15.0643 11.9068Z" fill="white"/>
</g>
<defs>
<clipPath id="clip0_7161_48663">
<rect width="9.8" height="9.8" fill="white" transform="translate(5.39648 7.34961)"/>
</clipPath>
</defs>
</svg>
