<svg width="40" height="40" viewBox="0 0 40 40" fill="none" xmlns="http://www.w3.org/2000/svg">
<path d="M4.22193 15.3809C3.23927 15.3809 2.44238 16.1802 2.44238 17.1604V33.5284C2.44238 34.5086 3.33705 35.4057 4.31971 35.4057H6.88148C7.1797 37.1803 8.7197 38.5346 10.5775 38.5346C12.4352 38.5346 13.9752 37.1803 14.2735 35.4057H20.0619C21.0421 35.4057 21.8414 34.6064 21.8414 33.6261V17.1995C21.8414 16.1973 21.0519 15.3809 20.0814 15.3809H4.22193ZM23.093 19.7613V35.4057C23.3937 37.1779 24.9899 38.5346 26.8476 38.5346C28.7054 38.5346 30.2454 37.1779 30.5436 35.4057H31.8538C32.8365 35.4057 33.7312 34.511 33.7312 33.5284V27.5053C33.7312 26.2464 32.8243 24.9606 32.7143 24.8066L30.1134 21.3257C29.517 20.6071 28.5807 19.7613 27.4734 19.7613H23.093ZM26.2219 22.8902H29.7223L31.717 25.5497C31.9296 25.8504 32.4796 26.7719 32.4796 27.5053V27.8964H26.2219C25.5961 27.8964 24.9703 27.2706 24.9703 26.6448V24.1417C24.9703 23.4499 25.5961 22.8902 26.2219 22.8902ZM10.5775 32.2768C11.9586 32.2768 13.0806 33.3988 13.0806 34.7799C13.0806 36.161 11.9586 37.283 10.5775 37.283C9.19636 37.283 8.07437 36.161 8.07437 34.7799C8.07437 33.3988 9.19636 32.2768 10.5775 32.2768ZM26.8476 32.2768C28.2287 32.2768 29.3507 33.3988 29.3507 34.7799C29.3507 36.161 28.2287 37.283 26.8476 37.283C25.4665 37.283 24.3445 36.161 24.3445 34.7799C24.3445 33.3988 25.4665 32.2768 26.8476 32.2768Z" fill="#374151"/>
<path d="M27.7039 16.2565C31.0103 16.2565 33.6906 13.5762 33.6906 10.2699C33.6906 9.99286 33.2754 9.94706 33.1322 10.1841C32.4507 11.3119 31.213 12.0659 29.7993 12.0659C27.6501 12.0659 25.9079 10.3237 25.9079 8.17453C25.9079 6.76075 26.6619 5.52307 27.7897 4.84161C28.0267 4.69836 27.9809 4.2832 27.7039 4.2832C24.3976 4.2832 21.7173 6.96352 21.7173 10.2699C21.7173 13.5762 24.3976 16.2565 27.7039 16.2565Z" fill="white" stroke="#374151" stroke-width="1.4"/>
</svg>
