<svg width="300" height="301" viewBox="0 0 300 301" fill="none" xmlns="http://www.w3.org/2000/svg">
<path d="M234.375 63.3125C202.5 63.3125 172.5 50.1875 150 28.625C127.5 50.1875 97.5 63.3125 65.625 63.3125C52.5 63.3125 40.3125 60.5 28.125 56.75C28.125 188 79.6875 240.5 150 272.375C220.312 240.5 271.875 188 271.875 56.75C259.688 60.5 247.5 63.3125 234.375 63.3125Z" stroke="#4B5563" stroke-width="18.75" stroke-miterlimit="10" stroke-linecap="round" stroke-linejoin="round"/>
<path d="M150 159.875C170.711 159.875 187.5 143.086 187.5 122.375C187.5 101.664 170.711 84.875 150 84.875C129.289 84.875 112.5 101.664 112.5 122.375C112.5 143.086 129.289 159.875 150 159.875Z" stroke="#FFB017" stroke-width="18.75" stroke-miterlimit="10" stroke-linecap="round" stroke-linejoin="round"/>
<path d="M77.8203 221.75C94.6953 201.125 120.945 188 150.008 188C179.07 188 205.32 201.125 222.195 221.75" stroke="#FFB017" stroke-width="18.75" stroke-miterlimit="10" stroke-linecap="round" stroke-linejoin="round"/>
</svg>
