<svg width="39" height="46" viewBox="0 0 39 46" fill="none" xmlns="http://www.w3.org/2000/svg">
<path d="M17.0658 3.82117C18.2013 1.99485 20.7986 1.99484 21.9341 3.82117C26.1665 10.6285 34.435 24.7203 34.435 30.918C34.435 39.2476 27.7484 46 19.5 46C11.2516 46 4.56494 39.2476 4.56494 30.918C4.56494 24.7203 12.8334 10.6285 17.0658 3.82117Z" fill="white"/>
<path d="M17.0504 11.5877C18.167 9.7146 20.8078 9.7146 21.9245 11.5877C25.1412 16.9833 30.4014 26.4695 30.4014 30.8041C30.4014 37.0478 25.5151 42.1094 19.4874 42.1094C13.4598 42.1094 8.57343 37.0478 8.57342 30.8041C8.57342 26.4695 13.8337 16.9833 17.0504 11.5877Z" fill="#F59E0B"/>
<path d="M21.5183 5.50805C23.5142 8.80935 26.3789 13.7421 28.743 18.5737C29.9252 20.9898 30.9781 23.3723 31.7345 25.5078C32.4948 27.6542 32.9394 29.5076 32.9394 30.8804C32.9394 38.588 26.9063 44.8066 19.5 44.8066C12.0937 44.8066 6.06067 38.588 6.06067 30.8804C6.06067 29.5076 6.50525 27.6542 7.26554 25.5078C8.02192 23.3723 9.07487 20.9898 10.2571 18.5737C12.6212 13.7421 15.4858 8.80934 17.4818 5.50805C18.415 3.9646 20.5851 3.9646 21.5183 5.50805Z" stroke="#F59E0B"/>
<circle cx="15.7499" cy="28.3969" r="2.25" fill="white"/>
<circle cx="23.2499" cy="28.3969" r="2.25" fill="white"/>
<path d="M16.4999 34.0219L21.9999 32.0219" stroke="white" stroke-linecap="round"/>
</svg>
