<svg width="38" height="46" viewBox="0 0 38 46" fill="none" xmlns="http://www.w3.org/2000/svg">
<path d="M16.5658 3.82117C17.7013 1.99485 20.2986 1.99484 21.4341 3.82117C25.6665 10.6285 33.935 24.7203 33.935 30.918C33.935 39.2476 27.2484 46 19 46C10.7516 46 4.06494 39.2476 4.06494 30.918C4.06494 24.7203 12.3334 10.6285 16.5658 3.82117Z" fill="white"/>
<path d="M16.5504 11.5877C17.667 9.7146 20.3078 9.7146 21.4245 11.5877C24.6412 16.9833 29.9014 26.4695 29.9014 30.8041C29.9014 37.0478 25.0151 42.1094 18.9874 42.1094C12.9598 42.1094 8.07343 37.0478 8.07342 30.8041C8.07342 26.4695 13.3337 16.9833 16.5504 11.5877Z" fill="#3B82F6"/>
<path d="M21.0183 5.50805C23.0142 8.80935 25.8789 13.7421 28.243 18.5737C29.4252 20.9898 30.4781 23.3723 31.2345 25.5078C31.9948 27.6542 32.4394 29.5076 32.4394 30.8804C32.4394 38.588 26.4063 44.8066 19 44.8066C11.5937 44.8066 5.56067 38.588 5.56067 30.8804C5.56067 29.5076 6.00525 27.6542 6.76554 25.5078C7.52192 23.3723 8.57487 20.9898 9.75707 18.5737C12.1212 13.7421 14.9858 8.80934 16.9818 5.50805C17.915 3.9646 20.0851 3.9646 21.0183 5.50805Z" stroke="#3B82F6"/>
<path d="M15.9197 32.8969C15.9197 32.8969 15.9486 35.8969 19.0145 35.8969C22.0804 35.8969 22.0804 32.8969 22.0804 32.8969" stroke="white" stroke-linecap="round"/>
<ellipse cx="15.1496" cy="28.3969" rx="2.31026" ry="2.25" fill="white"/>
<ellipse cx="22.8505" cy="28.3969" rx="2.31026" ry="2.25" fill="white"/>
</svg>
