<svg width="39" height="47" viewBox="0 0 39 47" fill="none" xmlns="http://www.w3.org/2000/svg">
<path d="M17.0658 4.12781C18.2013 2.30149 20.7986 2.30149 21.9341 4.12781C26.1665 10.9351 34.435 25.027 34.435 31.2247C34.435 39.5542 27.7484 46.3066 19.5 46.3066C11.2516 46.3066 4.56494 39.5542 4.56494 31.2247C4.56494 25.027 12.8334 10.9351 17.0658 4.12781Z" fill="white"/>
<path d="M17.0504 11.8943C18.167 10.0212 20.8078 10.0212 21.9245 11.8943C25.1412 17.29 30.4014 26.7761 30.4014 31.1108C30.4014 37.3545 25.5151 42.416 19.4874 42.416C13.4598 42.416 8.57343 37.3545 8.57342 31.1108C8.57342 26.7761 13.8337 17.29 17.0504 11.8943Z" fill="#DC2626"/>
<path d="M21.5183 5.81469C23.5142 9.11599 26.3789 14.0488 28.743 18.8803C29.9252 21.2964 30.9781 23.679 31.7345 25.8144C32.4948 27.9609 32.9394 29.8142 32.9394 31.1871C32.9394 38.8946 26.9063 45.1133 19.5 45.1133C12.0937 45.1133 6.06067 38.8946 6.06067 31.1871C6.06067 29.8142 6.50525 27.9609 7.26554 25.8144C8.02192 23.679 9.07487 21.2964 10.2571 18.8803C12.6212 14.0488 15.4858 9.11598 17.4818 5.81469C18.415 4.27124 20.5851 4.27124 21.5183 5.81469Z" stroke="#DC2626"/>
<path d="M21.2425 29.5582C21.4057 29.8045 21.6158 30.0163 21.8608 30.1814C22.1059 30.3465 22.381 30.4618 22.6706 30.5206C22.9601 30.5794 23.2585 30.5806 23.5485 30.5241C23.8385 30.4676 24.1146 30.3545 24.3609 30.1913C24.6072 30.0282 24.819 29.8181 24.9841 29.573C25.1492 29.328 25.2645 29.0529 25.3233 28.7633C25.3821 28.4737 25.3833 28.1754 25.3268 27.8854C25.2703 27.5954 25.1572 27.3193 24.994 27.073L23.1183 28.3156L21.2425 29.5582Z" fill="white"/>
<path d="M14.1997 27.0074C14.0281 27.248 13.9056 27.52 13.8392 27.8079C13.7727 28.0958 13.7636 28.394 13.8124 28.6854C13.8612 28.9768 13.9669 29.2557 14.1235 29.5063C14.2801 29.7569 14.4845 29.9741 14.7251 30.1457C14.9656 30.3173 15.2376 30.4398 15.5256 30.5062C15.8135 30.5727 16.1116 30.5818 16.4031 30.533C16.6945 30.4842 16.9734 30.3785 17.224 30.2219C17.4746 30.0653 17.6918 29.8609 17.8634 29.6203L16.0315 28.3138L14.1997 27.0074Z" fill="white"/>
<path d="M16.5649 35.1318C16.5649 35.1318 16.5931 32.1318 19.579 32.1318C22.5649 32.1318 22.5649 35.1318 22.5649 35.1318" stroke="white" stroke-linecap="round"/>
</svg>
