<svg width="38" height="46" viewBox="0 0 38 46" fill="none" xmlns="http://www.w3.org/2000/svg">
<path d="M15.0376 3.82117C16.1731 1.99485 18.7703 1.99484 19.9059 3.82117C24.1383 10.6285 32.4067 24.7203 32.4067 30.918C32.4067 39.2476 25.7201 46 17.4717 46C9.22332 46 2.53668 39.2476 2.53668 30.918C2.53668 24.7203 10.8051 10.6285 15.0376 3.82117Z" fill="white"/>
<path d="M15.0221 11.5877C16.1388 9.7146 18.7796 9.7146 19.8962 11.5877C23.113 16.9833 28.3732 26.4695 28.3732 30.8041C28.3732 37.0478 23.4868 42.1094 17.4592 42.1094C11.4315 42.1094 6.54517 37.0478 6.54517 30.8041C6.54517 26.4695 11.8054 16.9833 15.0221 11.5877Z" fill="#3B82F6"/>
<path d="M19.49 5.50805C21.486 8.80935 24.3506 13.7421 26.7147 18.5737C27.8969 20.9898 28.9499 23.3723 29.7063 25.5078C30.4665 27.6542 30.9111 29.5076 30.9111 30.8804C30.9111 38.588 24.8781 44.8066 17.4718 44.8066C10.0655 44.8066 4.03241 38.588 4.03241 30.8804C4.03241 29.5076 4.47699 27.6542 5.23728 25.5078C5.99366 23.3723 7.04661 20.9898 8.22881 18.5737C10.5929 13.7421 13.4576 8.80934 15.4535 5.50805C16.3867 3.9646 18.5568 3.9646 19.49 5.50805Z" stroke="#6366F1"/>
<rect x="25.9633" y="35.1198" width="9" height="9" rx="4.5" fill="#6366F1"/>
<rect x="25.9633" y="35.1198" width="9" height="9" rx="4.5" stroke="white"/>
<path d="M31.3031 38.347L31.3031 38.8584L29.5155 38.8584L29.5155 38.347L31.3031 38.347ZM29.9949 37.5629L30.6319 37.5629L30.6319 40.6588C30.6319 40.7824 30.6504 40.8754 30.6873 40.9379C30.7243 40.999 30.7719 41.0409 30.8301 41.0636C30.8898 41.0849 30.9544 41.0956 31.024 41.0956C31.0751 41.0956 31.1199 41.0921 31.1582 41.0849C31.1966 41.0778 31.2264 41.0722 31.2477 41.0679L31.3628 41.5942C31.3258 41.6084 31.2733 41.6226 31.2051 41.6368C31.1369 41.6524 31.0517 41.6609 30.9494 41.6624C30.7818 41.6652 30.6255 41.6354 30.4807 41.5729C30.3358 41.5104 30.2186 41.4138 30.1291 41.2831C30.0396 41.1524 29.9949 40.9884 29.9949 40.7909L29.9949 37.5629Z" fill="white"/>
<path d="M14.3915 32.7448C14.3915 32.7448 14.4204 35.7448 17.4863 35.7448C20.5522 35.7448 20.5522 32.7448 20.5522 32.7448" stroke="white" stroke-linecap="round"/>
<ellipse cx="13.6213" cy="28.2448" rx="2.31026" ry="2.25" fill="white"/>
<ellipse cx="21.3223" cy="28.2448" rx="2.31026" ry="2.25" fill="white"/>
</svg>
